<svg width="30" height="35" viewBox="0 0 30 35" fill="none" xmlns="http://www.w3.org/2000/svg">
<path d="M20.3571 8.75C20.3571 7.2996 19.7927 5.9086 18.7881 4.88301C17.7834 3.85742 16.4208 3.28125 15 3.28125C13.5792 3.28125 12.2166 3.85742 11.2119 4.88301C10.2073 5.9086 9.64286 7.2996 9.64286 8.75C9.64286 10.2004 10.2073 11.5914 11.2119 12.617C12.2166 13.6426 13.5792 14.2188 15 14.2188C16.4208 14.2188 17.7834 13.6426 18.7881 12.617C19.7927 11.5914 20.3571 10.2004 20.3571 8.75ZM6.42857 8.75C6.42857 6.42936 7.33163 4.20376 8.93908 2.56282C10.5465 0.921872 12.7267 0 15 0C17.2733 0 19.4535 0.921872 21.0609 2.56282C22.6684 4.20376 23.5714 6.42936 23.5714 8.75C23.5714 11.0706 22.6684 13.2962 21.0609 14.9372C19.4535 16.5781 17.2733 17.5 15 17.5C12.7267 17.5 10.5465 16.5781 8.93908 14.9372C7.33163 13.2962 6.42857 11.0706 6.42857 8.75ZM3.30134 31.7188H26.6987C26.1027 27.3916 22.4598 24.0625 18.0603 24.0625H11.9397C7.54018 24.0625 3.89732 27.3916 3.30134 31.7188ZM0 32.9697C0 26.2363 5.34375 20.7812 11.9397 20.7812H18.0603C24.6562 20.7812 30 26.2363 30 32.9697C30 34.0908 29.1094 35 28.0112 35H1.98884C0.890625 35 0 34.0908 0 32.9697Z" fill="#785E4C"/>
</svg>
