<svg width="150" height="147" viewBox="0 0 150 147" fill="none" xmlns="http://www.w3.org/2000/svg">
<g clip-path="url(#clip0_2695_3645)">
<path d="M3.05371 43.4795V106.428C3.05371 115.954 9.01128 124.695 18.9385 131.575V68.6296C9.01128 61.7506 3.05371 53.0008 3.05371 43.4795Z" fill="#EAE2D6"/>
<path d="M18.9385 68.6294V131.575L74.995 106.426V43.478L18.9385 68.6294Z" fill="#EAE2D6"/>
<path d="M57.207 114.41L74.9974 106.427V43.478L57.207 51.4592V114.41Z" fill="#EAE2D6"/>
<path d="M74.9951 43.4795V106.428L101.804 143.684V80.7323L74.9951 43.4795Z" fill="#EAE2D6"/>
<path d="M101.804 80.7321V143.684C128.256 137.75 146.945 123.309 146.945 106.427V43.478C146.946 60.3638 128.256 74.8032 101.804 80.7321Z" fill="#EAE2D6"/>
<path d="M3.05371 81.1213V92.3256C3.05371 101.852 9.01128 110.595 18.9385 117.477V106.271C9.01128 99.3898 3.05371 90.6492 3.05371 81.1213Z" fill="white"/>
<path d="M18.9385 106.271V117.477L74.995 92.3268V81.1199L18.9385 106.271Z" fill="white"/>
<path d="M74.9951 81.1213V92.3256L101.804 129.586V118.381L74.9951 81.1213Z" fill="white"/>
<path d="M101.804 118.381V129.585C128.256 123.649 146.945 109.21 146.945 92.3268V81.1199C146.946 98.007 128.256 112.445 101.804 118.381Z" fill="white"/>
<path d="M74.9951 43.4795V72.6532L101.804 109.911V80.7323L74.9951 43.4795Z" fill="#EAE2D6"/>
<path d="M3.05371 43.4795V72.6532C3.05371 82.1811 9.01128 90.9217 18.9385 97.8033V68.6309C9.01128 61.7506 3.05371 53.0008 3.05371 43.4795Z" fill="#EAE2D6"/>
<path d="M18.9385 68.6294V97.8032L74.995 72.6531V43.478L18.9385 68.6294Z" fill="#EAE2D6"/>
<path d="M101.804 80.7322V109.913C128.256 103.974 146.945 89.5364 146.945 72.6519V43.4768C146.946 60.3639 128.256 74.8033 101.804 80.7322Z" fill="#EAE2D6"/>
<path d="M57.207 80.6369L74.9974 72.6531V43.478L57.207 51.4592V80.6369Z" fill="#EAE2D6"/>
<path d="M74.9951 3.33301C35.2638 3.33301 3.05371 21.3064 3.05371 43.4782C3.05371 52.9981 9.00879 61.748 18.9385 68.6269L74.9951 43.4782L101.804 80.731C128.255 74.8007 146.945 60.3626 146.945 43.4782C146.946 21.3064 114.729 3.33301 74.9951 3.33301Z" fill="#BDA787"/>
<path d="M118.461 11.4861C129.739 18.5728 136.601 27.9062 136.601 38.126C136.601 53.8197 120.462 67.3818 96.9534 73.9869L101.807 80.7309C128.256 74.8019 146.946 60.3626 146.946 43.4781C146.946 30.4188 135.761 18.8189 118.461 11.4861Z" fill="#BDA787"/>
<path d="M70.0882 45.6799L18.9372 68.6296C16.0146 66.6053 13.4826 64.3983 11.2937 62.0762L64.6548 38.1275C64.6548 38.1275 72.4817 34.9057 77.3973 41.5861L70.0882 45.6799Z" fill="#BDA787"/>
<path d="M101.804 83.9395C100.873 83.9395 99.9746 83.4817 99.3993 82.6799L74.0191 47.4039L20.1202 71.5868C19.1967 72.0036 18.1322 71.9017 17.2837 71.3168C6.15721 63.603 0.0236816 53.7139 0.0236816 43.4781C0.0236816 19.1629 32.9563 0.123047 74.9937 0.123047C117.04 0.123047 149.974 19.1629 149.974 43.4781C149.974 61.5402 131.309 77.3953 102.431 83.8707C102.222 83.9223 102.01 83.9395 101.804 83.9395ZM74.995 40.2735C75.9184 40.2735 76.8169 40.7168 77.406 41.5331L103.038 77.1585C127.571 71.1898 143.918 57.7944 143.918 43.4795C143.918 23.4578 112.356 6.54156 74.995 6.54156C37.6397 6.54156 6.07734 23.4565 6.07734 43.4795C6.07734 51.0901 10.7508 58.6836 19.2753 64.9949L73.8169 40.5209C74.2013 40.3529 74.6019 40.2735 74.995 40.2735Z" fill="#393732"/>
<path d="M3.04858 59.7078V70.912C3.04858 80.4386 9.00615 89.1819 18.9334 96.0635V84.8579C9.00615 77.9762 3.04858 69.2356 3.04858 59.7078Z" fill="white"/>
<path d="M18.9333 84.8577V96.0633L74.9912 70.9132V59.7063L18.9333 84.8577Z" fill="white"/>
<path d="M101.8 96.967V108.171C128.252 102.236 146.941 87.7964 146.941 70.9132V59.7063C146.941 76.5934 128.251 91.0315 101.8 96.967Z" fill="white"/>
<path d="M101.804 146.893C100.873 146.893 99.9746 146.435 99.3993 145.627L74.0191 110.349L20.1202 134.534C19.1967 134.949 18.1323 134.848 17.2837 134.265C6.15721 126.548 0.0236816 116.666 0.0236816 106.428V43.4782C0.0236816 41.7065 1.37892 40.2723 3.05238 40.2723C4.72335 40.2723 6.07609 41.7065 6.07609 43.4782C6.07609 51.0875 10.7496 58.6823 19.2741 64.9937L73.8157 40.5197C75.0861 39.9507 76.5686 40.3649 77.4035 41.5319L103.036 77.1572C127.569 71.1886 143.915 57.7945 143.915 43.4782C143.915 41.7065 145.273 40.2723 146.944 40.2723C148.615 40.2723 149.973 41.7065 149.973 43.4782V106.428C149.973 124.48 131.307 140.346 102.429 146.823C102.222 146.866 102.01 146.893 101.804 146.893ZM74.995 103.216C75.9184 103.216 76.8169 103.662 77.406 104.476L103.038 140.107C127.571 134.131 143.918 120.735 143.918 106.428V60.7332C136.212 71.1753 121.566 79.5799 102.432 83.8721C101.274 84.1328 100.109 83.6657 99.4006 82.6813L74.0204 47.4053L20.1214 71.5868C19.198 72.0036 18.1335 71.9017 17.2849 71.3182C12.6564 68.1083 8.89265 64.5239 6.07859 60.7014V106.428C6.07859 114.041 10.752 121.636 19.2766 127.943L73.8182 103.466C74.2013 103.3 74.6019 103.216 74.995 103.216Z" fill="#393732"/>
<path d="M74.9912 59.7078V70.912L101.8 108.173V96.9685L74.9912 59.7078Z" fill="white"/>
<g clip-path="url(#clip1_2695_3645)">
<path d="M13.6002 43.7045C13.6002 43.7045 13.192 44.5754 12.5389 44.8492C12.5389 44.8492 12.1702 45.2318 12.2544 45.7761H11.475C11.475 45.7761 11.475 46.8647 11.6779 47.0824L11.0247 47.3562C11.0247 47.3562 10.9233 48.5272 11.3934 48.5009C11.3934 48.5009 11.0891 48.8274 11.0173 48.9924C10.9456 49.154 11.1089 50.3547 11.3934 50.4075L11 50.4966C11 50.4966 11.3117 51.4961 11.6383 51.4961C11.6383 51.4961 11.1064 52.5319 11.2301 53.2939C11.3538 54.0559 11.475 53.8942 11.475 53.8942C11.475 53.8942 10.7798 54.8212 11.3513 55.5832C11.9228 56.3452 12.1282 56.0747 12.1282 56.0747C12.1282 56.0747 12.3731 57.5459 13.1277 57.4073C13.1277 57.4073 13.7611 58.3079 14.7408 58.1429C14.7408 58.1429 17.111 59.2876 18.1723 58.6872C18.1723 58.6872 20.2134 59.1227 21.0324 58.0869C21.0324 58.0869 23.0735 58.4695 23.8924 57.1599C23.8924 57.1599 25.8123 56.7773 26.2205 55.3621C26.2205 55.3621 26.9553 54.9267 27.5268 53.8381C28.0983 52.7496 28.5882 53.6732 28.8331 52.6407C29.078 51.6049 28.8331 50.6813 28.8331 50.6813C28.8331 50.6813 29.0508 48.8307 28.942 48.1776C28.8331 47.5244 26.8316 45.2912 26.8712 44.4731C26.9132 43.6551 27.361 42.7842 26.1759 42.5137C24.9909 42.2399 20.2926 41.9134 19.7211 42.0222C19.1496 42.1311 16.9427 42.6226 16.6978 43.0019C16.4529 43.3846 14.0085 43.0778 13.5928 43.7111" fill="#F4DBD2"/>
<path d="M24.4787 42.7151C24.7236 44.7207 22.7073 46.8286 19.9734 47.4223C17.242 48.0161 14.8273 46.8714 14.5824 44.8625C14.3375 42.8569 16.3538 40.7491 19.0877 40.1553C21.8191 39.5615 24.2338 40.7062 24.4787 42.7151Z" fill="#611709"/>
<path d="M13.1278 48.1642C12.7765 48.5172 13.3183 51.961 14.3401 51.839C14.9586 51.839 15.3495 50.7702 15.3495 50.7702C15.3495 50.7702 16.0793 51.839 16.7721 51.839C17.4648 51.839 17.1481 51.3343 17.1481 51.3343C17.1481 51.3343 18.6895 51.9181 19.3649 51.839C19.3649 51.839 20.4758 52.7527 22.0047 51.8456C22.7123 51.4266 23.3655 51.5487 24.1077 51.5586C24.8895 51.5718 25.4585 50.8857 26.134 50.4403C26.3443 50.3018 26.5595 50.1599 26.7945 50.1138C26.9009 50.094 27.037 50.0643 27.0642 49.9257C27.084 49.8202 27.0172 49.7113 26.938 49.6783C26.7599 49.6025 26.5224 49.6585 26.3245 49.5926C26.0672 49.5101 25.8123 49.4144 25.56 49.3155C25.0775 49.1241 24.5778 48.9163 24.1448 48.57C23.2269 47.8344 21.4481 47.2637 21.0819 48.1609C21.0819 48.1609 19.496 47.2406 18.452 47.7024C18.452 47.7024 15.6785 46.086 14.7978 47.5738C14.7978 47.5738 14.11 47.1812 13.1302 48.1609" fill="white"/>
<path d="M13.1648 54.0459C13.1549 53.5313 13.4048 53.0233 13.766 52.8353C13.8377 52.799 13.9169 52.7726 13.9911 52.799C14.0752 52.8287 14.1371 52.921 14.1965 53.0068C14.34 53.2245 14.4835 53.4422 14.627 53.6566C14.6665 53.0497 15.2702 52.6571 15.6537 52.987C15.8541 53.1585 15.9704 53.4587 16.0768 53.7457C16.1832 53.373 16.3563 52.9936 16.6384 52.8683C16.9204 52.7429 17.3014 53.0365 17.252 53.429C17.4251 53.0431 17.7492 52.7891 18.0857 52.7726C18.4222 52.7561 18.7587 52.9804 18.9516 53.3499C19.4242 52.7396 20.2307 52.6604 20.7651 53.1717C21.2154 52.6143 21.9626 52.5417 22.4673 53.0101C22.7642 52.5747 23.2788 52.6274 23.7216 52.6307C24.1967 52.6307 24.6717 52.5351 25.122 52.3405C25.2704 52.2778 25.4213 52.2019 25.5772 52.2118C25.7331 52.2217 25.8964 52.3504 25.9285 52.5516C25.9557 52.7264 25.8815 52.9012 25.8098 53.053C25.3471 54.0261 24.8375 55.0553 24.0433 55.5072C23.875 55.6029 23.6598 55.659 23.5287 55.494C23.4272 55.3654 23.3604 55.1114 23.2244 55.1576C23.1254 55.1905 23.1031 55.3621 23.0512 55.4775C22.9621 55.6688 22.7741 55.715 22.6058 55.7381C22.0269 55.814 21.4406 55.7942 20.8641 55.6787C20.7874 56.1175 20.4806 56.4506 20.1466 56.5331C19.8126 56.6156 19.4638 56.4803 19.1793 56.2362C19.0803 56.1538 18.9739 56.0515 18.8601 56.0713C18.7883 56.0845 18.7265 56.1439 18.6671 56.1966C18.4098 56.4308 18.1105 56.6255 17.7987 56.6156C17.487 56.6057 17.1629 56.3385 17.0936 55.9327C16.7769 56.0944 16.4479 56.2527 16.1114 56.2263C15.7725 56.1966 15.4236 55.9327 15.3321 55.4973C15.1787 55.6491 15.0228 55.8008 14.8422 55.8767C14.6616 55.9525 14.4464 55.936 14.3029 55.7711C14.1594 55.6062 14.1247 55.273 14.2633 55.1015C13.9961 55.2961 13.6448 55.3324 13.3924 55.1015C13.1376 54.8739 13.0361 54.356 13.2266 54.036" fill="white"/>
<g opacity="0.74">
<mask id="mask0_2695_3645" style="mask-type:luminance" maskUnits="userSpaceOnUse" x="11" y="43" width="16" height="16">
<path d="M26.1017 43.2031H11.1113V58.7598H26.1017V43.2031Z" fill="white"/>
</mask>
<g mask="url(#mask0_2695_3645)">
<path d="M22.8236 56.8134C22.0071 57.8492 19.9635 57.4138 19.9635 57.4138C18.9022 58.0142 16.532 56.8695 16.532 56.8695C15.5523 57.0344 14.9189 56.1339 14.9189 56.1339C14.1643 56.2691 13.9194 54.8012 13.9194 54.8012C13.9194 54.8012 13.714 55.075 13.1425 54.3097C12.571 53.5477 13.2662 52.6208 13.2662 52.6208C13.2662 52.6208 13.1425 52.7857 13.0213 52.0204C12.8976 51.2584 13.4295 50.2226 13.4295 50.2226C13.103 50.2226 12.7912 49.2231 12.7912 49.2231L13.1846 49.1341C12.8976 49.078 12.7343 47.8806 12.8085 47.7189C12.8803 47.554 13.1846 47.2274 13.1846 47.2274C12.7145 47.2538 12.816 46.0828 12.816 46.0828L13.4691 45.809C13.2638 45.5913 13.2638 44.5027 13.2638 44.5027H14.0406C13.959 43.9584 14.3276 43.5758 14.3276 43.5758C14.528 43.4933 14.7037 43.3547 14.8521 43.1997C14.3301 43.2591 13.8699 43.3613 13.7091 43.6054C13.7091 43.6054 13.3009 44.4763 12.6477 44.7501C12.6477 44.7501 12.2791 45.1327 12.3607 45.677H11.5839C11.5839 45.677 11.5839 46.7656 11.7892 46.9833L11.1361 47.2571C11.1361 47.2571 11.0346 48.4281 11.5047 48.4018C11.5047 48.4018 11.2004 48.7283 11.1286 48.8933C11.0569 49.0582 11.2202 50.2556 11.5047 50.3084L11.1113 50.3975C11.1113 50.3975 11.4231 51.397 11.7496 51.397C11.7496 51.397 11.2177 52.4328 11.3414 53.1948C11.4651 53.9568 11.5863 53.7951 11.5863 53.7951C11.5863 53.7951 10.8911 54.7221 11.4626 55.4841C12.0342 56.2461 12.2395 55.9756 12.2395 55.9756C12.2395 55.9756 12.4844 57.4468 13.239 57.3082C13.239 57.3082 13.8724 58.2055 14.8521 58.0438C14.8521 58.0438 17.2223 59.1885 18.2837 58.5881C18.2837 58.5881 20.3248 59.0236 21.1437 57.9878C21.1437 57.9878 23.1848 58.3704 24.0037 57.0608C24.0037 57.0608 25.4535 56.7738 26.1017 55.7677C25.8543 55.8502 25.6836 55.8865 25.6836 55.8865C24.8672 57.1928 22.8236 56.8134 22.8236 56.8134Z" fill="#C6B0A9"/>
</g>
</g>
<g opacity="0.65">
<mask id="mask1_2695_3645" style="mask-type:luminance" maskUnits="userSpaceOnUse" x="15" y="41" width="8" height="4">
<path d="M22.9251 41.5999H15.394V44.8095H22.9251V41.5999Z" fill="white"/>
</mask>
<g mask="url(#mask1_2695_3645)">
<path d="M22.9204 42.3884C23.0144 43.1504 21.4062 44.1334 19.328 44.5853C17.2498 45.0372 15.4907 44.7832 15.3992 44.0212C15.3052 43.2592 16.9133 42.2762 18.9915 41.8243C21.0698 41.3724 22.8288 41.6264 22.9204 42.3884Z" fill="#85372A"/>
</g>
</g>
</g>
<g clip-path="url(#clip2_2695_3645)">
<path d="M39.6002 5.70455C39.6002 5.70455 39.192 6.57541 38.5389 6.8492C38.5389 6.8492 38.1702 7.23185 38.2544 7.77613H37.475C37.475 7.77613 37.475 8.8647 37.6779 9.08241L37.0247 9.35621C37.0247 9.35621 36.9233 10.5272 37.3934 10.5009C37.3934 10.5009 37.0891 10.8274 37.0173 10.9924C36.9456 11.154 37.1089 12.3547 37.3934 12.4075L37 12.4966C37 12.4966 37.3117 13.4961 37.6383 13.4961C37.6383 13.4961 37.1064 14.5319 37.2301 15.2939C37.3538 16.0559 37.475 15.8942 37.475 15.8942C37.475 15.8942 36.7798 16.8212 37.3513 17.5832C37.9228 18.3452 38.1282 18.0747 38.1282 18.0747C38.1282 18.0747 38.3731 19.5459 39.1277 19.4073C39.1277 19.4073 39.7611 20.3079 40.7408 20.1429C40.7408 20.1429 43.111 21.2876 44.1723 20.6872C44.1723 20.6872 46.2134 21.1227 47.0324 20.0869C47.0324 20.0869 49.0735 20.4695 49.8924 19.1599C49.8924 19.1599 51.8123 18.7773 52.2205 17.3621C52.2205 17.3621 52.9553 16.9267 53.5268 15.8381C54.0983 14.7496 54.5882 15.6732 54.8331 14.6407C55.078 13.6049 54.8331 12.6813 54.8331 12.6813C54.8331 12.6813 55.0508 10.8307 54.942 10.1776C54.8331 9.52444 52.8316 7.29122 52.8712 6.47315C52.9132 5.65507 53.361 4.78421 52.1759 4.51372C50.9909 4.23993 46.2926 3.91336 45.7211 4.02221C45.1496 4.13107 42.9427 4.62258 42.6978 5.00193C42.4529 5.38458 40.0085 5.0778 39.5928 5.71115" fill="#F4DBD2"/>
<path d="M50.4787 4.71509C50.7236 6.7207 48.7073 8.82856 45.9734 9.42233C43.242 10.0161 40.8273 8.87145 40.5824 6.86254C40.3375 4.85693 42.3538 2.74906 45.0877 2.1553C47.8191 1.56153 50.2338 2.70618 50.4787 4.71509Z" fill="#611709"/>
<path d="M39.1278 10.1642C38.7765 10.5172 39.3183 13.961 40.3401 13.839C40.9586 13.839 41.3495 12.7702 41.3495 12.7702C41.3495 12.7702 42.0793 13.839 42.7721 13.839C43.4648 13.839 43.1481 13.3343 43.1481 13.3343C43.1481 13.3343 44.6895 13.9181 45.3649 13.839C45.3649 13.839 46.4758 14.7527 48.0047 13.8456C48.7123 13.4266 49.3655 13.5487 50.1077 13.5586C50.8895 13.5718 51.4585 12.8857 52.134 12.4403C52.3443 12.3018 52.5595 12.1599 52.7945 12.1138C52.9009 12.094 53.037 12.0643 53.0642 11.9257C53.084 11.8202 53.0172 11.7113 52.938 11.6783C52.7599 11.6025 52.5224 11.6585 52.3245 11.5926C52.0672 11.5101 51.8123 11.4144 51.56 11.3155C51.0775 11.1241 50.5778 10.9163 50.1448 10.57C49.2269 9.83436 47.4481 9.26368 47.0819 10.1609C47.0819 10.1609 45.496 9.24059 44.452 9.70241C44.452 9.70241 41.6785 8.08605 40.7978 9.57376C40.7978 9.57376 40.11 9.18122 39.1302 10.1609" fill="white"/>
<path d="M39.1648 16.0459C39.1549 15.5313 39.4048 15.0233 39.766 14.8353C39.8377 14.799 39.9169 14.7726 39.9911 14.799C40.0752 14.8287 40.1371 14.921 40.1965 15.0068C40.34 15.2245 40.4835 15.4422 40.627 15.6566C40.6665 15.0497 41.2702 14.6571 41.6537 14.987C41.8541 15.1585 41.9704 15.4587 42.0768 15.7457C42.1832 15.373 42.3563 14.9936 42.6384 14.8683C42.9204 14.7429 43.3014 15.0365 43.252 15.429C43.4251 15.0431 43.7492 14.7891 44.0857 14.7726C44.4222 14.7561 44.7587 14.9804 44.9516 15.3499C45.4242 14.7396 46.2307 14.6604 46.7651 15.1717C47.2154 14.6143 47.9626 14.5417 48.4673 15.0101C48.7642 14.5747 49.2788 14.6274 49.7216 14.6307C50.1967 14.6307 50.6717 14.5351 51.122 14.3405C51.2704 14.2778 51.4213 14.2019 51.5772 14.2118C51.7331 14.2217 51.8964 14.3504 51.9285 14.5516C51.9557 14.7264 51.8815 14.9012 51.8098 15.053C51.3471 16.0261 50.8375 17.0553 50.0433 17.5072C49.875 17.6029 49.6598 17.659 49.5287 17.494C49.4272 17.3654 49.3604 17.1114 49.2244 17.1576C49.1254 17.1905 49.1031 17.3621 49.0512 17.4775C48.9621 17.6688 48.7741 17.715 48.6058 17.7381C48.0269 17.814 47.4406 17.7942 46.8641 17.6787C46.7874 18.1175 46.4806 18.4506 46.1466 18.5331C45.8126 18.6156 45.4638 18.4803 45.1793 18.2362C45.0803 18.1538 44.9739 18.0515 44.8601 18.0713C44.7883 18.0845 44.7265 18.1439 44.6671 18.1966C44.4098 18.4308 44.1105 18.6255 43.7987 18.6156C43.487 18.6057 43.1629 18.3385 43.0936 17.9327C42.7769 18.0944 42.4479 18.2527 42.1114 18.2263C41.7725 18.1966 41.4236 17.9327 41.3321 17.4973C41.1787 17.6491 41.0228 17.8008 40.8422 17.8767C40.6616 17.9525 40.4464 17.936 40.3029 17.7711C40.1594 17.6062 40.1247 17.273 40.2633 17.1015C39.9961 17.2961 39.6448 17.3324 39.3924 17.1015C39.1376 16.8739 39.0361 16.356 39.2266 16.036" fill="white"/>
<g opacity="0.74">
<mask id="mask2_2695_3645" style="mask-type:luminance" maskUnits="userSpaceOnUse" x="37" y="5" width="16" height="16">
<path d="M52.1017 5.20312H37.1113V20.7598H52.1017V5.20312Z" fill="white"/>
</mask>
<g mask="url(#mask2_2695_3645)">
<path d="M48.8236 18.8134C48.0071 19.8492 45.9635 19.4138 45.9635 19.4138C44.9022 20.0142 42.532 18.8695 42.532 18.8695C41.5523 19.0344 40.9189 18.1339 40.9189 18.1339C40.1643 18.2691 39.9194 16.8012 39.9194 16.8012C39.9194 16.8012 39.714 17.075 39.1425 16.3097C38.571 15.5477 39.2662 14.6208 39.2662 14.6208C39.2662 14.6208 39.1425 14.7857 39.0213 14.0204C38.8976 13.2584 39.4295 12.2226 39.4295 12.2226C39.103 12.2226 38.7912 11.2231 38.7912 11.2231L39.1846 11.1341C38.8976 11.078 38.7343 9.88056 38.8085 9.71892C38.8803 9.55399 39.1846 9.22742 39.1846 9.22742C38.7145 9.25381 38.816 8.08277 38.816 8.08277L39.4691 7.80898C39.2638 7.59126 39.2638 6.50269 39.2638 6.50269H40.0406C39.959 5.95841 40.3276 5.57576 40.3276 5.57576C40.528 5.49329 40.7037 5.35475 40.8521 5.19971C40.3301 5.25908 39.8699 5.36134 39.7091 5.60545C39.7091 5.60545 39.3009 6.4763 38.6477 6.75009C38.6477 6.75009 38.2791 7.13274 38.3607 7.67703H37.5839C37.5839 7.67703 37.5839 8.7656 37.7892 8.98331L37.1361 9.2571C37.1361 9.2571 37.0346 10.4281 37.5047 10.4018C37.5047 10.4018 37.2004 10.7283 37.1286 10.8933C37.0569 11.0582 37.2202 12.2556 37.5047 12.3084L37.1113 12.3975C37.1113 12.3975 37.4231 13.397 37.7496 13.397C37.7496 13.397 37.2177 14.4328 37.3414 15.1948C37.4651 15.9568 37.5863 15.7951 37.5863 15.7951C37.5863 15.7951 36.8911 16.7221 37.4626 17.4841C38.0342 18.2461 38.2395 17.9756 38.2395 17.9756C38.2395 17.9756 38.4844 19.4468 39.239 19.3082C39.239 19.3082 39.8724 20.2055 40.8521 20.0438C40.8521 20.0438 43.2223 21.1885 44.2837 20.5881C44.2837 20.5881 46.3248 21.0236 47.1437 19.9878C47.1437 19.9878 49.1848 20.3704 50.0037 19.0608C50.0037 19.0608 51.4535 18.7738 52.1017 17.7677C51.8543 17.8502 51.6836 17.8865 51.6836 17.8865C50.8672 19.1928 48.8236 18.8134 48.8236 18.8134Z" fill="#C6B0A9"/>
</g>
</g>
<g opacity="0.65">
<mask id="mask3_2695_3645" style="mask-type:luminance" maskUnits="userSpaceOnUse" x="41" y="3" width="8" height="4">
<path d="M48.9251 3.59985H41.394V6.80949H48.9251V3.59985Z" fill="white"/>
</mask>
<g mask="url(#mask3_2695_3645)">
<path d="M48.9201 4.38838C49.0141 5.15038 47.406 6.13339 45.3278 6.58531C43.2495 7.03723 41.4905 6.78323 41.3989 6.02123C41.3049 5.25923 42.9131 4.27622 44.9913 3.8243C47.0695 3.37238 48.8286 3.62638 48.9201 4.38838Z" fill="#85372A"/>
</g>
</g>
</g>
<g clip-path="url(#clip3_2695_3645)">
<path d="M98.6002 7.70455C98.6002 7.70455 98.192 8.57541 97.5389 8.8492C97.5389 8.8492 97.1702 9.23185 97.2544 9.77613H96.475C96.475 9.77613 96.475 10.8647 96.6779 11.0824L96.0247 11.3562C96.0247 11.3562 95.9233 12.5272 96.3934 12.5009C96.3934 12.5009 96.0891 12.8274 96.0173 12.9924C95.9456 13.154 96.1089 14.3547 96.3934 14.4075L96 14.4966C96 14.4966 96.3117 15.4961 96.6383 15.4961C96.6383 15.4961 96.1064 16.5319 96.2301 17.2939C96.3538 18.0559 96.475 17.8942 96.475 17.8942C96.475 17.8942 95.7798 18.8212 96.3513 19.5832C96.9228 20.3452 97.1282 20.0747 97.1282 20.0747C97.1282 20.0747 97.3731 21.5459 98.1277 21.4073C98.1277 21.4073 98.7611 22.3079 99.7408 22.1429C99.7408 22.1429 102.111 23.2876 103.172 22.6872C103.172 22.6872 105.213 23.1227 106.032 22.0869C106.032 22.0869 108.073 22.4695 108.892 21.1599C108.892 21.1599 110.812 20.7773 111.22 19.3621C111.22 19.3621 111.955 18.9267 112.527 17.8381C113.098 16.7496 113.588 17.6732 113.833 16.6407C114.078 15.6049 113.833 14.6813 113.833 14.6813C113.833 14.6813 114.051 12.8307 113.942 12.1776C113.833 11.5244 111.832 9.29122 111.871 8.47315C111.913 7.65507 112.361 6.78421 111.176 6.51372C109.991 6.23993 105.293 5.91336 104.721 6.02221C104.15 6.13107 101.943 6.62258 101.698 7.00193C101.453 7.38458 99.0085 7.0778 98.5928 7.71115" fill="#F4DBD2"/>
<path d="M109.479 6.71509C109.724 8.7207 107.707 10.8286 104.973 11.4223C102.242 12.0161 99.8273 10.8714 99.5824 8.86254C99.3375 6.85693 101.354 4.74906 104.088 4.1553C106.819 3.56153 109.234 4.70618 109.479 6.71509Z" fill="#611709"/>
<path d="M98.1278 12.1642C97.7765 12.5172 98.3183 15.961 99.3401 15.839C99.9586 15.839 100.349 14.7702 100.349 14.7702C100.349 14.7702 101.079 15.839 101.772 15.839C102.465 15.839 102.148 15.3343 102.148 15.3343C102.148 15.3343 103.689 15.9181 104.365 15.839C104.365 15.839 105.476 16.7527 107.005 15.8456C107.712 15.4266 108.365 15.5487 109.108 15.5586C109.89 15.5718 110.459 14.8857 111.134 14.4403C111.344 14.3018 111.56 14.1599 111.795 14.1138C111.901 14.094 112.037 14.0643 112.064 13.9257C112.084 13.8202 112.017 13.7113 111.938 13.6783C111.76 13.6025 111.522 13.6585 111.324 13.5926C111.067 13.5101 110.812 13.4144 110.56 13.3155C110.078 13.1241 109.578 12.9163 109.145 12.57C108.227 11.8344 106.448 11.2637 106.082 12.1609C106.082 12.1609 104.496 11.2406 103.452 11.7024C103.452 11.7024 100.679 10.086 99.7978 11.5738C99.7978 11.5738 99.11 11.1812 98.1302 12.1609" fill="white"/>
<path d="M98.1648 18.0459C98.1549 17.5313 98.4048 17.0233 98.766 16.8353C98.8377 16.799 98.9169 16.7726 98.9911 16.799C99.0752 16.8287 99.1371 16.921 99.1965 17.0068C99.34 17.2245 99.4835 17.4422 99.627 17.6566C99.6665 17.0497 100.27 16.6571 100.654 16.987C100.854 17.1585 100.97 17.4587 101.077 17.7457C101.183 17.373 101.356 16.9936 101.638 16.8683C101.92 16.7429 102.301 17.0365 102.252 17.429C102.425 17.0431 102.749 16.7891 103.086 16.7726C103.422 16.7561 103.759 16.9804 103.952 17.3499C104.424 16.7396 105.231 16.6604 105.765 17.1717C106.215 16.6143 106.963 16.5417 107.467 17.0101C107.764 16.5747 108.279 16.6274 108.722 16.6307C109.197 16.6307 109.672 16.5351 110.122 16.3405C110.27 16.2778 110.421 16.2019 110.577 16.2118C110.733 16.2217 110.896 16.3504 110.929 16.5516C110.956 16.7264 110.882 16.9012 110.81 17.053C110.347 18.0261 109.837 19.0553 109.043 19.5072C108.875 19.6029 108.66 19.659 108.529 19.494C108.427 19.3654 108.36 19.1114 108.224 19.1576C108.125 19.1905 108.103 19.3621 108.051 19.4775C107.962 19.6688 107.774 19.715 107.606 19.7381C107.027 19.814 106.441 19.7942 105.864 19.6787C105.787 20.1175 105.481 20.4506 105.147 20.5331C104.813 20.6156 104.464 20.4803 104.179 20.2362C104.08 20.1538 103.974 20.0515 103.86 20.0713C103.788 20.0845 103.726 20.1439 103.667 20.1966C103.41 20.4308 103.11 20.6255 102.799 20.6156C102.487 20.6057 102.163 20.3385 102.094 19.9327C101.777 20.0944 101.448 20.2527 101.111 20.2263C100.772 20.1966 100.424 19.9327 100.332 19.4973C100.179 19.6491 100.023 19.8008 99.8422 19.8767C99.6616 19.9525 99.4464 19.936 99.3029 19.7711C99.1594 19.6062 99.1247 19.273 99.2633 19.1015C98.9961 19.2961 98.6448 19.3324 98.3924 19.1015C98.1376 18.8739 98.0361 18.356 98.2266 18.036" fill="white"/>
<g opacity="0.74">
<mask id="mask4_2695_3645" style="mask-type:luminance" maskUnits="userSpaceOnUse" x="96" y="7" width="16" height="16">
<path d="M111.102 7.20312H96.1113V22.7598H111.102V7.20312Z" fill="white"/>
</mask>
<g mask="url(#mask4_2695_3645)">
<path d="M107.824 20.8134C107.007 21.8492 104.964 21.4138 104.964 21.4138C103.902 22.0142 101.532 20.8695 101.532 20.8695C100.552 21.0344 99.9189 20.1339 99.9189 20.1339C99.1643 20.2691 98.9194 18.8012 98.9194 18.8012C98.9194 18.8012 98.714 19.075 98.1425 18.3097C97.571 17.5477 98.2662 16.6208 98.2662 16.6208C98.2662 16.6208 98.1425 16.7857 98.0213 16.0204C97.8976 15.2584 98.4295 14.2226 98.4295 14.2226C98.103 14.2226 97.7912 13.2231 97.7912 13.2231L98.1846 13.1341C97.8976 13.078 97.7343 11.8806 97.8085 11.7189C97.8803 11.554 98.1846 11.2274 98.1846 11.2274C97.7145 11.2538 97.816 10.0828 97.816 10.0828L98.4691 9.80898C98.2638 9.59126 98.2638 8.50269 98.2638 8.50269H99.0406C98.959 7.95841 99.3276 7.57576 99.3276 7.57576C99.528 7.49329 99.7037 7.35475 99.8521 7.19971C99.3301 7.25908 98.8699 7.36134 98.7091 7.60545C98.7091 7.60545 98.3009 8.4763 97.6477 8.75009C97.6477 8.75009 97.2791 9.13274 97.3607 9.67703H96.5839C96.5839 9.67703 96.5839 10.7656 96.7892 10.9833L96.1361 11.2571C96.1361 11.2571 96.0346 12.4281 96.5047 12.4018C96.5047 12.4018 96.2004 12.7283 96.1286 12.8933C96.0569 13.0582 96.2202 14.2556 96.5047 14.3084L96.1113 14.3975C96.1113 14.3975 96.4231 15.397 96.7496 15.397C96.7496 15.397 96.2177 16.4328 96.3414 17.1948C96.4651 17.9568 96.5863 17.7951 96.5863 17.7951C96.5863 17.7951 95.8911 18.7221 96.4626 19.4841C97.0342 20.2461 97.2395 19.9756 97.2395 19.9756C97.2395 19.9756 97.4844 21.4468 98.239 21.3082C98.239 21.3082 98.8724 22.2055 99.8521 22.0438C99.8521 22.0438 102.222 23.1885 103.284 22.5881C103.284 22.5881 105.325 23.0236 106.144 21.9878C106.144 21.9878 108.185 22.3704 109.004 21.0608C109.004 21.0608 110.454 20.7738 111.102 19.7677C110.854 19.8502 110.684 19.8865 110.684 19.8865C109.867 21.1928 107.824 20.8134 107.824 20.8134Z" fill="#C6B0A9"/>
</g>
</g>
<g opacity="0.65">
<mask id="mask5_2695_3645" style="mask-type:luminance" maskUnits="userSpaceOnUse" x="100" y="5" width="8" height="4">
<path d="M107.925 5.59985H100.394V8.80949H107.925V5.59985Z" fill="white"/>
</mask>
<g mask="url(#mask5_2695_3645)">
<path d="M107.92 6.38838C108.014 7.15038 106.406 8.13339 104.328 8.58531C102.25 9.03723 100.49 8.78323 100.399 8.02123C100.305 7.25923 101.913 6.27622 103.991 5.8243C106.07 5.37238 107.829 5.62638 107.92 6.38838Z" fill="#85372A"/>
</g>
</g>
</g>
<g clip-path="url(#clip4_2695_3645)">
<path d="M128.6 39.7045C128.6 39.7045 128.192 40.5754 127.539 40.8492C127.539 40.8492 127.17 41.2318 127.254 41.7761H126.475C126.475 41.7761 126.475 42.8647 126.678 43.0824L126.025 43.3562C126.025 43.3562 125.923 44.5272 126.393 44.5009C126.393 44.5009 126.089 44.8274 126.017 44.9924C125.946 45.154 126.109 46.3547 126.393 46.4075L126 46.4966C126 46.4966 126.312 47.4961 126.638 47.4961C126.638 47.4961 126.106 48.5319 126.23 49.2939C126.354 50.0559 126.475 49.8942 126.475 49.8942C126.475 49.8942 125.78 50.8212 126.351 51.5832C126.923 52.3452 127.128 52.0747 127.128 52.0747C127.128 52.0747 127.373 53.5459 128.128 53.4073C128.128 53.4073 128.761 54.3079 129.741 54.1429C129.741 54.1429 132.111 55.2876 133.172 54.6872C133.172 54.6872 135.213 55.1227 136.032 54.0869C136.032 54.0869 138.073 54.4695 138.892 53.1599C138.892 53.1599 140.812 52.7773 141.22 51.3621C141.22 51.3621 141.955 50.9267 142.527 49.8381C143.098 48.7496 143.588 49.6732 143.833 48.6407C144.078 47.6049 143.833 46.6813 143.833 46.6813C143.833 46.6813 144.051 44.8307 143.942 44.1776C143.833 43.5244 141.832 41.2912 141.871 40.4731C141.913 39.6551 142.361 38.7842 141.176 38.5137C139.991 38.2399 135.293 37.9134 134.721 38.0222C134.15 38.1311 131.943 38.6226 131.698 39.0019C131.453 39.3846 129.008 39.0778 128.593 39.7111" fill="#F4DBD2"/>
<path d="M139.479 38.7151C139.724 40.7207 137.707 42.8286 134.973 43.4223C132.242 44.0161 129.827 42.8714 129.582 40.8625C129.337 38.8569 131.354 36.7491 134.088 36.1553C136.819 35.5615 139.234 36.7062 139.479 38.7151Z" fill="#611709"/>
<path d="M128.128 44.1642C127.776 44.5172 128.318 47.961 129.34 47.839C129.959 47.839 130.349 46.7702 130.349 46.7702C130.349 46.7702 131.079 47.839 131.772 47.839C132.465 47.839 132.148 47.3343 132.148 47.3343C132.148 47.3343 133.689 47.9181 134.365 47.839C134.365 47.839 135.476 48.7527 137.005 47.8456C137.712 47.4266 138.365 47.5487 139.108 47.5586C139.89 47.5718 140.459 46.8857 141.134 46.4403C141.344 46.3018 141.56 46.1599 141.795 46.1138C141.901 46.094 142.037 46.0643 142.064 45.9257C142.084 45.8202 142.017 45.7113 141.938 45.6783C141.76 45.6025 141.522 45.6585 141.324 45.5926C141.067 45.5101 140.812 45.4144 140.56 45.3155C140.078 45.1241 139.578 44.9163 139.145 44.57C138.227 43.8344 136.448 43.2637 136.082 44.1609C136.082 44.1609 134.496 43.2406 133.452 43.7024C133.452 43.7024 130.679 42.086 129.798 43.5738C129.798 43.5738 129.11 43.1812 128.13 44.1609" fill="white"/>
<path d="M128.165 50.0459C128.155 49.5313 128.405 49.0233 128.766 48.8353C128.838 48.799 128.917 48.7726 128.991 48.799C129.075 48.8287 129.137 48.921 129.196 49.0068C129.34 49.2245 129.483 49.4422 129.627 49.6566C129.667 49.0497 130.27 48.6571 130.654 48.987C130.854 49.1585 130.97 49.4587 131.077 49.7457C131.183 49.373 131.356 48.9936 131.638 48.8683C131.92 48.7429 132.301 49.0365 132.252 49.429C132.425 49.0431 132.749 48.7891 133.086 48.7726C133.422 48.7561 133.759 48.9804 133.952 49.3499C134.424 48.7396 135.231 48.6604 135.765 49.1717C136.215 48.6143 136.963 48.5417 137.467 49.0101C137.764 48.5747 138.279 48.6274 138.722 48.6307C139.197 48.6307 139.672 48.5351 140.122 48.3405C140.27 48.2778 140.421 48.2019 140.577 48.2118C140.733 48.2217 140.896 48.3504 140.929 48.5516C140.956 48.7264 140.882 48.9012 140.81 49.053C140.347 50.0261 139.837 51.0553 139.043 51.5072C138.875 51.6029 138.66 51.659 138.529 51.494C138.427 51.3654 138.36 51.1114 138.224 51.1576C138.125 51.1905 138.103 51.3621 138.051 51.4775C137.962 51.6688 137.774 51.715 137.606 51.7381C137.027 51.814 136.441 51.7942 135.864 51.6787C135.787 52.1175 135.481 52.4506 135.147 52.5331C134.813 52.6156 134.464 52.4803 134.179 52.2362C134.08 52.1538 133.974 52.0515 133.86 52.0713C133.788 52.0845 133.726 52.1439 133.667 52.1966C133.41 52.4308 133.11 52.6255 132.799 52.6156C132.487 52.6057 132.163 52.3385 132.094 51.9327C131.777 52.0944 131.448 52.2527 131.111 52.2263C130.772 52.1966 130.424 51.9327 130.332 51.4973C130.179 51.6491 130.023 51.8008 129.842 51.8767C129.662 51.9525 129.446 51.936 129.303 51.7711C129.159 51.6062 129.125 51.273 129.263 51.1015C128.996 51.2961 128.645 51.3324 128.392 51.1015C128.138 50.8739 128.036 50.356 128.227 50.036" fill="white"/>
<g opacity="0.74">
<mask id="mask6_2695_3645" style="mask-type:luminance" maskUnits="userSpaceOnUse" x="126" y="39" width="16" height="16">
<path d="M141.102 39.2031H126.111V54.7598H141.102V39.2031Z" fill="white"/>
</mask>
<g mask="url(#mask6_2695_3645)">
<path d="M137.824 52.8134C137.007 53.8492 134.964 53.4138 134.964 53.4138C133.902 54.0142 131.532 52.8695 131.532 52.8695C130.552 53.0344 129.919 52.1339 129.919 52.1339C129.164 52.2691 128.919 50.8012 128.919 50.8012C128.919 50.8012 128.714 51.075 128.143 50.3097C127.571 49.5477 128.266 48.6208 128.266 48.6208C128.266 48.6208 128.143 48.7857 128.021 48.0204C127.898 47.2584 128.43 46.2226 128.43 46.2226C128.103 46.2226 127.791 45.2231 127.791 45.2231L128.185 45.1341C127.898 45.078 127.734 43.8806 127.809 43.7189C127.88 43.554 128.185 43.2274 128.185 43.2274C127.715 43.2538 127.816 42.0828 127.816 42.0828L128.469 41.809C128.264 41.5913 128.264 40.5027 128.264 40.5027H129.041C128.959 39.9584 129.328 39.5758 129.328 39.5758C129.528 39.4933 129.704 39.3547 129.852 39.1997C129.33 39.2591 128.87 39.3613 128.709 39.6054C128.709 39.6054 128.301 40.4763 127.648 40.7501C127.648 40.7501 127.279 41.1327 127.361 41.677H126.584C126.584 41.677 126.584 42.7656 126.789 42.9833L126.136 43.2571C126.136 43.2571 126.035 44.4281 126.505 44.4018C126.505 44.4018 126.2 44.7283 126.129 44.8933C126.057 45.0582 126.22 46.2556 126.505 46.3084L126.111 46.3975C126.111 46.3975 126.423 47.397 126.75 47.397C126.75 47.397 126.218 48.4328 126.341 49.1948C126.465 49.9568 126.586 49.7951 126.586 49.7951C126.586 49.7951 125.891 50.7221 126.463 51.4841C127.034 52.2461 127.24 51.9756 127.24 51.9756C127.24 51.9756 127.484 53.4468 128.239 53.3082C128.239 53.3082 128.872 54.2055 129.852 54.0438C129.852 54.0438 132.222 55.1885 133.284 54.5881C133.284 54.5881 135.325 55.0236 136.144 53.9878C136.144 53.9878 138.185 54.3704 139.004 53.0608C139.004 53.0608 140.454 52.7738 141.102 51.7677C140.854 51.8502 140.684 51.8865 140.684 51.8865C139.867 53.1928 137.824 52.8134 137.824 52.8134Z" fill="#C6B0A9"/>
</g>
</g>
<g opacity="0.65">
<mask id="mask7_2695_3645" style="mask-type:luminance" maskUnits="userSpaceOnUse" x="130" y="37" width="8" height="4">
<path d="M137.925 37.5999H130.394V40.8095H137.925V37.5999Z" fill="white"/>
</mask>
<g mask="url(#mask7_2695_3645)">
<path d="M137.92 38.3884C138.014 39.1504 136.406 40.1334 134.328 40.5853C132.25 41.0372 130.49 40.7832 130.399 40.0212C130.305 39.2592 131.913 38.2762 133.991 37.8243C136.07 37.3724 137.829 37.6264 137.92 38.3884Z" fill="#85372A"/>
</g>
</g>
</g>
<path d="M27.6241 28.2169C25.8736 29.1152 24.1145 30.4016 22.137 30.3679L21.6576 30.5989C21.2745 30.7503 20.8755 31.0298 20.5398 31.2951C21.5144 31.5821 22.6672 31.5684 23.6897 31.6923C24.5475 31.7957 25.468 31.8384 26.3209 31.6781C27.8253 31.3959 29.3885 31.0225 30.7999 30.2381C31.3928 29.9085 32.1327 29.4348 32.797 28.8768C33.4623 28.3177 34.0533 27.6742 34.3483 27.0038C32.1902 26.2089 29.6064 27.2011 27.6241 28.2169Z" fill="#88B704"/>
<path d="M33.6538 27.2394C31.5547 26.8116 29.2549 27.8391 27.2932 28.6999C26.1706 29.192 25.0566 29.7812 23.8779 30.1013C23.2438 30.2738 22.6073 30.325 21.9507 30.2996C21.9 30.2949 21.5302 30.4468 21.4799 30.4473C21.3741 30.4763 21.2668 30.5133 21.1605 30.557C20.8865 30.6699 20.6504 30.9489 20.5403 31.1541C21.3688 31.6172 22.455 31.6642 23.4627 31.7238C24.298 31.7755 25.1825 31.7327 25.9584 31.5771C27.2472 31.3213 28.5561 30.9547 29.7539 30.2902C30.2788 29.9995 30.8914 29.5971 31.468 29.1561C32.2793 28.5343 33.0528 27.866 33.6538 27.2394Z" fill="#739B03"/>
<path d="M32.2626 27.7104C30.2846 28.0169 28.5509 29.114 26.6304 29.6625C25.537 29.9742 24.4795 30.2459 23.3454 30.3197C22.4781 30.3772 21.6663 30.0549 20.8109 30.1678C20.5447 30.2021 20.3876 30.6383 20.5399 30.8709C21.5059 32.3488 23.843 31.7016 25.2324 31.3762C26.526 31.0719 27.6764 30.4205 28.8081 29.7153C29.9398 29.0101 31.0514 28.2516 32.2688 27.7352C32.2832 27.7294 32.2784 27.7078 32.2631 27.7104" fill="#496302"/>
<path d="M25.0078 25.4448C23.6026 26.6558 22.3756 28.1532 20.9474 29.3131C20.3493 29.7994 19.6438 30.5157 18.844 30.4097L19.1773 31.4171C19.5648 31.607 20.3488 31.5316 20.8105 31.54C21.6821 31.5548 22.4872 31.5036 23.3378 31.2958C24.9695 30.8965 26.6783 30.0426 28.162 29.2197C29.6731 28.38 31.1127 27.0129 32.2344 25.7713C33.3551 24.5296 34.1587 23.4136 34.3967 23.0755C34.7837 22.5232 35.1898 21.5485 35.7301 21.2083C33.7511 20.8929 31.8292 21.299 30.0241 22.1108C28.2171 22.9215 26.526 24.1388 25.0078 25.4458" fill="#88B704"/>
<path d="M35.1332 21.4112C33.5958 21.5182 32.0723 21.9286 30.615 22.589C30.3156 22.7251 30.0206 22.8717 29.7285 23.0278C28.4473 23.7172 27.2323 24.5975 26.0489 25.4952C25.6494 25.7996 25.25 26.1044 24.8558 26.4077C23.8491 27.181 22.8812 28.0133 21.8922 28.7834C21.4674 29.1141 21.0215 29.3952 20.5656 29.6515C19.9372 30.0049 19.2428 30.4854 18.5584 30.6606C18.5278 30.669 18.4985 30.6769 18.4703 30.6843C18.4085 30.7866 18.7054 31.5883 18.8142 31.6026C19.2452 31.7513 19.9425 31.6959 20.4262 31.6796C21.2682 31.6516 22.067 31.5419 22.8898 31.2977C23.0426 31.2508 23.1968 31.2012 23.3501 31.1469C24.8132 30.6379 26.2768 29.8172 27.5493 29.0291C29.0005 28.1267 30.3932 26.8439 31.5561 25.6239C32.5628 24.5674 33.3568 23.5895 33.7587 23.1191C34.1868 22.618 34.6054 21.8316 35.114 21.4386C35.1279 21.4275 35.1308 21.4133 35.1337 21.4106" fill="#739B03"/>
<path d="M33.9404 21.8196C32.6104 22.664 31.2459 23.4278 29.9303 24.3044C28.4744 25.2765 27.1741 26.5107 25.7536 27.5451C24.3814 28.5414 22.8149 29.2936 21.2933 29.9677C20.1415 30.4777 18.7037 30.1929 17.7885 31.1481C17.4892 31.4598 17.7272 31.9308 18.0869 31.9757C19.5275 32.1576 21.0194 31.7647 22.4332 31.107C23.8479 30.4487 25.187 29.5267 26.3211 28.6501C27.6516 27.6221 28.9337 26.4902 30.1971 25.3314C31.4605 24.1726 32.7052 22.9868 33.9614 21.8491C33.9758 21.836 33.9567 21.8101 33.9409 21.8201" fill="#496302"/>
<g style="mix-blend-mode:multiply">
<mask id="mask8_2695_3645" style="mask-type:luminance" maskUnits="userSpaceOnUse" x="21" y="22" width="9" height="10">
<path d="M29.8448 22.8777H21.5867V31.7378H29.8448V22.8777Z" fill="white"/>
</mask>
<g mask="url(#mask8_2695_3645)">
<path d="M28.2706 23.0338L27.4483 23.508C27.2012 23.7686 26.6341 24.1309 26.3085 24.4938C25.7117 25.1584 25.1921 25.8884 24.5968 26.5588C23.4737 27.8241 22.4052 29.3247 21.705 30.9103C21.1671 32.1239 22.602 31.6988 23.2902 31.5121C24.0498 31.3069 24.6858 30.9989 25.3937 30.5526C26.8219 29.6528 28.0177 28.2793 28.9871 26.7703C29.4761 26.0092 29.7821 25.1009 29.8386 24.1926C29.9205 22.8197 29.1787 22.7015 28.2701 23.0344" fill="#E8DCC4"/>
</g>
</g>
<path d="M27.8502 16.8405C27.7027 16.4359 27.5542 16.0672 27.3569 15.7049C27.1639 15.3515 27.0987 14.8135 26.6792 15.0646C25.9871 15.4781 25.3751 16.091 24.694 16.5551C23.1806 17.5937 21.6854 18.6734 20.2089 19.7773C18.8233 20.8175 17.2845 21.663 15.841 22.5976C15.0594 23.1013 14.2965 23.5992 13.5206 24.0966C12.8266 24.546 11.9957 24.8973 11.3683 25.4216L11.1102 25.5113C10.4732 25.757 9.49282 25.67 9 26.3504C9.19013 27.1601 9.84818 28.1021 10.3539 28.7371C10.5991 29.0462 10.8817 29.282 11.1059 29.5979C11.3463 29.9397 11.6236 30.2135 11.9287 30.4746C12.5584 31.0131 13.4023 31.3512 14.1087 31.6634C14.5326 31.8481 14.8516 32.0316 15.3161 32.0996C19.4229 32.7162 21.0915 31.9013 21.9119 31.5421C23.5954 30.8037 25.0087 29.9508 26.3066 28.5747C27.4349 27.3768 28.4096 25.8889 28.5671 22.6166C28.6701 20.4593 28.4977 18.6338 27.8497 16.84" fill="#FEFEDA"/>
<mask id="mask9_2695_3645" style="mask-type:luminance" maskUnits="userSpaceOnUse" x="9" y="15" width="20" height="18">
<path d="M26.6799 15.0648C26.5377 15.1487 26.4017 15.2447 26.2652 15.3449C26.8605 16.2875 28.2671 19.1114 27.6646 23.9429C26.9084 29.9943 19.4701 32.2418 15.5707 31.4501C11.2953 30.5814 10.0429 27.0084 9.73733 25.8459C9.4514 25.9435 9.18943 26.0907 9.00073 26.3518C9.19087 27.1614 9.84892 28.1034 10.3547 28.7385C10.5999 29.0476 10.8824 29.2833 11.1066 29.5993C11.347 29.9411 11.6243 30.2148 11.9294 30.4759C12.5592 31.0144 13.403 31.3525 14.1095 31.6642C14.5333 31.8489 14.8528 32.0324 15.3173 32.1005C19.4241 32.717 21.0927 31.9021 21.9131 31.5429C23.5966 30.8045 25.0099 29.9516 26.3078 28.5755C27.4361 27.3777 28.4108 25.8897 28.5683 22.6174C28.6713 20.4601 28.4989 18.6346 27.8509 16.8408C27.7034 16.4362 27.5549 16.0675 27.3581 15.7052C27.1996 15.4145 27.1272 15.0005 26.8744 15.0005C26.8193 15.0005 26.7556 15.02 26.6809 15.0648" fill="white"/>
</mask>
<g mask="url(#mask9_2695_3645)">
<path d="M9.00693 14.5949L8.69971 32.7107L28.6637 33.1213L28.971 15.0055L9.00693 14.5949Z" fill="url(#paint0_linear_2695_3645)"/>
</g>
<path d="M17.1585 22.2173C16.7629 22.3608 14.9588 23.7765 14.26 24.3261C13.0636 25.2665 10.646 26.6179 12.0809 28.378C12.6618 29.0911 13.3433 29.7667 14.1623 30.0795C14.6058 30.2509 15.0842 30.4392 15.533 30.5189C15.8663 30.5785 16.612 30.6713 16.8769 30.3992C17.1623 30.1096 17.2361 29.4065 17.3108 29.0204C17.4133 28.4871 17.5076 27.9576 17.5771 27.4154C17.7126 26.3642 17.8165 25.363 17.8702 24.2665C17.885 23.9479 17.9626 23.6483 17.9674 23.344C17.9937 21.9394 17.3888 22.1335 17.1585 22.2173Z" fill="#F98104"/>
<path d="M22.4488 26.8003C22.0437 26.0508 20.0341 23.6625 19.6567 23.0876C19.4939 22.8376 18.8104 22.2083 18.6433 22.2337C18.1485 22.3107 18.2209 23.3925 18.207 23.5939C18.1778 24.0956 18.1251 24.6051 18.0935 25.1046C18.0255 26.1531 18.0279 27.2117 18.0101 28.254C17.9986 29.0077 17.5743 30.6011 18.5633 30.7873C18.9579 30.8622 19.5125 30.7003 19.9072 30.6576C20.3636 30.608 20.8286 30.425 21.2348 30.2203C21.9139 29.8796 22.6874 29.5468 23.2755 29.0256C24.0863 28.3067 22.8665 27.5736 22.4493 26.8003" fill="#F98104"/>
<path d="M27.0274 18.8265C26.8847 18.0205 26.5399 16.7235 25.5844 16.8533C25.2166 16.9034 24.8148 17.2283 24.4843 17.4446C24.1471 17.664 23.7946 17.838 23.4556 18.0569C22.7424 18.5163 22.0624 19.0322 21.3842 19.557C21.0983 19.7764 19.3056 20.6631 19.7668 21.2448L20.0513 21.4737C20.7549 21.6578 21.3698 21.6605 22.0868 21.7939C22.8507 21.9374 23.7314 22.0429 24.5126 22.1009C25.2702 22.1563 26.3205 22.4158 26.7654 21.5386C27.1696 20.7422 27.1864 19.7305 27.0274 18.827" fill="#F98104"/>
<path d="M26.4891 22.845C26.2946 22.4652 25.6198 22.5775 25.2865 22.5169C24.3933 22.3539 23.4354 22.4362 22.558 22.2569C22.1121 22.1624 21.7587 21.9784 21.286 21.9414C20.8406 21.9072 19.5135 21.6418 19.5135 21.6418C19.025 21.7146 19.5025 22.481 19.6734 22.6556C19.9756 22.9679 20.2386 23.3002 20.5235 23.643C21.08 24.3176 21.6337 24.988 22.1485 25.7053C22.4124 26.0693 22.6854 26.4121 22.9493 26.7792C23.1687 27.083 23.2879 27.4929 23.5393 27.7603C24.2084 28.4708 24.9996 27.5862 25.4445 26.9638C25.991 26.1964 26.4225 25.3656 26.5259 24.4147C26.5676 24.0328 26.66 23.1788 26.4891 22.845Z" fill="#F98104"/>
<path d="M17.5985 22.6857L17.5411 22.4885C16.771 22.3761 15.9194 23.4753 15.3605 23.9458C14.6541 24.5429 13.8825 25.1157 13.1843 25.7392C12.4553 26.3906 12.0353 27.2371 12.815 28.0468C13.3782 28.6296 14.4304 29.223 15.2235 29.0452C16.0818 28.849 16.498 27.4339 16.7465 26.6685C17.0588 25.7086 17.3418 24.6906 17.4893 23.7006C17.5353 23.392 17.6287 22.9917 17.5981 22.6857" fill="#FBA20A"/>
<path d="M21.3386 27.2303C21.2194 26.4259 20.7352 25.4696 20.3587 24.7544C20.1475 24.3546 19.8257 24.0091 19.5723 23.6536C19.341 23.3329 19.1854 22.9489 18.8803 22.6799L18.6734 22.6108C18.1528 22.652 18.273 25.1078 18.2644 25.5904C18.2452 26.6749 18.1518 27.7329 18.1801 28.8073C18.2112 30.0215 19.3429 30.1428 20.2146 29.7277C21.0422 29.3321 21.4794 28.1834 21.3386 27.2297" fill="#FBA20A"/>
<path d="M23.9195 23.1698C23.3869 22.7615 22.691 22.6972 22.0727 22.55C21.7586 22.4762 21.4439 22.3454 21.1307 22.2251C20.9846 22.1676 20.1781 21.9556 20.1752 21.9519L19.9626 22.1428C19.7212 22.156 20.3596 23.1149 20.4564 23.2631C20.7126 23.6508 21.0565 24.0121 21.3644 24.3645C21.8927 24.9684 22.4243 25.6662 22.9961 26.2111C23.2907 26.4948 23.8362 26.7665 24.2418 26.6652C24.6455 26.565 24.8644 25.988 24.9439 25.5971C25.1187 24.7126 24.5962 23.6862 23.9195 23.1687" fill="#FBA20A"/>
<path d="M25.8994 18.9418C25.3017 18.0398 24.1753 18.485 23.4243 18.84C22.8999 19.0863 22.3788 19.3706 21.8549 19.6132C21.3716 19.839 20.7299 20.0526 20.3783 20.4772L20.2849 20.8031C20.0421 21.0806 21.079 21.4028 21.2567 21.4477C21.7102 21.5653 22.2078 21.6333 22.6853 21.6423C23.6044 21.6571 24.7016 21.8876 25.522 21.4034C26.306 20.9445 26.3908 19.6812 25.8994 18.9412" fill="#FBA20A"/>
<path d="M16.2975 23.3735C15.8866 23.7269 15.4934 24.0708 15.0916 24.4348C14.469 24.9981 13.366 25.8119 13.7468 26.8378C14.2018 28.0668 15.4034 26.9592 15.8718 26.3637C16.4728 25.6015 16.9498 24.5403 17.1936 23.5967C17.243 23.4052 17.2798 23.152 17.3253 22.9774L17.3301 22.681C17.0739 22.5259 16.5025 23.1979 16.298 23.3741" fill="#F7B304"/>
<path d="M20.2329 25.1714C20.0825 24.7774 19.8861 24.4077 19.6998 24.0358C19.5451 23.732 19.3387 23.1408 19.0245 23.0115L18.7577 22.8744C18.7305 22.8623 18.73 22.8164 18.6749 22.8449C18.4771 23.2647 18.4704 23.9045 18.4651 24.3787C18.456 24.9246 18.4441 25.4747 18.4891 25.9969C18.5255 26.4062 18.5609 27.0929 18.7616 27.449C18.9905 27.8567 19.5513 27.9342 19.899 27.6927C20.6107 27.2006 20.5068 25.8914 20.2329 25.1709" fill="#F7B304"/>
<path d="M24.296 19.482C23.9157 18.8844 22.9756 19.3337 22.4837 19.5036C22.0972 19.6365 20.6408 20.4493 20.6408 20.4493C20.1748 20.7826 21.5646 21.1529 21.7083 21.1635C22.1916 21.1978 22.6786 21.2341 23.17 21.1935C23.5498 21.1603 24.0565 21.1107 24.3161 20.7626C24.5886 20.3987 24.5374 19.8612 24.2955 19.482" fill="#F7B304"/>
<path d="M20.6159 22.2896L20.318 22.2827C19.8142 22.6509 21.3243 23.8608 21.5604 24.1541C21.9296 24.604 23.1586 25.7533 23.5288 24.7148C24.1155 23.0707 21.4124 22.6562 20.6159 22.2896Z" fill="#F7B304"/>
<path d="M78.6241 12.2169C76.8736 13.1152 75.1145 14.4016 73.137 14.3679L72.6576 14.5989C72.2745 14.7503 71.8755 15.0298 71.5398 15.2951C72.5144 15.5821 73.6672 15.5684 74.6897 15.6923C75.5475 15.7957 76.468 15.8384 77.3209 15.6781C78.8253 15.3959 80.3885 15.0225 81.7999 14.2381C82.3928 13.9085 83.1327 13.4348 83.797 12.8768C84.4623 12.3177 85.0533 11.6742 85.3483 11.0038C83.1902 10.2089 80.6064 11.2011 78.6241 12.2169Z" fill="#88B704"/>
<path d="M84.6538 11.2394C82.5547 10.8116 80.2549 11.8391 78.2932 12.6999C77.1706 13.192 76.0566 13.7812 74.8779 14.1013C74.2438 14.2738 73.6073 14.325 72.9507 14.2996C72.9 14.2949 72.5302 14.4468 72.4799 14.4473C72.3741 14.4763 72.2668 14.5133 72.1605 14.557C71.8865 14.6699 71.6504 14.9489 71.5403 15.1541C72.3688 15.6172 73.455 15.6642 74.4627 15.7238C75.298 15.7755 76.1825 15.7327 76.9584 15.5771C78.2472 15.3213 79.5561 14.9547 80.7539 14.2902C81.2788 13.9995 81.8914 13.5971 82.468 13.1561C83.2793 12.5343 84.0528 11.866 84.6538 11.2394Z" fill="#739B03"/>
<path d="M83.2626 11.7104C81.2846 12.0169 79.5509 13.114 77.6304 13.6625C76.537 13.9742 75.4795 14.2459 74.3454 14.3197C73.4781 14.3772 72.6663 14.0549 71.8109 14.1678C71.5447 14.2021 71.3876 14.6383 71.5399 14.8709C72.5059 16.3488 74.843 15.7016 76.2324 15.3762C77.526 15.0719 78.6764 14.4205 79.8081 13.7153C80.9398 13.0101 82.0514 12.2516 83.2688 11.7352C83.2832 11.7294 83.2784 11.7078 83.2631 11.7104" fill="#496302"/>
<path d="M76.0078 9.44478C74.6026 10.6558 73.3756 12.1532 71.9474 13.3131C71.3493 13.7994 70.6438 14.5157 69.844 14.4097L70.1773 15.4171C70.5648 15.607 71.3488 15.5316 71.8105 15.54C72.6821 15.5548 73.4872 15.5036 74.3378 15.2958C75.9695 14.8965 77.6783 14.0426 79.162 13.2197C80.6731 12.38 82.1127 11.0129 83.2344 9.77127C84.3551 8.52965 85.1587 7.41356 85.3967 7.07547C85.7837 6.52322 86.1898 5.54849 86.7301 5.20829C84.7511 4.89287 82.8292 5.29901 81.0241 6.11076C79.2171 6.92145 77.526 8.13881 76.0078 9.44583" fill="#88B704"/>
<path d="M86.1332 5.41117C84.5958 5.51824 83.0723 5.9286 81.615 6.58897C81.3156 6.72505 81.0206 6.87168 80.7285 7.02781C79.4473 7.71719 78.2323 8.5975 77.0489 9.49522C76.6494 9.79956 76.25 10.1044 75.8558 10.4077C74.8491 11.181 73.8812 12.0133 72.8922 12.7834C72.4674 13.1141 72.0215 13.3952 71.5656 13.6515C70.9372 14.0049 70.2428 14.4854 69.5584 14.6606C69.5278 14.669 69.4985 14.6769 69.4703 14.6843C69.4085 14.7866 69.7054 15.5883 69.8142 15.6026C70.2452 15.7513 70.9425 15.6959 71.4262 15.6796C72.2682 15.6516 73.067 15.5419 73.8898 15.2977C74.0426 15.2508 74.1968 15.2012 74.3501 15.1469C75.8132 14.6379 77.2768 13.8172 78.5493 13.0291C80.0005 12.1267 81.3932 10.8439 82.5561 9.62392C83.5628 8.56744 84.3568 7.58954 84.7587 7.11906C85.1868 6.61798 85.6054 5.83155 86.114 5.4386C86.1279 5.42752 86.1308 5.41328 86.1337 5.41064" fill="#739B03"/>
<path d="M84.9404 5.8196C83.6104 6.66405 82.2459 7.4278 80.9303 8.30442C79.4744 9.27651 78.1741 10.5107 76.7536 11.5451C75.3814 12.5414 73.8149 13.2936 72.2933 13.9677C71.1415 14.4777 69.7037 14.1929 68.7885 15.1481C68.4892 15.4598 68.7272 15.9308 69.0869 15.9757C70.5275 16.1576 72.0194 15.7647 73.4332 15.107C74.8479 14.4487 76.187 13.5267 77.3211 12.6501C78.6516 11.6221 79.9337 10.4902 81.1971 9.33137C82.4605 8.17256 83.7052 6.98685 84.9614 5.84914C84.9758 5.83595 84.9567 5.81011 84.9409 5.82013" fill="#496302"/>
<g style="mix-blend-mode:multiply">
<mask id="mask10_2695_3645" style="mask-type:luminance" maskUnits="userSpaceOnUse" x="72" y="6" width="9" height="10">
<path d="M80.8448 6.87769H72.5867V15.7378H80.8448V6.87769Z" fill="white"/>
</mask>
<g mask="url(#mask10_2695_3645)">
<path d="M79.2706 7.03383L78.4483 7.50801C78.2012 7.76857 77.6341 8.13093 77.3085 8.49382C76.7117 9.1584 76.1921 9.8884 75.5968 10.5588C74.4737 11.8241 73.4052 13.3247 72.705 14.9103C72.1671 16.1239 73.602 15.6988 74.2902 15.5121C75.0498 15.3069 75.6858 14.9989 76.3937 14.5526C77.8219 13.6528 79.0177 12.2793 79.9871 10.7703C80.4761 10.0092 80.7821 9.10091 80.8386 8.19264C80.9205 6.81969 80.1787 6.70154 79.2701 7.03436" fill="#E8DCC4"/>
</g>
</g>
<path d="M78.8502 0.840487C78.7027 0.435932 78.5542 0.0672442 78.3569 -0.295115C78.1639 -0.648507 78.0987 -1.18651 77.6792 -0.93544C76.9871 -0.521919 76.3751 0.0909794 75.694 0.555136C74.1806 1.59369 72.6854 2.67338 71.2089 3.77733C69.8233 4.81747 68.2845 5.66297 66.841 6.59761C66.0594 7.10133 65.2965 7.59924 64.5206 8.09663C63.8266 8.54602 62.9957 8.8973 62.3683 9.42159L62.1102 9.51125C61.4732 9.75705 60.4928 9.67002 60 10.3504C60.1901 11.1601 60.8482 12.1021 61.3539 12.7371C61.5991 13.0462 61.8817 13.282 62.1059 13.5979C62.3463 13.9397 62.6236 14.2135 62.9287 14.4746C63.5584 15.0131 64.4023 15.3512 65.1087 15.6634C65.5326 15.8481 65.8516 16.0316 66.3161 16.0996C70.4229 16.7162 72.0915 15.9013 72.9119 15.5421C74.5954 14.8037 76.0087 13.9508 77.3066 12.5747C78.4349 11.3768 79.4096 9.88891 79.5671 6.6166C79.6701 4.45933 79.4977 2.63382 78.8497 0.83996" fill="#FEFEDA"/>
<mask id="mask11_2695_3645" style="mask-type:luminance" maskUnits="userSpaceOnUse" x="60" y="-1" width="20" height="18">
<path d="M77.6799 -0.935163C77.5377 -0.851298 77.4017 -0.755302 77.2652 -0.655086C77.8605 0.287469 79.2671 3.11144 78.6646 7.94289C77.9084 13.9943 70.4701 16.2418 66.5707 15.4501C62.2953 14.5814 61.0429 11.0084 60.7373 9.84594C60.4514 9.94352 60.1894 10.0907 60.0007 10.3518C60.1909 11.1614 60.8489 12.1034 61.3547 12.7385C61.5999 13.0476 61.8824 13.2833 62.1066 13.5993C62.347 13.9411 62.6243 14.2148 62.9294 14.4759C63.5592 15.0144 64.403 15.3525 65.1095 15.6642C65.5333 15.8489 65.8528 16.0324 66.3173 16.1005C70.4241 16.717 72.0927 15.9021 72.9131 15.5429C74.5966 14.8045 76.0099 13.9516 77.3078 12.5755C78.4361 11.3777 79.4108 9.88972 79.5683 6.61741C79.6713 4.46013 79.4989 2.63463 78.8509 0.840765C78.7034 0.43621 78.5549 0.0675218 78.3581 -0.294837C78.1996 -0.585463 78.1272 -0.999512 77.8744 -0.999512C77.8193 -0.999512 77.7556 -0.979996 77.6809 -0.935163" fill="white"/>
</mask>
<g mask="url(#mask11_2695_3645)">
<path d="M60.0069 -1.40514L59.6997 16.7107L79.6637 17.1213L79.971 -0.994495L60.0069 -1.40514Z" fill="url(#paint1_linear_2695_3645)"/>
</g>
<path d="M68.1585 6.21733C67.7629 6.3608 65.9588 7.77648 65.26 8.32608C64.0636 9.26653 61.646 10.6179 63.0809 12.378C63.6618 13.0911 64.3433 13.7667 65.1623 14.0795C65.6058 14.2509 66.0842 14.4392 66.533 14.5189C66.8663 14.5785 67.612 14.6713 67.8769 14.3992C68.1623 14.1096 68.2361 13.4065 68.3108 13.0204C68.4133 12.4871 68.5076 11.9576 68.5771 11.4154C68.7126 10.3642 68.8165 9.36305 68.8702 8.26648C68.885 7.9479 68.9626 7.64831 68.9674 7.34397C68.9937 5.93936 68.3888 6.13347 68.1585 6.21733Z" fill="#F98104"/>
<path d="M73.4488 10.8003C73.0437 10.0508 71.0341 7.66252 70.6567 7.08759C70.4939 6.83758 69.8104 6.20833 69.6433 6.23365C69.1485 6.31066 69.2209 7.39246 69.207 7.59395C69.1778 8.09555 69.1251 8.60507 69.0935 9.10457C69.0255 10.1531 69.0279 11.2117 69.0101 12.254C68.9986 13.0077 68.5743 14.6011 69.5633 14.7873C69.9579 14.8622 70.5125 14.7003 70.9072 14.6576C71.3636 14.608 71.8286 14.425 72.2348 14.2203C72.9139 13.8796 73.6874 13.5468 74.2755 13.0256C75.0863 12.3067 73.8665 11.5736 73.4493 10.8003" fill="#F98104"/>
<path d="M78.0274 2.82647C77.8847 2.02053 77.5399 0.723525 76.5844 0.853277C76.2166 0.903385 75.8148 1.2283 75.4843 1.44455C75.1471 1.66397 74.7946 1.83803 74.4556 2.05692C73.7424 2.51633 73.0624 3.03218 72.3842 3.55699C72.0983 3.77641 70.3056 4.66306 70.7668 5.24483L71.0513 5.47375C71.7549 5.65783 72.3698 5.66047 73.0868 5.79391C73.8507 5.93738 74.7314 6.04287 75.5126 6.10089C76.2702 6.15627 77.3205 6.41578 77.7654 5.53862C78.1696 4.74217 78.1864 3.73052 78.0274 2.827" fill="#F98104"/>
<path d="M77.4891 6.84496C77.2946 6.4652 76.6198 6.57754 76.2865 6.51689C75.3933 6.3539 74.4354 6.43619 73.558 6.25685C73.1121 6.16244 72.7587 5.97836 72.286 5.94144C71.8406 5.90715 70.5135 5.64185 70.5135 5.64185C70.025 5.71463 70.5025 6.48102 70.6734 6.65561C70.9756 6.96786 71.2386 7.30015 71.5235 7.64299C72.08 8.3176 72.6337 8.98799 73.1485 9.70533C73.4124 10.0693 73.6854 10.4121 73.9493 10.7792C74.1687 11.083 74.2879 11.4929 74.5393 11.7603C75.2084 12.4708 75.9996 11.5862 76.4445 10.9638C76.991 10.1964 77.4225 9.36565 77.5259 8.41466C77.5676 8.03278 77.66 7.17884 77.4891 6.84496Z" fill="#F98104"/>
<path d="M68.5985 6.68574L68.5411 6.48848C67.771 6.37613 66.9194 7.47534 66.3605 7.94582C65.6541 8.5429 64.8825 9.11571 64.1843 9.73916C63.4553 10.3906 63.0353 11.2371 63.815 12.0468C64.3782 12.6296 65.4304 13.223 66.2235 13.0452C67.0818 12.849 67.498 11.4339 67.7465 10.6685C68.0588 9.70856 68.3418 8.69058 68.4893 7.70056C68.5353 7.392 68.6287 6.99166 68.5981 6.68574" fill="#FBA20A"/>
<path d="M72.3386 11.2303C72.2194 10.4259 71.7352 9.46962 71.3587 8.7544C71.1475 8.35459 70.8257 8.00911 70.5723 7.65361C70.341 7.33292 70.1854 6.94894 69.8803 6.67994L69.6734 6.61084C69.1528 6.65198 69.273 9.10779 69.2644 9.59041C69.2452 10.6749 69.1518 11.7329 69.1801 12.8073C69.2112 14.0215 70.3429 14.1428 71.2146 13.7277C72.0422 13.3321 72.4794 12.1834 72.3386 11.2297" fill="#FBA20A"/>
<path d="M74.9195 7.16979C74.3869 6.76154 73.691 6.69719 73.0727 6.55003C72.7586 6.47619 72.4439 6.34538 72.1307 6.22512C71.9846 6.16763 71.1781 5.9556 71.1752 5.9519L70.9626 6.14284C70.7212 6.15603 71.3596 7.11493 71.4564 7.26315C71.7126 7.65082 72.0565 8.01213 72.3644 8.36447C72.8927 8.9684 73.4243 9.66621 73.9961 10.2111C74.2907 10.4948 74.8362 10.7665 75.2418 10.6652C75.6455 10.565 75.8644 9.98796 75.9439 9.59712C76.1187 8.71258 75.5962 7.68616 74.9195 7.16873" fill="#FBA20A"/>
<path d="M76.8994 2.94176C76.3017 2.03982 75.1753 2.48499 74.4243 2.83996C73.8999 3.08628 73.3788 3.37058 72.8549 3.6132C72.3716 3.83895 71.7299 4.05257 71.3783 4.47717L71.2849 4.80313C71.0421 5.08057 72.079 5.40284 72.2567 5.44768C72.7102 5.5653 73.2078 5.63334 73.6853 5.64231C74.6044 5.65708 75.7016 5.88757 76.522 5.40337C77.306 4.94449 77.3908 3.68124 76.8994 2.94123" fill="#FBA20A"/>
<path d="M67.2975 7.37354C66.8866 7.72694 66.4934 8.07083 66.0916 8.43478C65.469 8.99809 64.366 9.81195 64.7468 10.8378C65.2018 12.0668 66.4034 10.9592 66.8718 10.3637C67.4728 9.6015 67.9498 8.54027 68.1936 7.59666C68.243 7.40519 68.2798 7.15201 68.3253 6.97743L68.3301 6.681C68.0739 6.52593 67.5025 7.1979 67.298 7.37407" fill="#F7B304"/>
<path d="M71.2329 9.17145C71.0825 8.77744 70.8861 8.4077 70.6998 8.03584C70.5451 7.73203 70.3387 7.14076 70.0245 7.01153L69.7577 6.8744C69.7305 6.86226 69.73 6.81638 69.6749 6.84486C69.4771 7.26471 69.4704 7.90451 69.4651 8.37869C69.456 8.9246 69.4441 9.47473 69.4891 9.99691C69.5255 10.4062 69.5609 11.0929 69.7616 11.449C69.9905 11.8567 70.5513 11.9342 70.899 11.6927C71.6107 11.2006 71.5068 9.89142 71.2329 9.17092" fill="#F7B304"/>
<path d="M75.296 3.48196C74.9157 2.88435 73.9756 3.33374 73.4837 3.50358C73.0972 3.6365 71.6408 4.4493 71.6408 4.4493C71.1748 4.78265 72.5646 5.15292 72.7083 5.16347C73.1916 5.19775 73.6786 5.23415 74.17 5.19353C74.5498 5.1603 75.0565 5.11072 75.3161 4.76261C75.5886 4.39867 75.5374 3.86119 75.2955 3.48196" fill="#F7B304"/>
<path d="M71.6159 6.28957L71.318 6.28271C70.8142 6.65088 72.3243 7.86085 72.5604 8.15411C72.9296 8.60403 74.1586 9.75334 74.5288 8.71479C75.1155 7.07073 72.4124 6.65615 71.6159 6.28957Z" fill="#F7B304"/>
<path d="M132.624 26.2169C130.874 27.1152 129.115 28.4016 127.137 28.3679L126.658 28.5989C126.274 28.7503 125.876 29.0298 125.54 29.2951C126.514 29.5821 127.667 29.5684 128.69 29.6923C129.547 29.7957 130.468 29.8384 131.321 29.6781C132.825 29.3959 134.388 29.0225 135.8 28.2381C136.393 27.9085 137.133 27.4348 137.797 26.8768C138.462 26.3177 139.053 25.6742 139.348 25.0038C137.19 24.2089 134.606 25.2011 132.624 26.2169Z" fill="#88B704"/>
<path d="M138.654 25.2394C136.555 24.8116 134.255 25.8391 132.293 26.6999C131.171 27.192 130.057 27.7812 128.878 28.1013C128.244 28.2738 127.607 28.325 126.951 28.2996C126.9 28.2949 126.53 28.4468 126.48 28.4473C126.374 28.4763 126.267 28.5133 126.16 28.557C125.887 28.6699 125.65 28.9489 125.54 29.1541C126.369 29.6172 127.455 29.6642 128.463 29.7238C129.298 29.7755 130.183 29.7327 130.958 29.5771C132.247 29.3213 133.556 28.9547 134.754 28.2902C135.279 27.9995 135.891 27.5971 136.468 27.1561C137.279 26.5343 138.053 25.866 138.654 25.2394Z" fill="#739B03"/>
<path d="M137.263 25.7104C135.285 26.0169 133.551 27.114 131.63 27.6625C130.537 27.9742 129.48 28.2459 128.345 28.3197C127.478 28.3772 126.666 28.0549 125.811 28.1678C125.545 28.2021 125.388 28.6383 125.54 28.8709C126.506 30.3488 128.843 29.7016 130.232 29.3762C131.526 29.0719 132.676 28.4205 133.808 27.7153C134.94 27.0101 136.051 26.2516 137.269 25.7352C137.283 25.7294 137.278 25.7078 137.263 25.7104" fill="#496302"/>
<path d="M130.008 23.4448C128.603 24.6558 127.376 26.1532 125.947 27.3131C125.349 27.7994 124.644 28.5157 123.844 28.4097L124.177 29.4171C124.565 29.607 125.349 29.5316 125.81 29.54C126.682 29.5548 127.487 29.5036 128.338 29.2958C129.969 28.8965 131.678 28.0426 133.162 27.2197C134.673 26.38 136.113 25.0129 137.234 23.7713C138.355 22.5296 139.159 21.4136 139.397 21.0755C139.784 20.5232 140.19 19.5485 140.73 19.2083C138.751 18.8929 136.829 19.299 135.024 20.1108C133.217 20.9215 131.526 22.1388 130.008 23.4458" fill="#88B704"/>
<path d="M140.133 19.4112C138.596 19.5182 137.072 19.9286 135.615 20.589C135.316 20.7251 135.021 20.8717 134.728 21.0278C133.447 21.7172 132.232 22.5975 131.049 23.4952C130.649 23.7996 130.25 24.1044 129.856 24.4077C128.849 25.181 127.881 26.0133 126.892 26.7834C126.467 27.1141 126.022 27.3952 125.566 27.6515C124.937 28.0049 124.243 28.4854 123.558 28.6606C123.528 28.669 123.499 28.6769 123.47 28.6843C123.409 28.7866 123.705 29.5883 123.814 29.6026C124.245 29.7513 124.943 29.6959 125.426 29.6796C126.268 29.6516 127.067 29.5419 127.89 29.2977C128.043 29.2508 128.197 29.2012 128.35 29.1469C129.813 28.6379 131.277 27.8172 132.549 27.0291C134 26.1267 135.393 24.8439 136.556 23.6239C137.563 22.5674 138.357 21.5895 138.759 21.1191C139.187 20.618 139.605 19.8316 140.114 19.4386C140.128 19.4275 140.131 19.4133 140.134 19.4106" fill="#739B03"/>
<path d="M138.94 19.8196C137.61 20.664 136.246 21.4278 134.93 22.3044C133.474 23.2765 132.174 24.5107 130.754 25.5451C129.381 26.5414 127.815 27.2936 126.293 27.9677C125.141 28.4777 123.704 28.1929 122.788 29.1481C122.489 29.4598 122.727 29.9308 123.087 29.9757C124.527 30.1576 126.019 29.7647 127.433 29.107C128.848 28.4487 130.187 27.5267 131.321 26.6501C132.652 25.6221 133.934 24.4902 135.197 23.3314C136.46 22.1726 137.705 20.9868 138.961 19.8491C138.976 19.836 138.957 19.8101 138.941 19.8201" fill="#496302"/>
<g style="mix-blend-mode:multiply">
<mask id="mask12_2695_3645" style="mask-type:luminance" maskUnits="userSpaceOnUse" x="126" y="20" width="9" height="10">
<path d="M134.845 20.8777H126.587V29.7378H134.845V20.8777Z" fill="white"/>
</mask>
<g mask="url(#mask12_2695_3645)">
<path d="M133.271 21.0338L132.448 21.508C132.201 21.7686 131.634 22.1309 131.308 22.4938C130.712 23.1584 130.192 23.8884 129.597 24.5588C128.474 25.8241 127.405 27.3247 126.705 28.9103C126.167 30.1239 127.602 29.6988 128.29 29.5121C129.05 29.3069 129.686 28.9989 130.394 28.5526C131.822 27.6528 133.018 26.2793 133.987 24.7703C134.476 24.0092 134.782 23.1009 134.839 22.1926C134.921 20.8197 134.179 20.7015 133.27 21.0344" fill="#E8DCC4"/>
</g>
</g>
<path d="M132.85 14.8405C132.703 14.4359 132.554 14.0672 132.357 13.7049C132.164 13.3515 132.099 12.8135 131.679 13.0646C130.987 13.4781 130.375 14.091 129.694 14.5551C128.181 15.5937 126.685 16.6734 125.209 17.7773C123.823 18.8175 122.285 19.663 120.841 20.5976C120.059 21.1013 119.296 21.5992 118.521 22.0966C117.827 22.546 116.996 22.8973 116.368 23.4216L116.11 23.5113C115.473 23.757 114.493 23.67 114 24.3504C114.19 25.1601 114.848 26.1021 115.354 26.7371C115.599 27.0462 115.882 27.282 116.106 27.5979C116.346 27.9397 116.624 28.2135 116.929 28.4746C117.558 29.0131 118.402 29.3512 119.109 29.6634C119.533 29.8481 119.852 30.0316 120.316 30.0996C124.423 30.7162 126.092 29.9013 126.912 29.5421C128.595 28.8037 130.009 27.9508 131.307 26.5747C132.435 25.3768 133.41 23.8889 133.567 20.6166C133.67 18.4593 133.498 16.6338 132.85 14.84" fill="#FEFEDA"/>
<mask id="mask13_2695_3645" style="mask-type:luminance" maskUnits="userSpaceOnUse" x="114" y="13" width="20" height="18">
<path d="M131.68 13.0648C131.538 13.1487 131.402 13.2447 131.265 13.3449C131.86 14.2875 133.267 17.1114 132.665 21.9429C131.908 27.9943 124.47 30.2418 120.571 29.4501C116.295 28.5814 115.043 25.0084 114.737 23.8459C114.451 23.9435 114.189 24.0907 114.001 24.3518C114.191 25.1614 114.849 26.1034 115.355 26.7385C115.6 27.0476 115.882 27.2833 116.107 27.5993C116.347 27.9411 116.624 28.2148 116.929 28.4759C117.559 29.0144 118.403 29.3525 119.109 29.6642C119.533 29.8489 119.853 30.0324 120.317 30.1005C124.424 30.717 126.093 29.9021 126.913 29.5429C128.597 28.8045 130.01 27.9516 131.308 26.5755C132.436 25.3777 133.411 23.8897 133.568 20.6174C133.671 18.4601 133.499 16.6346 132.851 14.8408C132.703 14.4362 132.555 14.0675 132.358 13.7052C132.2 13.4145 132.127 13.0005 131.874 13.0005C131.819 13.0005 131.756 13.02 131.681 13.0648" fill="white"/>
</mask>
<g mask="url(#mask13_2695_3645)">
<path d="M114.007 12.5949L113.7 30.7107L133.664 31.1213L133.971 13.0055L114.007 12.5949Z" fill="url(#paint2_linear_2695_3645)"/>
</g>
<path d="M122.158 20.2173C121.763 20.3608 119.959 21.7765 119.26 22.3261C118.064 23.2665 115.646 24.6179 117.081 26.378C117.662 27.0911 118.343 27.7667 119.162 28.0795C119.606 28.2509 120.084 28.4392 120.533 28.5189C120.866 28.5785 121.612 28.6713 121.877 28.3992C122.162 28.1096 122.236 27.4065 122.311 27.0204C122.413 26.4871 122.508 25.9576 122.577 25.4154C122.713 24.3642 122.817 23.363 122.87 22.2665C122.885 21.9479 122.963 21.6483 122.967 21.344C122.994 19.9394 122.389 20.1335 122.158 20.2173Z" fill="#F98104"/>
<path d="M127.449 24.8003C127.044 24.0508 125.034 21.6625 124.657 21.0876C124.494 20.8376 123.81 20.2083 123.643 20.2337C123.149 20.3107 123.221 21.3925 123.207 21.5939C123.178 22.0956 123.125 22.6051 123.093 23.1046C123.025 24.1531 123.028 25.2117 123.01 26.254C122.999 27.0077 122.574 28.6011 123.563 28.7873C123.958 28.8622 124.513 28.7003 124.907 28.6576C125.364 28.608 125.829 28.425 126.235 28.2203C126.914 27.8796 127.687 27.5468 128.275 27.0256C129.086 26.3067 127.866 25.5736 127.449 24.8003" fill="#F98104"/>
<path d="M132.027 16.8265C131.885 16.0205 131.54 14.7235 130.584 14.8533C130.217 14.9034 129.815 15.2283 129.484 15.4446C129.147 15.664 128.795 15.838 128.456 16.0569C127.742 16.5163 127.062 17.0322 126.384 17.557C126.098 17.7764 124.306 18.6631 124.767 19.2448L125.051 19.4737C125.755 19.6578 126.37 19.6605 127.087 19.7939C127.851 19.9374 128.731 20.0429 129.513 20.1009C130.27 20.1563 131.321 20.4158 131.765 19.5386C132.17 18.7422 132.186 17.7305 132.027 16.827" fill="#F98104"/>
<path d="M131.489 20.845C131.295 20.4652 130.62 20.5775 130.286 20.5169C129.393 20.3539 128.435 20.4362 127.558 20.2569C127.112 20.1624 126.759 19.9784 126.286 19.9414C125.841 19.9072 124.513 19.6418 124.513 19.6418C124.025 19.7146 124.502 20.481 124.673 20.6556C124.976 20.9679 125.239 21.3002 125.524 21.643C126.08 22.3176 126.634 22.988 127.149 23.7053C127.412 24.0693 127.685 24.4121 127.949 24.7792C128.169 25.083 128.288 25.4929 128.539 25.7603C129.208 26.4708 130 25.5862 130.445 24.9638C130.991 24.1964 131.422 23.3656 131.526 22.4147C131.568 22.0328 131.66 21.1788 131.489 20.845Z" fill="#F98104"/>
<path d="M122.599 20.6857L122.541 20.4885C121.771 20.3761 120.919 21.4753 120.361 21.9458C119.654 22.5429 118.883 23.1157 118.184 23.7392C117.455 24.3906 117.035 25.2371 117.815 26.0468C118.378 26.6296 119.43 27.223 120.224 27.0452C121.082 26.849 121.498 25.4339 121.747 24.6685C122.059 23.7086 122.342 22.6906 122.489 21.7006C122.535 21.392 122.629 20.9917 122.598 20.6857" fill="#FBA20A"/>
<path d="M126.339 25.2303C126.219 24.4259 125.735 23.4696 125.359 22.7544C125.148 22.3546 124.826 22.0091 124.572 21.6536C124.341 21.3329 124.185 20.9489 123.88 20.6799L123.673 20.6108C123.153 20.652 123.273 23.1078 123.264 23.5904C123.245 24.6749 123.152 25.7329 123.18 26.8073C123.211 28.0215 124.343 28.1428 125.215 27.7277C126.042 27.3321 126.479 26.1834 126.339 25.2297" fill="#FBA20A"/>
<path d="M128.919 21.1698C128.387 20.7615 127.691 20.6972 127.073 20.55C126.759 20.4762 126.444 20.3454 126.131 20.2251C125.985 20.1676 125.178 19.9556 125.175 19.9519L124.963 20.1428C124.721 20.156 125.36 21.1149 125.456 21.2631C125.713 21.6508 126.056 22.0121 126.364 22.3645C126.893 22.9684 127.424 23.6662 127.996 24.2111C128.291 24.4948 128.836 24.7665 129.242 24.6652C129.646 24.565 129.864 23.988 129.944 23.5971C130.119 22.7126 129.596 21.6862 128.919 21.1687" fill="#FBA20A"/>
<path d="M130.899 16.9418C130.302 16.0398 129.175 16.485 128.424 16.84C127.9 17.0863 127.379 17.3706 126.855 17.6132C126.372 17.839 125.73 18.0526 125.378 18.4772L125.285 18.8031C125.042 19.0806 126.079 19.4028 126.257 19.4477C126.71 19.5653 127.208 19.6333 127.685 19.6423C128.604 19.6571 129.702 19.8876 130.522 19.4034C131.306 18.9445 131.391 17.6812 130.899 16.9412" fill="#FBA20A"/>
<path d="M121.298 21.3735C120.887 21.7269 120.493 22.0708 120.092 22.4348C119.469 22.9981 118.366 23.8119 118.747 24.8378C119.202 26.0668 120.403 24.9592 120.872 24.3637C121.473 23.6015 121.95 22.5403 122.194 21.5967C122.243 21.4052 122.28 21.152 122.325 20.9774L122.33 20.681C122.074 20.5259 121.503 21.1979 121.298 21.3741" fill="#F7B304"/>
<path d="M125.233 23.1714C125.082 22.7774 124.886 22.4077 124.7 22.0358C124.545 21.732 124.339 21.1408 124.025 21.0115L123.758 20.8744C123.73 20.8623 123.73 20.8164 123.675 20.8449C123.477 21.2647 123.47 21.9045 123.465 22.3787C123.456 22.9246 123.444 23.4747 123.489 23.9969C123.525 24.4062 123.561 25.0929 123.762 25.449C123.991 25.8567 124.551 25.9342 124.899 25.6927C125.611 25.2006 125.507 23.8914 125.233 23.1709" fill="#F7B304"/>
<path d="M129.296 17.482C128.916 16.8844 127.976 17.3337 127.484 17.5036C127.097 17.6365 125.641 18.4493 125.641 18.4493C125.175 18.7826 126.565 19.1529 126.708 19.1635C127.192 19.1978 127.679 19.2341 128.17 19.1935C128.55 19.1603 129.057 19.1107 129.316 18.7626C129.589 18.3987 129.537 17.8612 129.295 17.482" fill="#F7B304"/>
<path d="M125.616 20.2896L125.318 20.2827C124.814 20.6509 126.324 21.8608 126.56 22.1541C126.93 22.604 128.159 23.7533 128.529 22.7148C129.115 21.0707 126.412 20.6562 125.616 20.2896Z" fill="#F7B304"/>
<path d="M122.624 67.2169C120.874 68.1152 119.115 69.4016 117.137 69.3679L116.658 69.5989C116.274 69.7503 115.876 70.0298 115.54 70.2951C116.514 70.5821 117.667 70.5684 118.69 70.6923C119.547 70.7957 120.468 70.8384 121.321 70.6781C122.825 70.3959 124.388 70.0225 125.8 69.2381C126.393 68.9085 127.133 68.4348 127.797 67.8768C128.462 67.3177 129.053 66.6742 129.348 66.0038C127.19 65.2089 124.606 66.2011 122.624 67.2169Z" fill="#88B704"/>
<path d="M128.654 66.2394C126.555 65.8116 124.255 66.8391 122.293 67.6999C121.171 68.192 120.057 68.7812 118.878 69.1013C118.244 69.2738 117.607 69.325 116.951 69.2996C116.9 69.2949 116.53 69.4468 116.48 69.4473C116.374 69.4763 116.267 69.5133 116.16 69.557C115.887 69.6699 115.65 69.9489 115.54 70.1541C116.369 70.6172 117.455 70.6642 118.463 70.7238C119.298 70.7755 120.183 70.7327 120.958 70.5771C122.247 70.3213 123.556 69.9547 124.754 69.2902C125.279 68.9995 125.891 68.5971 126.468 68.1561C127.279 67.5343 128.053 66.866 128.654 66.2394Z" fill="#739B03"/>
<path d="M127.263 66.7104C125.285 67.0169 123.551 68.114 121.63 68.6625C120.537 68.9742 119.48 69.2459 118.345 69.3197C117.478 69.3772 116.666 69.0549 115.811 69.1678C115.545 69.2021 115.388 69.6383 115.54 69.8709C116.506 71.3488 118.843 70.7016 120.232 70.3762C121.526 70.0719 122.676 69.4205 123.808 68.7153C124.94 68.0101 126.051 67.2516 127.269 66.7352C127.283 66.7294 127.278 66.7078 127.263 66.7104" fill="#496302"/>
<path d="M120.008 64.4448C118.603 65.6558 117.376 67.1532 115.947 68.3131C115.349 68.7994 114.644 69.5157 113.844 69.4097L114.177 70.4171C114.565 70.607 115.349 70.5316 115.81 70.54C116.682 70.5548 117.487 70.5036 118.338 70.2958C119.969 69.8965 121.678 69.0426 123.162 68.2197C124.673 67.38 126.113 66.0129 127.234 64.7713C128.355 63.5296 129.159 62.4136 129.397 62.0755C129.784 61.5232 130.19 60.5485 130.73 60.2083C128.751 59.8929 126.829 60.299 125.024 61.1108C123.217 61.9215 121.526 63.1388 120.008 64.4458" fill="#88B704"/>
<path d="M130.133 60.4112C128.596 60.5182 127.072 60.9286 125.615 61.589C125.316 61.7251 125.021 61.8717 124.728 62.0278C123.447 62.7172 122.232 63.5975 121.049 64.4952C120.649 64.7996 120.25 65.1044 119.856 65.4077C118.849 66.181 117.881 67.0133 116.892 67.7834C116.467 68.1141 116.022 68.3952 115.566 68.6515C114.937 69.0049 114.243 69.4854 113.558 69.6606C113.528 69.669 113.499 69.6769 113.47 69.6843C113.409 69.7866 113.705 70.5883 113.814 70.6026C114.245 70.7513 114.943 70.6959 115.426 70.6796C116.268 70.6516 117.067 70.5419 117.89 70.2977C118.043 70.2508 118.197 70.2012 118.35 70.1469C119.813 69.6379 121.277 68.8172 122.549 68.0291C124 67.1267 125.393 65.8439 126.556 64.6239C127.563 63.5674 128.357 62.5895 128.759 62.1191C129.187 61.618 129.605 60.8316 130.114 60.4386C130.128 60.4275 130.131 60.4133 130.134 60.4106" fill="#739B03"/>
<path d="M128.94 60.8196C127.61 61.664 126.246 62.4278 124.93 63.3044C123.474 64.2765 122.174 65.5107 120.754 66.5451C119.381 67.5414 117.815 68.2936 116.293 68.9677C115.141 69.4777 113.704 69.1929 112.788 70.1481C112.489 70.4598 112.727 70.9308 113.087 70.9757C114.527 71.1576 116.019 70.7647 117.433 70.107C118.848 69.4487 120.187 68.5267 121.321 67.6501C122.652 66.6221 123.934 65.4902 125.197 64.3314C126.46 63.1726 127.705 61.9868 128.961 60.8491C128.976 60.836 128.957 60.8101 128.941 60.8201" fill="#496302"/>
<g style="mix-blend-mode:multiply">
<mask id="mask14_2695_3645" style="mask-type:luminance" maskUnits="userSpaceOnUse" x="116" y="61" width="9" height="10">
<path d="M124.845 61.8777H116.587V70.7378H124.845V61.8777Z" fill="white"/>
</mask>
<g mask="url(#mask14_2695_3645)">
<path d="M123.271 62.0338L122.448 62.508C122.201 62.7686 121.634 63.1309 121.308 63.4938C120.712 64.1584 120.192 64.8884 119.597 65.5588C118.474 66.8241 117.405 68.3247 116.705 69.9103C116.167 71.1239 117.602 70.6988 118.29 70.5121C119.05 70.3069 119.686 69.9989 120.394 69.5526C121.822 68.6528 123.018 67.2793 123.987 65.7703C124.476 65.0092 124.782 64.1009 124.839 63.1926C124.921 61.8197 124.179 61.7015 123.27 62.0344" fill="#E8DCC4"/>
</g>
</g>
<path d="M122.85 55.8405C122.703 55.4359 122.554 55.0672 122.357 54.7049C122.164 54.3515 122.099 53.8135 121.679 54.0646C120.987 54.4781 120.375 55.091 119.694 55.5551C118.181 56.5937 116.685 57.6734 115.209 58.7773C113.823 59.8175 112.285 60.663 110.841 61.5976C110.059 62.1013 109.296 62.5992 108.521 63.0966C107.827 63.546 106.996 63.8973 106.368 64.4216L106.11 64.5113C105.473 64.757 104.493 64.67 104 65.3504C104.19 66.1601 104.848 67.1021 105.354 67.7371C105.599 68.0462 105.882 68.282 106.106 68.5979C106.346 68.9397 106.624 69.2135 106.929 69.4746C107.558 70.0131 108.402 70.3512 109.109 70.6634C109.533 70.8481 109.852 71.0316 110.316 71.0996C114.423 71.7162 116.092 70.9013 116.912 70.5421C118.595 69.8037 120.009 68.9508 121.307 67.5747C122.435 66.3768 123.41 64.8889 123.567 61.6166C123.67 59.4593 123.498 57.6338 122.85 55.84" fill="#FEFEDA"/>
<mask id="mask15_2695_3645" style="mask-type:luminance" maskUnits="userSpaceOnUse" x="104" y="54" width="20" height="18">
<path d="M121.68 54.0648C121.538 54.1487 121.402 54.2447 121.265 54.3449C121.86 55.2875 123.267 58.1114 122.665 62.9429C121.908 68.9943 114.47 71.2418 110.571 70.4501C106.295 69.5814 105.043 66.0084 104.737 64.8459C104.451 64.9435 104.189 65.0907 104.001 65.3518C104.191 66.1614 104.849 67.1034 105.355 67.7385C105.6 68.0476 105.882 68.2833 106.107 68.5993C106.347 68.9411 106.624 69.2148 106.929 69.4759C107.559 70.0144 108.403 70.3525 109.109 70.6642C109.533 70.8489 109.853 71.0324 110.317 71.1005C114.424 71.717 116.093 70.9021 116.913 70.5429C118.597 69.8045 120.01 68.9516 121.308 67.5755C122.436 66.3777 123.411 64.8897 123.568 61.6174C123.671 59.4601 123.499 57.6346 122.851 55.8408C122.703 55.4362 122.555 55.0675 122.358 54.7052C122.2 54.4145 122.127 54.0005 121.874 54.0005C121.819 54.0005 121.756 54.02 121.681 54.0648" fill="white"/>
</mask>
<g mask="url(#mask15_2695_3645)">
<path d="M104.007 53.5949L103.7 71.7107L123.664 72.1213L123.971 54.0055L104.007 53.5949Z" fill="url(#paint3_linear_2695_3645)"/>
</g>
<path d="M112.158 61.2173C111.763 61.3608 109.959 62.7765 109.26 63.3261C108.064 64.2665 105.646 65.6179 107.081 67.378C107.662 68.0911 108.343 68.7667 109.162 69.0795C109.606 69.2509 110.084 69.4392 110.533 69.5189C110.866 69.5785 111.612 69.6713 111.877 69.3992C112.162 69.1096 112.236 68.4065 112.311 68.0204C112.413 67.4871 112.508 66.9576 112.577 66.4154C112.713 65.3642 112.817 64.363 112.87 63.2665C112.885 62.9479 112.963 62.6483 112.967 62.344C112.994 60.9394 112.389 61.1335 112.158 61.2173Z" fill="#F98104"/>
<path d="M117.449 65.8003C117.044 65.0508 115.034 62.6625 114.657 62.0876C114.494 61.8376 113.81 61.2083 113.643 61.2337C113.149 61.3107 113.221 62.3925 113.207 62.5939C113.178 63.0956 113.125 63.6051 113.093 64.1046C113.025 65.1531 113.028 66.2117 113.01 67.254C112.999 68.0077 112.574 69.6011 113.563 69.7873C113.958 69.8622 114.513 69.7003 114.907 69.6576C115.364 69.608 115.829 69.425 116.235 69.2203C116.914 68.8796 117.687 68.5468 118.275 68.0256C119.086 67.3067 117.866 66.5736 117.449 65.8003" fill="#F98104"/>
<path d="M122.027 57.8265C121.885 57.0205 121.54 55.7235 120.584 55.8533C120.217 55.9034 119.815 56.2283 119.484 56.4446C119.147 56.664 118.795 56.838 118.456 57.0569C117.742 57.5163 117.062 58.0322 116.384 58.557C116.098 58.7764 114.306 59.6631 114.767 60.2448L115.051 60.4737C115.755 60.6578 116.37 60.6605 117.087 60.7939C117.851 60.9374 118.731 61.0429 119.513 61.1009C120.27 61.1563 121.321 61.4158 121.765 60.5386C122.17 59.7422 122.186 58.7305 122.027 57.827" fill="#F98104"/>
<path d="M121.489 61.845C121.295 61.4652 120.62 61.5775 120.286 61.5169C119.393 61.3539 118.435 61.4362 117.558 61.2569C117.112 61.1624 116.759 60.9784 116.286 60.9414C115.841 60.9072 114.513 60.6418 114.513 60.6418C114.025 60.7146 114.502 61.481 114.673 61.6556C114.976 61.9679 115.239 62.3002 115.524 62.643C116.08 63.3176 116.634 63.988 117.149 64.7053C117.412 65.0693 117.685 65.4121 117.949 65.7792C118.169 66.083 118.288 66.4929 118.539 66.7603C119.208 67.4708 120 66.5862 120.445 65.9638C120.991 65.1964 121.422 64.3656 121.526 63.4147C121.568 63.0328 121.66 62.1788 121.489 61.845Z" fill="#F98104"/>
<path d="M112.599 61.6857L112.541 61.4885C111.771 61.3761 110.919 62.4753 110.361 62.9458C109.654 63.5429 108.883 64.1157 108.184 64.7392C107.455 65.3906 107.035 66.2371 107.815 67.0468C108.378 67.6296 109.43 68.223 110.224 68.0452C111.082 67.849 111.498 66.4339 111.747 65.6685C112.059 64.7086 112.342 63.6906 112.489 62.7006C112.535 62.392 112.629 61.9917 112.598 61.6857" fill="#FBA20A"/>
<path d="M116.339 66.2303C116.219 65.4259 115.735 64.4696 115.359 63.7544C115.148 63.3546 114.826 63.0091 114.572 62.6536C114.341 62.3329 114.185 61.9489 113.88 61.6799L113.673 61.6108C113.153 61.652 113.273 64.1078 113.264 64.5904C113.245 65.6749 113.152 66.7329 113.18 67.8073C113.211 69.0215 114.343 69.1428 115.215 68.7277C116.042 68.3321 116.479 67.1834 116.339 66.2297" fill="#FBA20A"/>
<path d="M118.919 62.1698C118.387 61.7615 117.691 61.6972 117.073 61.55C116.759 61.4762 116.444 61.3454 116.131 61.2251C115.985 61.1676 115.178 60.9556 115.175 60.9519L114.963 61.1428C114.721 61.156 115.36 62.1149 115.456 62.2631C115.713 62.6508 116.056 63.0121 116.364 63.3645C116.893 63.9684 117.424 64.6662 117.996 65.2111C118.291 65.4948 118.836 65.7665 119.242 65.6652C119.646 65.565 119.864 64.988 119.944 64.5971C120.119 63.7126 119.596 62.6862 118.919 62.1687" fill="#FBA20A"/>
<path d="M120.899 57.9418C120.302 57.0398 119.175 57.485 118.424 57.84C117.9 58.0863 117.379 58.3706 116.855 58.6132C116.372 58.839 115.73 59.0526 115.378 59.4772L115.285 59.8031C115.042 60.0806 116.079 60.4028 116.257 60.4477C116.71 60.5653 117.208 60.6333 117.685 60.6423C118.604 60.6571 119.702 60.8876 120.522 60.4034C121.306 59.9445 121.391 58.6812 120.899 57.9412" fill="#FBA20A"/>
<path d="M111.298 62.3735C110.887 62.7269 110.493 63.0708 110.092 63.4348C109.469 63.9981 108.366 64.8119 108.747 65.8378C109.202 67.0668 110.403 65.9592 110.872 65.3637C111.473 64.6015 111.95 63.5403 112.194 62.5967C112.243 62.4052 112.28 62.152 112.325 61.9774L112.33 61.681C112.074 61.5259 111.503 62.1979 111.298 62.3741" fill="#F7B304"/>
<path d="M115.233 64.1714C115.082 63.7774 114.886 63.4077 114.7 63.0358C114.545 62.732 114.339 62.1408 114.025 62.0115L113.758 61.8744C113.73 61.8623 113.73 61.8164 113.675 61.8449C113.477 62.2647 113.47 62.9045 113.465 63.3787C113.456 63.9246 113.444 64.4747 113.489 64.9969C113.525 65.4062 113.561 66.0929 113.762 66.449C113.991 66.8567 114.551 66.9342 114.899 66.6927C115.611 66.2006 115.507 64.8914 115.233 64.1709" fill="#F7B304"/>
<path d="M119.296 58.482C118.916 57.8844 117.976 58.3337 117.484 58.5036C117.097 58.6365 115.641 59.4493 115.641 59.4493C115.175 59.7826 116.565 60.1529 116.708 60.1635C117.192 60.1978 117.679 60.2341 118.17 60.1935C118.55 60.1603 119.057 60.1107 119.316 59.7626C119.589 59.3987 119.537 58.8612 119.295 58.482" fill="#F7B304"/>
<path d="M115.616 61.2896L115.318 61.2827C114.814 61.6509 116.324 62.8608 116.56 63.1541C116.93 63.604 118.159 64.7533 118.529 63.7148C119.115 62.0707 116.412 61.6562 115.616 61.2896Z" fill="#F7B304"/>
</g>
<defs>
<linearGradient id="paint0_linear_2695_3645" x1="8.95107" y1="23.2949" x2="28.3972" y2="23.6247" gradientUnits="userSpaceOnUse">
<stop stop-color="#EE5700"/>
<stop offset="1" stop-color="#FBB203"/>
</linearGradient>
<linearGradient id="paint1_linear_2695_3645" x1="59.9511" y1="7.2949" x2="79.3972" y2="7.62468" gradientUnits="userSpaceOnUse">
<stop stop-color="#EE5700"/>
<stop offset="1" stop-color="#FBB203"/>
</linearGradient>
<linearGradient id="paint2_linear_2695_3645" x1="113.951" y1="21.2949" x2="133.397" y2="21.6247" gradientUnits="userSpaceOnUse">
<stop stop-color="#EE5700"/>
<stop offset="1" stop-color="#FBB203"/>
</linearGradient>
<linearGradient id="paint3_linear_2695_3645" x1="103.951" y1="62.2949" x2="123.397" y2="62.6247" gradientUnits="userSpaceOnUse">
<stop stop-color="#EE5700"/>
<stop offset="1" stop-color="#FBB203"/>
</linearGradient>
<clipPath id="clip0_2695_3645">
<rect width="150" height="147" fill="white"/>
</clipPath>
<clipPath id="clip1_2695_3645">
<rect width="26" height="20" fill="white" transform="translate(11 40)"/>
</clipPath>
<clipPath id="clip2_2695_3645">
<rect width="26" height="20" fill="white" transform="translate(37 2)"/>
</clipPath>
<clipPath id="clip3_2695_3645">
<rect width="26" height="20" fill="white" transform="translate(96 4)"/>
</clipPath>
<clipPath id="clip4_2695_3645">
<rect width="26" height="20" fill="white" transform="translate(126 36)"/>
</clipPath>
</defs>
</svg>
