<svg width="150" height="147" viewBox="0 0 150 147" fill="none" xmlns="http://www.w3.org/2000/svg">
<g clip-path="url(#clip0_2695_3104)">
<path d="M3.05371 43.4795V106.428C3.05371 115.954 9.01128 124.695 18.9385 131.575V68.6296C9.01128 61.7506 3.05371 53.0008 3.05371 43.4795Z" fill="#7E684F"/>
<path d="M18.9385 68.6294V131.575L74.995 106.426V43.478L18.9385 68.6294Z" fill="#7E684F"/>
<path d="M57.207 114.41L74.9974 106.427V43.478L57.207 51.4592V114.41Z" fill="#7E684F"/>
<path d="M74.9951 43.4795V106.428L101.804 143.684V80.7323L74.9951 43.4795Z" fill="#7E684F"/>
<path d="M101.804 80.7321V143.684C128.256 137.75 146.945 123.309 146.945 106.427V43.478C146.946 60.3638 128.256 74.8032 101.804 80.7321Z" fill="#7E684F"/>
<path d="M3.05371 81.1213V92.3256C3.05371 101.852 9.01128 110.595 18.9385 117.477V106.271C9.01128 99.3898 3.05371 90.6492 3.05371 81.1213Z" fill="#EFE9E3"/>
<path d="M18.9385 106.271V117.477L74.995 92.3268V81.1199L18.9385 106.271Z" fill="#EFE9E3"/>
<path d="M74.9951 81.1213V92.3256L101.804 129.586V118.381L74.9951 81.1213Z" fill="#EFE9E3"/>
<path d="M101.804 118.381V129.585C128.256 123.649 146.945 109.21 146.945 92.3268V81.1199C146.946 98.007 128.256 112.445 101.804 118.381Z" fill="#EFE9E3"/>
<path d="M74.9951 43.4795V72.6532L101.804 109.911V80.7323L74.9951 43.4795Z" fill="#7E684F"/>
<path d="M3.05371 43.4795V72.6532C3.05371 82.1811 9.01128 90.9217 18.9385 97.8033V68.6309C9.01128 61.7506 3.05371 53.0008 3.05371 43.4795Z" fill="#7E684F"/>
<path d="M18.9385 68.6294V97.8032L74.995 72.6531V43.478L18.9385 68.6294Z" fill="#7E684F"/>
<path d="M101.804 80.7322V109.913C128.256 103.974 146.945 89.5364 146.945 72.6519V43.4768C146.946 60.3639 128.256 74.8033 101.804 80.7322Z" fill="#7E684F"/>
<path d="M57.207 80.6369L74.9974 72.6531V43.478L57.207 51.4592V80.6369Z" fill="#7E684F"/>
<path d="M74.9951 3.33301C35.2638 3.33301 3.05371 21.3064 3.05371 43.4782C3.05371 52.9981 9.00879 61.748 18.9385 68.6269L74.9951 43.4782L101.804 80.731C128.255 74.8007 146.945 60.3626 146.945 43.4782C146.946 21.3064 114.729 3.33301 74.9951 3.33301Z" fill="#5A4225"/>
<path d="M118.461 11.4861C129.739 18.5728 136.601 27.9062 136.601 38.126C136.601 53.8197 120.462 67.3818 96.9534 73.9869L101.807 80.7309C128.256 74.8019 146.946 60.3626 146.946 43.4781C146.946 30.4188 135.761 18.8189 118.461 11.4861Z" fill="#5A4225"/>
<path d="M70.0882 45.6799L18.9372 68.6296C16.0146 66.6053 13.4826 64.3983 11.2937 62.0762L64.6548 38.1275C64.6548 38.1275 72.4817 34.9057 77.3973 41.5861L70.0882 45.6799Z" fill="#5A4225"/>
<path d="M101.804 83.9395C100.873 83.9395 99.9746 83.4817 99.3993 82.6799L74.0191 47.4039L20.1202 71.5868C19.1967 72.0036 18.1322 71.9017 17.2837 71.3168C6.15721 63.603 0.0236816 53.7139 0.0236816 43.4781C0.0236816 19.1629 32.9563 0.123047 74.9937 0.123047C117.04 0.123047 149.974 19.1629 149.974 43.4781C149.974 61.5402 131.309 77.3953 102.431 83.8707C102.222 83.9223 102.01 83.9395 101.804 83.9395ZM74.995 40.2735C75.9184 40.2735 76.8169 40.7168 77.406 41.5331L103.038 77.1585C127.571 71.1898 143.918 57.7944 143.918 43.4795C143.918 23.4578 112.356 6.54156 74.995 6.54156C37.6397 6.54156 6.07734 23.4565 6.07734 43.4795C6.07734 51.0901 10.7508 58.6836 19.2753 64.9949L73.8169 40.5209C74.2013 40.3529 74.6019 40.2735 74.995 40.2735Z" fill="#393732"/>
<path d="M3.04858 59.7078V70.912C3.04858 80.4386 9.00615 89.1819 18.9334 96.0635V84.8579C9.00615 77.9762 3.04858 69.2356 3.04858 59.7078Z" fill="#EFE9E3"/>
<path d="M18.9333 84.8577V96.0633L74.9912 70.9132V59.7063L18.9333 84.8577Z" fill="#EFE9E3"/>
<path d="M101.8 96.967V108.171C128.252 102.236 146.941 87.7964 146.941 70.9132V59.7063C146.941 76.5934 128.251 91.0315 101.8 96.967Z" fill="#EFE9E3"/>
<path d="M101.804 146.893C100.873 146.893 99.9746 146.435 99.3993 145.627L74.0191 110.349L20.1202 134.534C19.1967 134.949 18.1323 134.848 17.2837 134.265C6.15721 126.548 0.0236816 116.666 0.0236816 106.428V43.4782C0.0236816 41.7065 1.37892 40.2723 3.05238 40.2723C4.72335 40.2723 6.07609 41.7065 6.07609 43.4782C6.07609 51.0875 10.7496 58.6823 19.2741 64.9937L73.8157 40.5197C75.0861 39.9507 76.5686 40.3649 77.4035 41.5319L103.036 77.1572C127.569 71.1886 143.915 57.7945 143.915 43.4782C143.915 41.7065 145.273 40.2723 146.944 40.2723C148.615 40.2723 149.973 41.7065 149.973 43.4782V106.428C149.973 124.48 131.307 140.346 102.429 146.823C102.222 146.866 102.01 146.893 101.804 146.893ZM74.995 103.216C75.9184 103.216 76.8169 103.662 77.406 104.476L103.038 140.107C127.571 134.131 143.918 120.735 143.918 106.428V60.7332C136.212 71.1753 121.566 79.5799 102.432 83.8721C101.274 84.1328 100.109 83.6657 99.4006 82.6813L74.0204 47.4053L20.1214 71.5868C19.198 72.0036 18.1335 71.9017 17.2849 71.3182C12.6564 68.1083 8.89265 64.5239 6.07859 60.7014V106.428C6.07859 114.041 10.752 121.636 19.2766 127.943L73.8182 103.466C74.2013 103.3 74.6019 103.216 74.995 103.216Z" fill="#393732"/>
<path d="M74.9912 59.7078V70.912L101.8 108.173V96.9685L74.9912 59.7078Z" fill="#EFE9E3"/>
<g clip-path="url(#clip1_2695_3104)">
<path d="M12.7875 43.8198C14.2666 43.9329 16.1069 44.5738 16.0443 45.2001C15.9846 45.8236 14.0475 46.1861 12.5656 46.0759C11.0894 45.9657 10 44.7478 10 44.7478C10 44.7478 11.3084 43.7125 12.7875 43.8198Z" fill="#849B0E"/>
<path d="M12.2102 45.8382C13.3536 45.4844 14.9237 45.4177 15.0517 45.8933C15.1826 46.3659 13.8229 47.2069 12.6795 47.5577C11.5332 47.9115 10.3699 47.3374 10.3699 47.3374C10.3699 47.3374 11.0639 46.1919 12.2102 45.8382Z" fill="#7A8E0E"/>
<path d="M15.1456 40.9955C15.4897 42.4657 16.4085 44.2143 17.0001 44.0548C17.5917 43.8953 17.6344 41.8857 17.2931 40.4155C16.9489 38.9453 15.5978 38.0435 15.5978 38.0435C15.5978 38.0435 14.8042 39.5253 15.1456 40.9955Z" fill="#7A8E0E"/>
<path d="M17.0057 40.0908C16.8464 41.3029 17.0341 42.8891 17.5148 42.9442C17.9955 42.9993 18.59 41.5001 18.7465 40.288C18.9057 39.0787 18.1634 38 18.1634 38C18.1634 38 17.165 38.8786 17.0057 40.0908Z" fill="#849B0E"/>
<path d="M17.4436 42.5789C17.1791 42.8921 16.7752 43.0893 16.2945 43.0835C15.8166 43.0806 15.3445 42.8805 14.9804 42.5615L13.2283 41.042L12.5115 41.9003L14.2636 43.4227C14.6305 43.7388 14.9007 44.1796 14.9804 44.661C15.06 45.1452 14.9377 45.5831 14.6732 45.8992L14.2949 46.3515L15.1539 47.0185L18.607 42.8834L17.8248 42.1265L17.4465 42.5789H17.4436Z" fill="#A1B728"/>
<path d="M23.1068 39.334C21.1527 39.1049 19.1787 39.6327 17.8987 41.7815C17.4778 42.489 16.5647 44.0404 16.1864 44.4928C15.8081 44.948 14.4513 46.1138 13.837 46.6531C11.9625 48.2828 11.7179 50.2257 12.2982 52.2846C12.978 54.6885 14.8524 56.2312 17.0028 56.9475C20.0775 57.9711 21.7785 57.5506 24.6228 57.829C26.0678 57.9682 28.1811 58.5192 29.9987 56.4748C31.6882 54.3202 30.8179 52.2788 30.4481 50.8521C29.7256 48.0363 29.8622 46.253 28.3774 43.3242C27.3392 41.2769 25.5472 39.6211 23.1096 39.3398L23.1068 39.334Z" fill="#FB1803"/>
<path d="M22.0118 40.3372C20.3393 40.0994 18.6725 40.4967 17.6286 42.2801C17.2844 42.8658 16.542 44.1533 16.232 44.5303C15.9191 44.9015 14.7899 45.8555 14.2779 46.2963C12.7164 47.6302 12.5542 49.2628 13.0947 51.0172C13.729 53.0645 15.3616 54.4129 17.2133 55.0711C19.8586 56.0107 21.3007 55.6917 23.7298 55.9962C24.9642 56.1499 26.7789 56.666 28.2808 54.9812C29.6717 53.2036 28.8838 51.458 28.5339 50.24C27.8513 47.8448 27.9281 46.3456 26.5941 43.8315C25.6611 42.0742 24.0967 40.633 22.0118 40.3372Z" fill="#FF400F"/>
<path d="M29.1654 45.7599C29.1654 45.7599 26.0024 47.465 25.0297 46.9923C24.5404 46.7574 24.5888 45.9977 24.3243 45.5569C25.3852 44.4927 26.1475 43.1762 26.9325 41.8858C26.9325 41.8858 24.7907 44.8001 23.7326 44.7363C23.6388 44.7305 23.0841 44.1128 22.8509 43.933C23.5421 42.8137 23.9858 41.5233 24.4579 40.2503C24.4579 40.2503 23.0642 43.2313 22.1056 43.4314C21.7131 43.5125 21.4088 43.0602 21.0589 42.9326C21.3661 41.9785 21.4258 40.9346 21.5112 39.8965C21.5112 39.8965 21.0703 42.3845 20.4047 42.7354C19.3836 43.2777 18.2032 42.5237 17.3043 42.7789C16.8919 43.4575 16.4311 44.1969 16.1922 44.4869C15.9334 44.7972 15.2194 45.4409 14.5965 45.9861C14.5112 46.914 15.4498 47.9551 15.1028 49.0541C14.8809 49.7674 12.5884 50.5881 12.5884 50.5881C13.5128 50.3677 14.4116 50.2749 15.4072 49.6601C15.5949 49.9994 16.0983 50.2285 16.0841 50.6432C16.0557 51.632 13.4019 53.4937 13.4019 53.4937C14.6107 52.8499 15.7911 52.1801 16.7013 51.2927C16.9204 51.4957 17.6229 51.9307 17.6428 52.0235C17.8903 53.0848 15.3844 55.7237 15.3844 55.7237C16.4965 54.7174 17.64 53.7402 18.5587 52.4759C19.0167 52.6586 19.7306 52.4904 20.0293 52.934C20.6522 53.8475 19.4888 57.3505 19.4888 57.3505C20.0748 56.0107 20.7972 54.7609 20.9992 53.1457C21.8013 53.3081 23.4141 53.5952 23.4539 53.6329C24.2361 54.3259 24.9017 57.5911 24.9017 57.5911C24.8106 56.3384 24.8306 55.0596 24.4267 53.8794C25.7777 54.2535 26.6453 54.5579 27.1317 53.9751C27.618 53.3893 27.1516 52.6035 26.5855 51.284C27.8086 51.3884 29.0345 51.2927 30.2633 51.1652C30.2633 51.1652 27.0008 51.0289 26.2158 50.3474C25.6298 49.8399 25.5274 48.7467 25.3852 47.9232C26.7306 47.4534 27.9366 46.5805 29.1682 45.7628L29.1654 45.7599Z" fill="#FFB78E"/>
<path d="M15.2195 45.4351C15.5949 46.8705 16.6815 48.883 18.6498 50.3938C20.0947 51.5044 21.8156 51.4232 23.3828 52.1859C25.0781 53.0152 26.5202 54.0794 26.8217 53.717C27.1118 53.369 25.9058 52.1743 24.9074 50.678C23.9062 49.1788 23.636 47.3751 22.2934 46.0267C20.5185 44.2375 18.3767 43.527 16.9062 43.4255C16.6218 43.8837 16.3515 44.2955 16.1866 44.4956C16.0131 44.7044 15.6376 45.0581 15.2195 45.4351Z" fill="#FF6D4F"/>
</g>
<g clip-path="url(#clip2_2695_3104)">
<path d="M123.512 19.8807C124.72 24.2092 121.555 28.9001 121.555 28.9001C121.555 28.9001 116.438 26.5796 115.233 22.2542C114.346 18.0631 115.378 15.2836 117.402 14C119.602 14.1936 122.073 16.0019 123.512 19.8807Z" fill="#689524"/>
<path d="M117.35 14.0343C115.363 15.3304 114.352 18.0974 115.23 22.2542C116.358 26.2954 120.896 28.5846 121.487 28.8688L117.35 14.0343Z" fill="#517D0C"/>
<path d="M121.355 28.8064C121.481 28.8688 121.555 28.9032 121.555 28.9032C121.555 28.9032 121.601 28.8345 121.678 28.7127L117.581 14.025C117.522 14.0156 117.461 14.0062 117.402 14C117.35 14.0312 117.303 14.0687 117.254 14.1031L121.355 28.8064Z" fill="#80B92D"/>
<path d="M131.438 27.1013C127.612 30.1931 121.549 28.9345 121.549 28.9345C121.549 28.9345 121.694 22.6666 125.523 19.5747C129.353 16.8733 132.581 16.7515 134.735 18.2912C135.481 20.6428 134.72 23.9657 131.435 27.1044L131.438 27.1013Z" fill="#689524"/>
<path d="M134.683 18.2504C132.529 16.7514 129.322 16.8919 125.523 19.5715C121.947 22.4572 121.583 28.1161 121.552 28.85L134.683 18.2504Z" fill="#517D0C"/>
<path d="M121.561 28.6815C121.552 28.8376 121.549 28.9313 121.549 28.9313C121.549 28.9313 121.638 28.95 121.792 28.975L134.79 18.4816C134.772 18.4191 134.76 18.3504 134.738 18.2879C134.686 18.2473 134.63 18.2161 134.572 18.1818L121.561 28.6846V28.6815Z" fill="#80B92D"/>
<path d="M121.817 27.7695C121.817 24.7433 119.395 22.2886 116.41 22.2886C113.425 22.2886 111 24.7433 111 27.7695C111 30.7958 113.422 33.2505 116.407 33.2505C119.392 33.2505 121.814 30.7958 121.814 27.7695H121.817Z" fill="url(#paint0_linear_2695_3104)"/>
<path d="M115.301 27.6102C115.643 27.3042 116.296 27.0012 116.752 26.9388L117.676 26.8138C118.132 26.7514 118.357 26.4047 118.181 26.0424L117.818 25.3023C117.639 24.9431 117.599 24.306 117.722 23.8938L117.978 23.0568C118.104 22.6446 117.839 22.376 117.387 22.4603L116.462 22.6352C116.009 22.7164 115.332 22.629 114.953 22.4322L114.189 22.0387C113.813 21.8451 113.418 22.0293 113.317 22.4416L113.11 23.2848C113.006 23.7002 112.63 24.2779 112.272 24.5715L111.539 25.1649C111.182 25.4584 111.206 25.8363 111.595 26.0081L112.386 26.3579C112.778 26.5296 113.221 26.9794 113.375 27.3541L113.689 28.113C113.844 28.4878 114.25 28.5409 114.595 28.2317L115.295 27.604L115.301 27.6102Z" fill="#233259"/>
<path d="M117.014 24.0592C116.576 23.0911 115.319 22.7257 114.207 23.2379C113.095 23.7532 112.547 24.9556 112.984 25.9268C113.422 26.895 114.679 27.2604 115.791 26.7451C116.903 26.2298 117.451 25.0274 117.017 24.0592H117.014Z" fill="#3E2F4D"/>
<path d="M116.783 24.1624C116.398 23.3036 115.282 22.9819 114.296 23.4379C113.311 23.8938 112.827 24.9619 113.212 25.8176C113.6 26.6765 114.712 27.0013 115.695 26.5453C116.681 26.0862 117.168 25.0212 116.78 24.1624H116.783Z" fill="#46537A"/>
<path d="M115.436 24.7869C115.341 24.5777 115.067 24.4965 114.823 24.6089C114.58 24.7214 114.463 24.9806 114.555 25.1929C114.651 25.4022 114.925 25.4834 115.168 25.3709C115.412 25.2585 115.532 24.9993 115.433 24.7869H115.436Z" fill="#3E2F4D"/>
<g opacity="0.5">
<path d="M113.603 25.3367C113.249 25.1805 113.261 24.8869 113.36 24.5621C113.523 24.0281 113.967 23.7626 114.321 23.9188C114.675 24.0781 114.435 24.3279 114.158 24.6683C113.942 24.9369 113.955 25.4928 113.603 25.3367Z" fill="#EFE9E3"/>
</g>
<path d="M131.771 31.233C131.771 28.2037 129.35 25.7521 126.364 25.7521C123.379 25.7521 120.954 28.2037 120.954 31.233C120.954 34.2624 123.376 36.714 126.364 36.714C129.353 36.714 131.771 34.2624 131.771 31.233Z" fill="url(#paint1_linear_2695_3104)"/>
<g opacity="0.5">
<path d="M122.541 29.0407C122.181 28.8002 122.165 28.3411 122.446 27.9039C122.729 27.4667 123.207 27.2168 123.564 27.4573C123.921 27.6946 123.666 28.0663 123.382 28.5004C123.099 28.9376 122.898 29.278 122.541 29.0407Z" fill="#EFE9E3"/>
</g>
<path d="M126.324 32.7134C126.749 32.5572 127.446 32.5572 127.871 32.7134L128.737 33.0226C129.162 33.1787 129.498 32.9289 129.485 32.4729L129.461 31.5454C129.448 31.0863 129.664 30.4148 129.938 30.0557L130.499 29.3186C130.773 28.9564 130.644 28.5535 130.212 28.4254L129.331 28.1631C128.897 28.0351 128.336 27.6197 128.08 27.2418L127.563 26.4767C127.307 26.0988 126.891 26.0988 126.635 26.4767L126.118 27.2418C125.862 27.6197 125.301 28.0351 124.867 28.1631L123.986 28.4254C123.555 28.5566 123.425 28.9595 123.699 29.3186L124.26 30.0557C124.534 30.4179 124.75 31.0894 124.735 31.5454L124.71 32.4729C124.698 32.9289 125.033 33.1787 125.462 33.0226L126.327 32.7134H126.324Z" fill="#1C2847"/>
<path d="M129.245 29.8776C129.245 28.6752 128.284 27.7008 127.098 27.7008C125.911 27.7008 124.95 28.6752 124.95 29.8776C124.95 31.0799 125.911 32.0543 127.098 32.0543C128.284 32.0543 129.245 31.0799 129.245 29.8776Z" fill="#3A2C47"/>
<path d="M128.999 29.8776C128.999 28.8126 128.148 27.9507 127.098 27.9507C126.047 27.9507 125.197 28.8126 125.197 29.8776C125.197 30.9426 126.047 31.8076 127.098 31.8076C128.148 31.8076 128.999 30.9457 128.999 29.8776Z" fill="#303D60"/>
<path d="M127.566 29.8777C127.566 29.6153 127.356 29.403 127.098 29.403C126.839 29.403 126.629 29.6153 126.629 29.8777C126.629 30.14 126.839 30.3524 127.098 30.3524C127.356 30.3524 127.566 30.14 127.566 29.8777Z" fill="#3A2C47"/>
<path d="M123.588 33.519C123.588 30.4928 121.167 28.0381 118.178 28.0381C115.19 28.0381 112.771 30.4928 112.771 33.519C112.771 36.5453 115.193 39 118.178 39C121.164 39 123.588 36.5453 123.588 33.519Z" fill="url(#paint2_linear_2695_3104)"/>
<path d="M115.741 35.8832C116.185 35.8082 116.866 35.9332 117.254 36.1611L118.046 36.6265C118.434 36.8545 118.81 36.6702 118.878 36.2174L119.016 35.2992C119.084 34.8463 119.414 34.2248 119.747 33.9188L120.424 33.2942C120.757 32.9881 120.702 32.5696 120.301 32.3635L119.485 31.9481C119.084 31.742 118.607 31.233 118.422 30.8145L118.052 29.965C117.87 29.5496 117.461 29.4716 117.146 29.7995L116.502 30.4585C116.185 30.7864 115.563 31.0893 115.116 31.1393L114.207 31.2392C113.76 31.2892 113.563 31.6608 113.77 32.0668L114.189 32.8944C114.392 33.3004 114.484 33.9969 114.392 34.4466L114.204 35.3554C114.112 35.802 114.398 36.108 114.842 36.0331L115.745 35.8832H115.741Z" fill="#1C2847"/>
<path d="M119.103 33.6253C119.315 32.4448 118.545 31.3143 117.387 31.0988C116.225 30.8833 115.113 31.6703 114.9 32.8508C114.688 34.0313 115.455 35.1681 116.616 35.3805C117.778 35.596 118.89 34.8121 119.103 33.6253Z" fill="#3A2C47"/>
<path d="M118.862 33.5816C119.05 32.5322 118.369 31.5328 117.34 31.3423C116.315 31.155 115.329 31.8483 115.138 32.8945C114.95 33.9438 115.631 34.9463 116.657 35.1368C117.686 35.3242 118.671 34.6309 118.859 33.5816H118.862Z" fill="#394870"/>
<path d="M117.457 33.3222C117.504 33.063 117.337 32.8194 117.085 32.7726C116.832 32.7226 116.589 32.8944 116.542 33.1536C116.496 33.4097 116.663 33.6564 116.915 33.7064C117.168 33.7532 117.411 33.5814 117.457 33.3222Z" fill="#3A2C47"/>
<g opacity="0.7">
<path d="M114.602 30.4491C114.392 30.218 114.472 29.8339 114.737 29.5465C115.175 29.0718 115.812 28.9376 116.022 29.1687C116.231 29.4029 115.957 29.9619 115.532 30.2274C115.202 30.4335 114.811 30.6802 114.602 30.4491Z" fill="#EFE9E3"/>
</g>
</g>
<g clip-path="url(#clip3_2695_3104)">
<path d="M39.5118 16.8807C40.7195 21.2092 37.5554 25.9001 37.5554 25.9001C37.5554 25.9001 32.4381 23.5796 31.2335 19.2542C30.3462 15.0631 31.3783 12.2836 33.4024 11C35.6022 11.1936 38.073 13.0019 39.5118 16.8807Z" fill="#689524"/>
<path d="M33.3497 11.0343C31.3626 12.3304 30.352 15.0974 31.2301 19.2542C32.3577 23.2954 36.8958 25.5846 37.4873 25.8688L33.3497 11.0343Z" fill="#517D0C"/>
<path d="M37.3548 25.8064C37.4811 25.8688 37.555 25.9032 37.555 25.9032C37.555 25.9032 37.6013 25.8345 37.6783 25.7127L33.5807 11.025C33.5222 11.0156 33.4606 11.0062 33.402 11C33.3497 11.0312 33.3034 11.0687 33.2542 11.1031L37.3548 25.8064Z" fill="#80B92D"/>
<path d="M47.4384 24.1013C43.612 27.1931 37.5488 25.9345 37.5488 25.9345C37.5488 25.9345 37.6936 19.6666 41.5232 16.5747C45.3527 13.8733 48.5814 13.7515 50.735 15.2912C51.4805 17.6428 50.7196 20.9657 47.4353 24.1044L47.4384 24.1013Z" fill="#689524"/>
<path d="M50.6829 15.2504C48.5294 13.7514 45.3222 13.8919 41.5235 16.5715C37.9466 19.4572 37.5831 25.1161 37.5522 25.85L50.6829 15.2504Z" fill="#517D0C"/>
<path d="M37.5612 25.6815C37.5519 25.8376 37.5488 25.9313 37.5488 25.9313C37.5488 25.9313 37.6382 25.95 37.7922 25.975L50.7904 15.4816C50.7719 15.4191 50.7596 15.3504 50.738 15.2879C50.6857 15.2473 50.6302 15.2161 50.5717 15.1818L37.5612 25.6846V25.6815Z" fill="#80B92D"/>
<path d="M37.8169 24.7695C37.8169 21.7433 35.3954 19.2886 32.41 19.2886C29.4246 19.2886 27 21.7433 27 24.7695C27 27.7958 29.4216 30.2505 32.4069 30.2505C35.3923 30.2505 37.8139 27.7958 37.8139 24.7695H37.8169Z" fill="url(#paint3_linear_2695_3104)"/>
<path d="M31.3008 24.6102C31.6428 24.3042 32.2959 24.0012 32.7519 23.9388L33.6761 23.8138C34.1321 23.7514 34.357 23.4047 34.1814 23.0424L33.8179 22.3023C33.6392 21.9431 33.5991 21.306 33.7224 20.8938L33.9781 20.0568C34.1044 19.6446 33.8394 19.376 33.3865 19.4603L32.4623 19.6352C32.0094 19.7164 31.3316 19.629 30.9527 19.4322L30.1886 19.0387C29.8127 18.8451 29.4184 19.0293 29.3167 19.4416L29.1103 20.2848C29.0055 20.7002 28.6297 21.2779 28.2723 21.5715L27.539 22.1649C27.1817 22.4584 27.2063 22.8363 27.5945 23.0081L28.3863 23.3579C28.7776 23.5296 29.2212 23.9794 29.3752 24.3541L29.6895 25.113C29.8435 25.4878 30.2502 25.5409 30.5953 25.2317L31.2946 24.604L31.3008 24.6102Z" fill="#233259"/>
<path d="M33.0139 21.0592C32.5764 20.0911 31.3194 19.7257 30.2072 20.2379C29.095 20.7532 28.5466 21.9556 28.9841 22.9268C29.4216 23.895 30.6786 24.2604 31.7907 23.7451C32.9029 23.2298 33.4513 22.0274 33.0169 21.0592H33.0139Z" fill="#3E2F4D"/>
<path d="M32.7827 21.1624C32.3975 20.3036 31.2823 19.9819 30.2964 20.4379C29.3105 20.8938 28.8268 21.9619 29.2119 22.8176C29.6001 23.6765 30.7123 24.0013 31.6951 23.5453C32.681 23.0862 33.1678 22.0212 32.7796 21.1624H32.7827Z" fill="#46537A"/>
<path d="M31.4364 21.7869C31.3408 21.5777 31.0666 21.4965 30.8233 21.6089C30.5799 21.7214 30.4628 21.9806 30.5552 22.1929C30.6507 22.4022 30.9249 22.4834 31.1683 22.3709C31.4117 22.2585 31.5319 21.9993 31.4333 21.7869H31.4364Z" fill="#3E2F4D"/>
<g opacity="0.5">
<path d="M29.6033 22.3367C29.249 22.1805 29.2613 21.8869 29.3599 21.5621C29.5232 21.0281 29.9668 20.7626 30.3211 20.9188C30.6754 21.0781 30.4351 21.3279 30.1578 21.6683C29.9422 21.9369 29.9545 22.4928 29.6033 22.3367Z" fill="#EFE9E3"/>
</g>
<path d="M47.7713 28.233C47.7713 25.2037 45.3497 22.7521 42.3644 22.7521C39.379 22.7521 36.9543 25.2037 36.9543 28.233C36.9543 31.2624 39.3759 33.714 42.3644 33.714C45.3528 33.714 47.7713 31.2624 47.7713 28.233Z" fill="url(#paint4_linear_2695_3104)"/>
<g opacity="0.5">
<path d="M38.5411 26.0407C38.1806 25.8002 38.1652 25.3411 38.4456 24.9039C38.729 24.4667 39.2066 24.2168 39.5639 24.4573C39.9213 24.6946 39.6656 25.0663 39.3822 25.5004C39.0987 25.9376 38.8985 26.278 38.5411 26.0407Z" fill="#EFE9E3"/>
</g>
<path d="M42.3243 29.7134C42.7495 29.5572 43.4457 29.5572 43.8709 29.7134L44.7366 30.0226C45.1618 30.1787 45.4976 29.9289 45.4853 29.4729L45.4606 28.5454C45.4483 28.0863 45.664 27.4148 45.9382 27.0557L46.4989 26.3186C46.7731 25.9564 46.6437 25.5535 46.2124 25.4254L45.3312 25.1631C44.8968 25.0351 44.3361 24.6197 44.0804 24.2418L43.5628 23.4767C43.3071 23.0988 42.8912 23.0988 42.6355 23.4767L42.1179 24.2418C41.8622 24.6197 41.3015 25.0351 40.8671 25.1631L39.9859 25.4254C39.5546 25.5566 39.4252 25.9595 39.6994 26.3186L40.2601 27.0557C40.5343 27.4179 40.75 28.0894 40.7346 28.5454L40.7099 29.4729C40.6976 29.9289 41.0334 30.1787 41.4617 30.0226L42.3274 29.7134H42.3243Z" fill="#1C2847"/>
<path d="M45.2449 26.8776C45.2449 25.6752 44.2837 24.7008 43.0976 24.7008C41.9114 24.7008 40.9502 25.6752 40.9502 26.8776C40.9502 28.0799 41.9114 29.0543 43.0976 29.0543C44.2837 29.0543 45.2449 28.0799 45.2449 26.8776Z" fill="#3A2C47"/>
<path d="M44.9986 26.8776C44.9986 25.8126 44.1483 24.9507 43.0977 24.9507C42.0471 24.9507 41.1968 25.8126 41.1968 26.8776C41.1968 27.9426 42.0471 28.8076 43.0977 28.8076C44.1483 28.8076 44.9986 27.9457 44.9986 26.8776Z" fill="#303D60"/>
<path d="M43.566 26.8777C43.566 26.6153 43.3565 26.403 43.0977 26.403C42.8389 26.403 42.6294 26.6153 42.6294 26.8777C42.6294 27.14 42.8389 27.3524 43.0977 27.3524C43.3565 27.3524 43.566 27.14 43.566 26.8777Z" fill="#3A2C47"/>
<path d="M39.5884 30.519C39.5884 27.4928 37.1669 25.0381 34.1784 25.0381C31.19 25.0381 28.7715 27.4928 28.7715 30.519C28.7715 33.5453 31.1931 36 34.1784 36C37.1638 36 39.5884 33.5453 39.5884 30.519Z" fill="url(#paint5_linear_2695_3104)"/>
<path d="M31.7415 32.8832C32.1851 32.8082 32.866 32.9332 33.2542 33.1611L34.046 33.6265C34.4342 33.8545 34.81 33.6702 34.8778 33.2174L35.0164 32.2992C35.0842 31.8463 35.4139 31.2248 35.7466 30.9188L36.4244 30.2942C36.7571 29.9881 36.7017 29.5696 36.3012 29.3635L35.4847 28.9481C35.0842 28.742 34.6067 28.233 34.4218 27.8145L34.0521 26.965C33.8704 26.5496 33.4606 26.4716 33.1463 26.7995L32.5024 27.4585C32.1851 27.7864 31.5628 28.0893 31.1161 28.1393L30.2072 28.2392C29.7605 28.2892 29.5633 28.6608 29.7697 29.0668L30.1887 29.8944C30.392 30.3004 30.4845 30.9969 30.392 31.4466L30.2041 32.3554C30.1117 32.802 30.3982 33.108 30.8419 33.0331L31.7445 32.8832H31.7415Z" fill="#1C2847"/>
<path d="M35.1027 30.6252C35.3153 29.4447 34.545 28.3141 33.3866 28.0986C32.2251 27.8832 31.113 28.6702 30.9004 29.8507C30.6878 31.0312 31.4549 32.168 32.6164 32.3803C33.7779 32.5958 34.8901 31.812 35.1027 30.6252Z" fill="#3A2C47"/>
<path d="M34.8624 30.5814C35.0503 29.5321 34.3695 28.5327 33.3405 28.3422C32.3145 28.1548 31.3286 28.8481 31.1376 29.8944C30.9497 30.9437 31.6306 31.9462 32.6565 32.1367C33.6855 32.3241 34.6714 31.6308 34.8593 30.5814H34.8624Z" fill="#394870"/>
<path d="M33.4574 30.3223C33.5036 30.0631 33.3372 29.8195 33.0846 29.7727C32.832 29.7227 32.5886 29.8945 32.5424 30.1537C32.4962 30.4098 32.6625 30.6565 32.9152 30.7065C33.1678 30.7533 33.4112 30.5816 33.4574 30.3223Z" fill="#3A2C47"/>
<g opacity="0.7">
<path d="M30.6016 27.4491C30.3921 27.218 30.4722 26.8339 30.7372 26.5465C31.1746 26.0718 31.8124 25.9376 32.0219 26.1687C32.2314 26.4029 31.9572 26.9619 31.532 27.2274C31.2024 27.4335 30.8111 27.6802 30.6016 27.4491Z" fill="#EFE9E3"/>
</g>
</g>
<path d="M72.9754 25.1176C74.2076 25.7603 75.541 26.2007 77.0454 26.3871C78.6895 26.5934 81.2517 27.0933 83.2728 26.8751C83.9639 26.4744 84.6655 25.9706 85.3741 25.3398C87.5767 23.3839 88.1108 20.1902 87.3114 18.1629C86.3096 15.6159 85.2485 15.366 84.5957 14.3543C83.943 13.3387 84.0512 12.1168 82.2186 10.264C80.756 8.78423 77.9216 8.40734 75.6143 10.2045C69.9839 14.5884 70.2561 20.825 72.4762 24.4471C72.6298 24.6772 72.7973 24.8994 72.9754 25.1136V25.1176Z" fill="url(#paint6_linear_2695_3104)"/>
<path d="M79.426 13.5608C78.7384 13.8544 78.11 13.9813 77.5934 13.1799C77.0768 12.3746 77.2444 11.3709 77.8622 10.9979C78.686 10.4981 79.4923 10.8392 79.9217 11.7041C80.3964 12.6602 80.0857 13.2791 79.426 13.5608Z" fill="#EFE9E3"/>
<path d="M85.5206 16.5204C85.196 16.7942 84.2291 16.3181 83.5693 15.3025C82.9096 14.2789 82.8049 13.0927 83.133 12.8229C83.4611 12.5492 83.8311 13.5132 84.4909 14.5368C85.1471 15.5603 85.8487 16.2506 85.5206 16.5244V16.5204Z" fill="#AC0D12"/>
<path d="M82.6748 10.869C84.0745 8.3894 85.1462 5.73924 86.2213 3.06528C87.3872 0.20089 89.0731 -3.68706 91 -4.9804L90.3437 -6C88.0748 -3.53234 86.902 -0.414042 85.5267 2.89072C83.8686 6.86595 82.1023 11.0435 78.9538 13.7056C78.6815 13.9317 78.4022 14.1499 78.1021 14.3522C78.1963 14.6855 78.3534 15.0346 78.5698 15.3679C78.7897 15.7091 79.048 15.9868 79.2959 16.205C79.9905 15.5781 81.8161 12.3607 82.6748 10.8729V10.869Z" fill="#8CA332"/>
<g clip-path="url(#clip4_2695_3104)">
<path d="M105.787 53.8198C107.267 53.9329 109.107 54.5738 109.044 55.2001C108.985 55.8236 107.048 56.1861 105.566 56.0759C104.089 55.9657 103 54.7478 103 54.7478C103 54.7478 104.308 53.7125 105.787 53.8198Z" fill="#849B0E"/>
<path d="M105.21 55.8382C106.354 55.4844 107.924 55.4177 108.052 55.8933C108.183 56.3659 106.823 57.2069 105.68 57.5577C104.533 57.9115 103.37 57.3374 103.37 57.3374C103.37 57.3374 104.064 56.1919 105.21 55.8382Z" fill="#7A8E0E"/>
<path d="M108.146 50.9955C108.49 52.4657 109.408 54.2143 110 54.0548C110.592 53.8953 110.634 51.8857 110.293 50.4155C109.949 48.9453 108.598 48.0435 108.598 48.0435C108.598 48.0435 107.804 49.5253 108.146 50.9955Z" fill="#7A8E0E"/>
<path d="M110.006 50.0908C109.846 51.3029 110.034 52.8891 110.515 52.9442C110.996 52.9993 111.59 51.5001 111.746 50.288C111.906 49.0787 111.163 48 111.163 48C111.163 48 110.165 48.8786 110.006 50.0908Z" fill="#849B0E"/>
<path d="M110.444 52.5789C110.179 52.8921 109.775 53.0893 109.294 53.0835C108.817 53.0806 108.344 52.8805 107.98 52.5615L106.228 51.042L105.511 51.9003L107.264 53.4227C107.631 53.7388 107.901 54.1796 107.98 54.661C108.06 55.1452 107.938 55.5831 107.673 55.8992L107.295 56.3515L108.154 57.0185L111.607 52.8834L110.825 52.1265L110.446 52.5789H110.444Z" fill="#A1B728"/>
<path d="M116.107 49.334C114.153 49.1049 112.179 49.6327 110.899 51.7815C110.478 52.489 109.565 54.0404 109.186 54.4928C108.808 54.948 107.451 56.1138 106.837 56.6531C104.963 58.2828 104.718 60.2257 105.298 62.2846C105.978 64.6885 107.852 66.2312 110.003 66.9475C113.078 67.9711 114.778 67.5506 117.623 67.829C119.068 67.9682 121.181 68.5192 122.999 66.4748C124.688 64.3202 123.818 62.2788 123.448 60.8521C122.726 58.0363 122.862 56.253 121.377 53.3242C120.339 51.2769 118.547 49.6211 116.11 49.3398L116.107 49.334Z" fill="#FB1803"/>
<path d="M115.012 50.3372C113.339 50.0994 111.672 50.4967 110.629 52.2801C110.284 52.8658 109.542 54.1533 109.232 54.5303C108.919 54.9015 107.79 55.8555 107.278 56.2963C105.716 57.6302 105.554 59.2628 106.095 61.0172C106.729 63.0645 108.362 64.4129 110.213 65.0711C112.859 66.0107 114.301 65.6917 116.73 65.9962C117.964 66.1499 119.779 66.666 121.281 64.9812C122.672 63.2036 121.884 61.458 121.534 60.24C120.851 57.8448 120.928 56.3456 119.594 53.8315C118.661 52.0742 117.097 50.633 115.012 50.3372Z" fill="#FF400F"/>
<path d="M122.165 55.7599C122.165 55.7599 119.002 57.465 118.03 56.9923C117.54 56.7574 117.589 55.9977 117.324 55.5569C118.385 54.4927 119.148 53.1762 119.933 51.8858C119.933 51.8858 117.791 54.8001 116.733 54.7363C116.639 54.7305 116.084 54.1128 115.851 53.933C116.542 52.8137 116.986 51.5233 117.458 50.2503C117.458 50.2503 116.064 53.2313 115.106 53.4314C114.713 53.5125 114.409 53.0602 114.059 52.9326C114.366 51.9785 114.426 50.9346 114.511 49.8965C114.511 49.8965 114.07 52.3845 113.405 52.7354C112.384 53.2777 111.203 52.5237 110.304 52.7789C109.892 53.4575 109.431 54.1969 109.192 54.4869C108.933 54.7972 108.219 55.4409 107.597 55.9861C107.511 56.914 108.45 57.9551 108.103 59.0541C107.881 59.7674 105.588 60.5881 105.588 60.5881C106.513 60.3677 107.412 60.2749 108.407 59.6601C108.595 59.9994 109.098 60.2285 109.084 60.6432C109.056 61.632 106.402 63.4937 106.402 63.4937C107.611 62.8499 108.791 62.1801 109.701 61.2927C109.92 61.4957 110.623 61.9307 110.643 62.0235C110.89 63.0848 108.384 65.7237 108.384 65.7237C109.497 64.7174 110.64 63.7402 111.559 62.4759C112.017 62.6586 112.731 62.4904 113.029 62.934C113.652 63.8475 112.489 67.3505 112.489 67.3505C113.075 66.0107 113.797 64.7609 113.999 63.1457C114.801 63.3081 116.414 63.5952 116.454 63.6329C117.236 64.3259 117.902 67.5911 117.902 67.5911C117.811 66.3384 117.831 65.0596 117.427 63.8794C118.778 64.2535 119.645 64.5579 120.132 63.9751C120.618 63.3893 120.152 62.6035 119.586 61.284C120.809 61.3884 122.035 61.2927 123.263 61.1652C123.263 61.1652 120.001 61.0289 119.216 60.3474C118.63 59.8399 118.527 58.7467 118.385 57.9232C119.731 57.4534 120.937 56.5805 122.168 55.7628L122.165 55.7599Z" fill="#FFB78E"/>
<path d="M108.219 55.4351C108.595 56.8705 109.681 58.883 111.65 60.3938C113.095 61.5044 114.816 61.4232 116.383 62.1859C118.078 63.0152 119.52 64.0794 119.822 63.717C120.112 63.369 118.906 62.1743 117.907 60.678C116.906 59.1788 116.636 57.3751 115.293 56.0267C113.519 54.2375 111.377 53.527 109.906 53.4255C109.622 53.8837 109.352 54.2955 109.187 54.4956C109.013 54.7044 108.638 55.0581 108.219 55.4351Z" fill="#FF6D4F"/>
</g>
<g clip-path="url(#clip5_2695_3104)">
<path d="M12.7875 43.8198C14.2666 43.9329 16.1069 44.5738 16.0443 45.2001C15.9846 45.8236 14.0475 46.1861 12.5656 46.0759C11.0894 45.9657 10 44.7478 10 44.7478C10 44.7478 11.3084 43.7125 12.7875 43.8198Z" fill="#849B0E"/>
<path d="M12.2102 45.8382C13.3536 45.4844 14.9237 45.4177 15.0517 45.8933C15.1826 46.3659 13.8229 47.2069 12.6795 47.5577C11.5332 47.9115 10.3699 47.3374 10.3699 47.3374C10.3699 47.3374 11.0639 46.1919 12.2102 45.8382Z" fill="#7A8E0E"/>
<path d="M15.1456 40.9955C15.4897 42.4657 16.4085 44.2143 17.0001 44.0548C17.5917 43.8953 17.6344 41.8857 17.2931 40.4155C16.9489 38.9453 15.5978 38.0435 15.5978 38.0435C15.5978 38.0435 14.8042 39.5253 15.1456 40.9955Z" fill="#7A8E0E"/>
<path d="M17.0057 40.0908C16.8464 41.3029 17.0341 42.8891 17.5148 42.9442C17.9955 42.9993 18.59 41.5001 18.7465 40.288C18.9057 39.0787 18.1634 38 18.1634 38C18.1634 38 17.165 38.8786 17.0057 40.0908Z" fill="#849B0E"/>
<path d="M17.4436 42.5789C17.1791 42.8921 16.7752 43.0893 16.2945 43.0835C15.8166 43.0806 15.3445 42.8805 14.9804 42.5615L13.2283 41.042L12.5115 41.9003L14.2636 43.4227C14.6305 43.7388 14.9007 44.1796 14.9804 44.661C15.06 45.1452 14.9377 45.5831 14.6732 45.8992L14.2949 46.3515L15.1539 47.0185L18.607 42.8834L17.8248 42.1265L17.4465 42.5789H17.4436Z" fill="#A1B728"/>
<path d="M23.1068 39.334C21.1527 39.1049 19.1787 39.6327 17.8987 41.7815C17.4778 42.489 16.5647 44.0404 16.1864 44.4928C15.8081 44.948 14.4513 46.1138 13.837 46.6531C11.9625 48.2828 11.7179 50.2257 12.2982 52.2846C12.978 54.6885 14.8524 56.2312 17.0028 56.9475C20.0775 57.9711 21.7785 57.5506 24.6228 57.829C26.0678 57.9682 28.1811 58.5192 29.9987 56.4748C31.6882 54.3202 30.8179 52.2788 30.4481 50.8521C29.7256 48.0363 29.8622 46.253 28.3774 43.3242C27.3392 41.2769 25.5472 39.6211 23.1096 39.3398L23.1068 39.334Z" fill="#FB1803"/>
<path d="M22.0118 40.3372C20.3393 40.0994 18.6725 40.4967 17.6286 42.2801C17.2844 42.8658 16.542 44.1533 16.232 44.5303C15.9191 44.9015 14.7899 45.8555 14.2779 46.2963C12.7164 47.6302 12.5542 49.2628 13.0947 51.0172C13.729 53.0645 15.3616 54.4129 17.2133 55.0711C19.8586 56.0107 21.3007 55.6917 23.7298 55.9962C24.9642 56.1499 26.7789 56.666 28.2808 54.9812C29.6717 53.2036 28.8838 51.458 28.5339 50.24C27.8513 47.8448 27.9281 46.3456 26.5941 43.8315C25.6611 42.0742 24.0967 40.633 22.0118 40.3372Z" fill="#FF400F"/>
<path d="M29.1654 45.7599C29.1654 45.7599 26.0024 47.465 25.0297 46.9923C24.5404 46.7574 24.5888 45.9977 24.3243 45.5569C25.3852 44.4927 26.1475 43.1762 26.9325 41.8858C26.9325 41.8858 24.7907 44.8001 23.7326 44.7363C23.6388 44.7305 23.0841 44.1128 22.8509 43.933C23.5421 42.8137 23.9858 41.5233 24.4579 40.2503C24.4579 40.2503 23.0642 43.2313 22.1056 43.4314C21.7131 43.5125 21.4088 43.0602 21.0589 42.9326C21.3661 41.9785 21.4258 40.9346 21.5112 39.8965C21.5112 39.8965 21.0703 42.3845 20.4047 42.7354C19.3836 43.2777 18.2032 42.5237 17.3043 42.7789C16.8919 43.4575 16.4311 44.1969 16.1922 44.4869C15.9334 44.7972 15.2194 45.4409 14.5965 45.9861C14.5112 46.914 15.4498 47.9551 15.1028 49.0541C14.8809 49.7674 12.5884 50.5881 12.5884 50.5881C13.5128 50.3677 14.4116 50.2749 15.4072 49.6601C15.5949 49.9994 16.0983 50.2285 16.0841 50.6432C16.0557 51.632 13.4019 53.4937 13.4019 53.4937C14.6107 52.8499 15.7911 52.1801 16.7013 51.2927C16.9204 51.4957 17.6229 51.9307 17.6428 52.0235C17.8903 53.0848 15.3844 55.7237 15.3844 55.7237C16.4965 54.7174 17.64 53.7402 18.5587 52.4759C19.0167 52.6586 19.7306 52.4904 20.0293 52.934C20.6522 53.8475 19.4888 57.3505 19.4888 57.3505C20.0748 56.0107 20.7972 54.7609 20.9992 53.1457C21.8013 53.3081 23.4141 53.5952 23.4539 53.6329C24.2361 54.3259 24.9017 57.5911 24.9017 57.5911C24.8106 56.3384 24.8306 55.0596 24.4267 53.8794C25.7777 54.2535 26.6453 54.5579 27.1317 53.9751C27.618 53.3893 27.1516 52.6035 26.5855 51.284C27.8086 51.3884 29.0345 51.2927 30.2633 51.1652C30.2633 51.1652 27.0008 51.0289 26.2158 50.3474C25.6298 49.8399 25.5274 48.7467 25.3852 47.9232C26.7306 47.4534 27.9366 46.5805 29.1682 45.7628L29.1654 45.7599Z" fill="#FFB78E"/>
<path d="M15.2195 45.4351C15.5949 46.8705 16.6815 48.883 18.6498 50.3938C20.0947 51.5044 21.8156 51.4232 23.3828 52.1859C25.0781 53.0152 26.5202 54.0794 26.8217 53.717C27.1118 53.369 25.9058 52.1743 24.9074 50.678C23.9062 49.1788 23.636 47.3751 22.2934 46.0267C20.5185 44.2375 18.3767 43.527 16.9062 43.4255C16.6218 43.8837 16.3515 44.2955 16.1866 44.4956C16.0131 44.7044 15.6376 45.0581 15.2195 45.4351Z" fill="#FF6D4F"/>
</g>
<g clip-path="url(#clip6_2695_3104)">
<path d="M123.512 19.8807C124.72 24.2092 121.555 28.9001 121.555 28.9001C121.555 28.9001 116.438 26.5796 115.233 22.2542C114.346 18.0631 115.378 15.2836 117.402 14C119.602 14.1936 122.073 16.0019 123.512 19.8807Z" fill="#689524"/>
<path d="M117.35 14.0343C115.363 15.3304 114.352 18.0974 115.23 22.2542C116.358 26.2954 120.896 28.5846 121.487 28.8688L117.35 14.0343Z" fill="#517D0C"/>
<path d="M121.355 28.8064C121.481 28.8688 121.555 28.9032 121.555 28.9032C121.555 28.9032 121.601 28.8345 121.678 28.7127L117.581 14.025C117.522 14.0156 117.461 14.0062 117.402 14C117.35 14.0312 117.303 14.0687 117.254 14.1031L121.355 28.8064Z" fill="#80B92D"/>
<path d="M131.438 27.1013C127.612 30.1931 121.549 28.9345 121.549 28.9345C121.549 28.9345 121.694 22.6666 125.523 19.5747C129.353 16.8733 132.581 16.7515 134.735 18.2912C135.481 20.6428 134.72 23.9657 131.435 27.1044L131.438 27.1013Z" fill="#689524"/>
<path d="M134.683 18.2504C132.529 16.7514 129.322 16.8919 125.523 19.5715C121.947 22.4572 121.583 28.1161 121.552 28.85L134.683 18.2504Z" fill="#517D0C"/>
<path d="M121.561 28.6815C121.552 28.8376 121.549 28.9313 121.549 28.9313C121.549 28.9313 121.638 28.95 121.792 28.975L134.79 18.4816C134.772 18.4191 134.76 18.3504 134.738 18.2879C134.686 18.2473 134.63 18.2161 134.572 18.1818L121.561 28.6846V28.6815Z" fill="#80B92D"/>
<path d="M121.817 27.7695C121.817 24.7433 119.395 22.2886 116.41 22.2886C113.425 22.2886 111 24.7433 111 27.7695C111 30.7958 113.422 33.2505 116.407 33.2505C119.392 33.2505 121.814 30.7958 121.814 27.7695H121.817Z" fill="url(#paint7_linear_2695_3104)"/>
<path d="M115.301 27.6102C115.643 27.3042 116.296 27.0012 116.752 26.9388L117.676 26.8138C118.132 26.7514 118.357 26.4047 118.181 26.0424L117.818 25.3023C117.639 24.9431 117.599 24.306 117.722 23.8938L117.978 23.0568C118.104 22.6446 117.839 22.376 117.387 22.4603L116.462 22.6352C116.009 22.7164 115.332 22.629 114.953 22.4322L114.189 22.0387C113.813 21.8451 113.418 22.0293 113.317 22.4416L113.11 23.2848C113.006 23.7002 112.63 24.2779 112.272 24.5715L111.539 25.1649C111.182 25.4584 111.206 25.8363 111.595 26.0081L112.386 26.3579C112.778 26.5296 113.221 26.9794 113.375 27.3541L113.689 28.113C113.844 28.4878 114.25 28.5409 114.595 28.2317L115.295 27.604L115.301 27.6102Z" fill="#233259"/>
<path d="M117.014 24.0592C116.576 23.0911 115.319 22.7257 114.207 23.2379C113.095 23.7532 112.547 24.9556 112.984 25.9268C113.422 26.895 114.679 27.2604 115.791 26.7451C116.903 26.2298 117.451 25.0274 117.017 24.0592H117.014Z" fill="#3E2F4D"/>
<path d="M116.783 24.1624C116.398 23.3036 115.282 22.9819 114.296 23.4379C113.311 23.8938 112.827 24.9619 113.212 25.8176C113.6 26.6765 114.712 27.0013 115.695 26.5453C116.681 26.0862 117.168 25.0212 116.78 24.1624H116.783Z" fill="#46537A"/>
<path d="M115.436 24.7869C115.341 24.5777 115.067 24.4965 114.823 24.6089C114.58 24.7214 114.463 24.9806 114.555 25.1929C114.651 25.4022 114.925 25.4834 115.168 25.3709C115.412 25.2585 115.532 24.9993 115.433 24.7869H115.436Z" fill="#3E2F4D"/>
<g opacity="0.5">
<path d="M113.603 25.3367C113.249 25.1805 113.261 24.8869 113.36 24.5621C113.523 24.0281 113.967 23.7626 114.321 23.9188C114.675 24.0781 114.435 24.3279 114.158 24.6683C113.942 24.9369 113.955 25.4928 113.603 25.3367Z" fill="#EFE9E3"/>
</g>
<path d="M131.771 31.233C131.771 28.2037 129.35 25.7521 126.364 25.7521C123.379 25.7521 120.954 28.2037 120.954 31.233C120.954 34.2624 123.376 36.714 126.364 36.714C129.353 36.714 131.771 34.2624 131.771 31.233Z" fill="url(#paint8_linear_2695_3104)"/>
<g opacity="0.5">
<path d="M122.541 29.0407C122.181 28.8002 122.165 28.3411 122.446 27.9039C122.729 27.4667 123.207 27.2168 123.564 27.4573C123.921 27.6946 123.666 28.0663 123.382 28.5004C123.099 28.9376 122.898 29.278 122.541 29.0407Z" fill="#EFE9E3"/>
</g>
<path d="M126.324 32.7134C126.749 32.5572 127.446 32.5572 127.871 32.7134L128.737 33.0226C129.162 33.1787 129.498 32.9289 129.485 32.4729L129.461 31.5454C129.448 31.0863 129.664 30.4148 129.938 30.0557L130.499 29.3186C130.773 28.9564 130.644 28.5535 130.212 28.4254L129.331 28.1631C128.897 28.0351 128.336 27.6197 128.08 27.2418L127.563 26.4767C127.307 26.0988 126.891 26.0988 126.635 26.4767L126.118 27.2418C125.862 27.6197 125.301 28.0351 124.867 28.1631L123.986 28.4254C123.555 28.5566 123.425 28.9595 123.699 29.3186L124.26 30.0557C124.534 30.4179 124.75 31.0894 124.735 31.5454L124.71 32.4729C124.698 32.9289 125.033 33.1787 125.462 33.0226L126.327 32.7134H126.324Z" fill="#1C2847"/>
<path d="M129.245 29.8776C129.245 28.6752 128.284 27.7008 127.098 27.7008C125.911 27.7008 124.95 28.6752 124.95 29.8776C124.95 31.0799 125.911 32.0543 127.098 32.0543C128.284 32.0543 129.245 31.0799 129.245 29.8776Z" fill="#3A2C47"/>
<path d="M128.999 29.8776C128.999 28.8126 128.148 27.9507 127.098 27.9507C126.047 27.9507 125.197 28.8126 125.197 29.8776C125.197 30.9426 126.047 31.8076 127.098 31.8076C128.148 31.8076 128.999 30.9457 128.999 29.8776Z" fill="#303D60"/>
<path d="M127.566 29.8777C127.566 29.6153 127.356 29.403 127.098 29.403C126.839 29.403 126.629 29.6153 126.629 29.8777C126.629 30.14 126.839 30.3524 127.098 30.3524C127.356 30.3524 127.566 30.14 127.566 29.8777Z" fill="#3A2C47"/>
<path d="M123.588 33.519C123.588 30.4928 121.167 28.0381 118.178 28.0381C115.19 28.0381 112.771 30.4928 112.771 33.519C112.771 36.5453 115.193 39 118.178 39C121.164 39 123.588 36.5453 123.588 33.519Z" fill="url(#paint9_linear_2695_3104)"/>
<path d="M115.741 35.8832C116.185 35.8082 116.866 35.9332 117.254 36.1611L118.046 36.6265C118.434 36.8545 118.81 36.6702 118.878 36.2174L119.016 35.2992C119.084 34.8463 119.414 34.2248 119.747 33.9188L120.424 33.2942C120.757 32.9881 120.702 32.5696 120.301 32.3635L119.485 31.9481C119.084 31.742 118.607 31.233 118.422 30.8145L118.052 29.965C117.87 29.5496 117.461 29.4716 117.146 29.7995L116.502 30.4585C116.185 30.7864 115.563 31.0893 115.116 31.1393L114.207 31.2392C113.76 31.2892 113.563 31.6608 113.77 32.0668L114.189 32.8944C114.392 33.3004 114.484 33.9969 114.392 34.4466L114.204 35.3554C114.112 35.802 114.398 36.108 114.842 36.0331L115.745 35.8832H115.741Z" fill="#1C2847"/>
<path d="M119.103 33.6253C119.315 32.4448 118.545 31.3143 117.387 31.0988C116.225 30.8833 115.113 31.6703 114.9 32.8508C114.688 34.0313 115.455 35.1681 116.616 35.3805C117.778 35.596 118.89 34.8121 119.103 33.6253Z" fill="#3A2C47"/>
<path d="M118.862 33.5816C119.05 32.5322 118.369 31.5328 117.34 31.3423C116.315 31.155 115.329 31.8483 115.138 32.8945C114.95 33.9438 115.631 34.9463 116.657 35.1368C117.686 35.3242 118.671 34.6309 118.859 33.5816H118.862Z" fill="#394870"/>
<path d="M117.457 33.3222C117.504 33.063 117.337 32.8194 117.085 32.7726C116.832 32.7226 116.589 32.8944 116.542 33.1536C116.496 33.4097 116.663 33.6564 116.915 33.7064C117.168 33.7532 117.411 33.5814 117.457 33.3222Z" fill="#3A2C47"/>
<g opacity="0.7">
<path d="M114.602 30.4491C114.392 30.218 114.472 29.8339 114.737 29.5465C115.175 29.0718 115.812 28.9376 116.022 29.1687C116.231 29.4029 115.957 29.9619 115.532 30.2274C115.202 30.4335 114.811 30.6802 114.602 30.4491Z" fill="#EFE9E3"/>
</g>
</g>
<g clip-path="url(#clip7_2695_3104)">
<path d="M39.5118 16.8807C40.7195 21.2092 37.5554 25.9001 37.5554 25.9001C37.5554 25.9001 32.4381 23.5796 31.2335 19.2542C30.3462 15.0631 31.3783 12.2836 33.4024 11C35.6022 11.1936 38.073 13.0019 39.5118 16.8807Z" fill="#689524"/>
<path d="M33.3497 11.0343C31.3626 12.3304 30.352 15.0974 31.2301 19.2542C32.3577 23.2954 36.8958 25.5846 37.4873 25.8688L33.3497 11.0343Z" fill="#517D0C"/>
<path d="M37.3548 25.8064C37.4811 25.8688 37.555 25.9032 37.555 25.9032C37.555 25.9032 37.6013 25.8345 37.6783 25.7127L33.5807 11.025C33.5222 11.0156 33.4606 11.0062 33.402 11C33.3497 11.0312 33.3034 11.0687 33.2542 11.1031L37.3548 25.8064Z" fill="#80B92D"/>
<path d="M47.4384 24.1013C43.612 27.1931 37.5488 25.9345 37.5488 25.9345C37.5488 25.9345 37.6936 19.6666 41.5232 16.5747C45.3527 13.8733 48.5814 13.7515 50.735 15.2912C51.4805 17.6428 50.7196 20.9657 47.4353 24.1044L47.4384 24.1013Z" fill="#689524"/>
<path d="M50.6829 15.2504C48.5294 13.7514 45.3222 13.8919 41.5235 16.5715C37.9466 19.4572 37.5831 25.1161 37.5522 25.85L50.6829 15.2504Z" fill="#517D0C"/>
<path d="M37.5612 25.6815C37.5519 25.8376 37.5488 25.9313 37.5488 25.9313C37.5488 25.9313 37.6382 25.95 37.7922 25.975L50.7904 15.4816C50.7719 15.4191 50.7596 15.3504 50.738 15.2879C50.6857 15.2473 50.6302 15.2161 50.5717 15.1818L37.5612 25.6846V25.6815Z" fill="#80B92D"/>
<path d="M37.8169 24.7695C37.8169 21.7433 35.3954 19.2886 32.41 19.2886C29.4246 19.2886 27 21.7433 27 24.7695C27 27.7958 29.4216 30.2505 32.4069 30.2505C35.3923 30.2505 37.8139 27.7958 37.8139 24.7695H37.8169Z" fill="url(#paint10_linear_2695_3104)"/>
<path d="M31.3008 24.6102C31.6428 24.3042 32.2959 24.0012 32.7519 23.9388L33.6761 23.8138C34.1321 23.7514 34.357 23.4047 34.1814 23.0424L33.8179 22.3023C33.6392 21.9431 33.5991 21.306 33.7224 20.8938L33.9781 20.0568C34.1044 19.6446 33.8394 19.376 33.3865 19.4603L32.4623 19.6352C32.0094 19.7164 31.3316 19.629 30.9527 19.4322L30.1886 19.0387C29.8127 18.8451 29.4184 19.0293 29.3167 19.4416L29.1103 20.2848C29.0055 20.7002 28.6297 21.2779 28.2723 21.5715L27.539 22.1649C27.1817 22.4584 27.2063 22.8363 27.5945 23.0081L28.3863 23.3579C28.7776 23.5296 29.2212 23.9794 29.3752 24.3541L29.6895 25.113C29.8435 25.4878 30.2502 25.5409 30.5953 25.2317L31.2946 24.604L31.3008 24.6102Z" fill="#233259"/>
<path d="M33.0139 21.0592C32.5764 20.0911 31.3194 19.7257 30.2072 20.2379C29.095 20.7532 28.5466 21.9556 28.9841 22.9268C29.4216 23.895 30.6786 24.2604 31.7907 23.7451C32.9029 23.2298 33.4513 22.0274 33.0169 21.0592H33.0139Z" fill="#3E2F4D"/>
<path d="M32.7827 21.1624C32.3975 20.3036 31.2823 19.9819 30.2964 20.4379C29.3105 20.8938 28.8268 21.9619 29.2119 22.8176C29.6001 23.6765 30.7123 24.0013 31.6951 23.5453C32.681 23.0862 33.1678 22.0212 32.7796 21.1624H32.7827Z" fill="#46537A"/>
<path d="M31.4364 21.7869C31.3408 21.5777 31.0666 21.4965 30.8233 21.6089C30.5799 21.7214 30.4628 21.9806 30.5552 22.1929C30.6507 22.4022 30.9249 22.4834 31.1683 22.3709C31.4117 22.2585 31.5319 21.9993 31.4333 21.7869H31.4364Z" fill="#3E2F4D"/>
<g opacity="0.5">
<path d="M29.6033 22.3367C29.249 22.1805 29.2613 21.8869 29.3599 21.5621C29.5232 21.0281 29.9668 20.7626 30.3211 20.9188C30.6754 21.0781 30.4351 21.3279 30.1578 21.6683C29.9422 21.9369 29.9545 22.4928 29.6033 22.3367Z" fill="#EFE9E3"/>
</g>
<path d="M47.7713 28.233C47.7713 25.2037 45.3497 22.7521 42.3644 22.7521C39.379 22.7521 36.9543 25.2037 36.9543 28.233C36.9543 31.2624 39.3759 33.714 42.3644 33.714C45.3528 33.714 47.7713 31.2624 47.7713 28.233Z" fill="url(#paint11_linear_2695_3104)"/>
<g opacity="0.5">
<path d="M38.5411 26.0407C38.1806 25.8002 38.1652 25.3411 38.4456 24.9039C38.729 24.4667 39.2066 24.2168 39.5639 24.4573C39.9213 24.6946 39.6656 25.0663 39.3822 25.5004C39.0987 25.9376 38.8985 26.278 38.5411 26.0407Z" fill="#EFE9E3"/>
</g>
<path d="M42.3243 29.7134C42.7495 29.5572 43.4457 29.5572 43.8709 29.7134L44.7366 30.0226C45.1618 30.1787 45.4976 29.9289 45.4853 29.4729L45.4606 28.5454C45.4483 28.0863 45.664 27.4148 45.9382 27.0557L46.4989 26.3186C46.7731 25.9564 46.6437 25.5535 46.2124 25.4254L45.3312 25.1631C44.8968 25.0351 44.3361 24.6197 44.0804 24.2418L43.5628 23.4767C43.3071 23.0988 42.8912 23.0988 42.6355 23.4767L42.1179 24.2418C41.8622 24.6197 41.3015 25.0351 40.8671 25.1631L39.9859 25.4254C39.5546 25.5566 39.4252 25.9595 39.6994 26.3186L40.2601 27.0557C40.5343 27.4179 40.75 28.0894 40.7346 28.5454L40.7099 29.4729C40.6976 29.9289 41.0334 30.1787 41.4617 30.0226L42.3274 29.7134H42.3243Z" fill="#1C2847"/>
<path d="M45.2449 26.8776C45.2449 25.6752 44.2837 24.7008 43.0976 24.7008C41.9114 24.7008 40.9502 25.6752 40.9502 26.8776C40.9502 28.0799 41.9114 29.0543 43.0976 29.0543C44.2837 29.0543 45.2449 28.0799 45.2449 26.8776Z" fill="#3A2C47"/>
<path d="M44.9986 26.8776C44.9986 25.8126 44.1483 24.9507 43.0977 24.9507C42.0471 24.9507 41.1968 25.8126 41.1968 26.8776C41.1968 27.9426 42.0471 28.8076 43.0977 28.8076C44.1483 28.8076 44.9986 27.9457 44.9986 26.8776Z" fill="#303D60"/>
<path d="M43.566 26.8777C43.566 26.6153 43.3565 26.403 43.0977 26.403C42.8389 26.403 42.6294 26.6153 42.6294 26.8777C42.6294 27.14 42.8389 27.3524 43.0977 27.3524C43.3565 27.3524 43.566 27.14 43.566 26.8777Z" fill="#3A2C47"/>
<path d="M39.5884 30.519C39.5884 27.4928 37.1669 25.0381 34.1784 25.0381C31.19 25.0381 28.7715 27.4928 28.7715 30.519C28.7715 33.5453 31.1931 36 34.1784 36C37.1638 36 39.5884 33.5453 39.5884 30.519Z" fill="url(#paint12_linear_2695_3104)"/>
<path d="M31.7415 32.8832C32.1851 32.8082 32.866 32.9332 33.2542 33.1611L34.046 33.6265C34.4342 33.8545 34.81 33.6702 34.8778 33.2174L35.0164 32.2992C35.0842 31.8463 35.4139 31.2248 35.7466 30.9188L36.4244 30.2942C36.7571 29.9881 36.7017 29.5696 36.3012 29.3635L35.4847 28.9481C35.0842 28.742 34.6067 28.233 34.4218 27.8145L34.0521 26.965C33.8704 26.5496 33.4606 26.4716 33.1463 26.7995L32.5024 27.4585C32.1851 27.7864 31.5628 28.0893 31.1161 28.1393L30.2072 28.2392C29.7605 28.2892 29.5633 28.6608 29.7697 29.0668L30.1887 29.8944C30.392 30.3004 30.4845 30.9969 30.392 31.4466L30.2041 32.3554C30.1117 32.802 30.3982 33.108 30.8419 33.0331L31.7445 32.8832H31.7415Z" fill="#1C2847"/>
<path d="M35.1027 30.6252C35.3153 29.4447 34.545 28.3141 33.3866 28.0986C32.2251 27.8832 31.113 28.6702 30.9004 29.8507C30.6878 31.0312 31.4549 32.168 32.6164 32.3803C33.7779 32.5958 34.8901 31.812 35.1027 30.6252Z" fill="#3A2C47"/>
<path d="M34.8624 30.5814C35.0503 29.5321 34.3695 28.5327 33.3405 28.3422C32.3145 28.1548 31.3286 28.8481 31.1376 29.8944C30.9497 30.9437 31.6306 31.9462 32.6565 32.1367C33.6855 32.3241 34.6714 31.6308 34.8593 30.5814H34.8624Z" fill="#394870"/>
<path d="M33.4574 30.3223C33.5036 30.0631 33.3372 29.8195 33.0846 29.7727C32.832 29.7227 32.5886 29.8945 32.5424 30.1537C32.4962 30.4098 32.6625 30.6565 32.9152 30.7065C33.1678 30.7533 33.4112 30.5816 33.4574 30.3223Z" fill="#3A2C47"/>
<g opacity="0.7">
<path d="M30.6016 27.4491C30.3921 27.218 30.4722 26.8339 30.7372 26.5465C31.1746 26.0718 31.8124 25.9376 32.0219 26.1687C32.2314 26.4029 31.9572 26.9619 31.532 27.2274C31.2024 27.4335 30.8111 27.6802 30.6016 27.4491Z" fill="#EFE9E3"/>
</g>
</g>
<path d="M72.9754 25.1176C74.2076 25.7603 75.541 26.2007 77.0454 26.3871C78.6895 26.5934 81.2517 27.0933 83.2728 26.8751C83.9639 26.4744 84.6655 25.9706 85.3741 25.3398C87.5767 23.3839 88.1108 20.1902 87.3114 18.1629C86.3096 15.6159 85.2485 15.366 84.5957 14.3543C83.943 13.3387 84.0512 12.1168 82.2186 10.264C80.756 8.78423 77.9216 8.40734 75.6143 10.2045C69.9839 14.5884 70.2561 20.825 72.4762 24.4471C72.6298 24.6772 72.7973 24.8994 72.9754 25.1136V25.1176Z" fill="url(#paint13_linear_2695_3104)"/>
<path d="M79.426 13.5608C78.7384 13.8544 78.11 13.9813 77.5934 13.1799C77.0768 12.3746 77.2444 11.3709 77.8622 10.9979C78.686 10.4981 79.4923 10.8392 79.9217 11.7041C80.3964 12.6602 80.0857 13.2791 79.426 13.5608Z" fill="#EFE9E3"/>
<path d="M85.5206 16.5204C85.196 16.7942 84.2291 16.3181 83.5693 15.3025C82.9096 14.2789 82.8049 13.0927 83.133 12.8229C83.4611 12.5492 83.8311 13.5132 84.4909 14.5368C85.1471 15.5603 85.8487 16.2506 85.5206 16.5244V16.5204Z" fill="#AC0D12"/>
<path d="M82.6748 10.869C84.0745 8.3894 85.1462 5.73924 86.2213 3.06528C87.3872 0.20089 89.0731 -3.68706 91 -4.9804L90.3437 -6C88.0748 -3.53234 86.902 -0.414042 85.5267 2.89072C83.8686 6.86595 82.1023 11.0435 78.9538 13.7056C78.6815 13.9317 78.4022 14.1499 78.1021 14.3522C78.1963 14.6855 78.3534 15.0346 78.5698 15.3679C78.7897 15.7091 79.048 15.9868 79.2959 16.205C79.9905 15.5781 81.8161 12.3607 82.6748 10.8729V10.869Z" fill="#8CA332"/>
<g clip-path="url(#clip8_2695_3104)">
<path d="M105.787 53.8198C107.267 53.9329 109.107 54.5738 109.044 55.2001C108.985 55.8236 107.048 56.1861 105.566 56.0759C104.089 55.9657 103 54.7478 103 54.7478C103 54.7478 104.308 53.7125 105.787 53.8198Z" fill="#849B0E"/>
<path d="M105.21 55.8382C106.354 55.4844 107.924 55.4177 108.052 55.8933C108.183 56.3659 106.823 57.2069 105.68 57.5577C104.533 57.9115 103.37 57.3374 103.37 57.3374C103.37 57.3374 104.064 56.1919 105.21 55.8382Z" fill="#7A8E0E"/>
<path d="M108.146 50.9955C108.49 52.4657 109.408 54.2143 110 54.0548C110.592 53.8953 110.634 51.8857 110.293 50.4155C109.949 48.9453 108.598 48.0435 108.598 48.0435C108.598 48.0435 107.804 49.5253 108.146 50.9955Z" fill="#7A8E0E"/>
<path d="M110.006 50.0908C109.846 51.3029 110.034 52.8891 110.515 52.9442C110.996 52.9993 111.59 51.5001 111.746 50.288C111.906 49.0787 111.163 48 111.163 48C111.163 48 110.165 48.8786 110.006 50.0908Z" fill="#849B0E"/>
<path d="M110.444 52.5789C110.179 52.8921 109.775 53.0893 109.294 53.0835C108.817 53.0806 108.344 52.8805 107.98 52.5615L106.228 51.042L105.511 51.9003L107.264 53.4227C107.631 53.7388 107.901 54.1796 107.98 54.661C108.06 55.1452 107.938 55.5831 107.673 55.8992L107.295 56.3515L108.154 57.0185L111.607 52.8834L110.825 52.1265L110.446 52.5789H110.444Z" fill="#A1B728"/>
<path d="M116.107 49.334C114.153 49.1049 112.179 49.6327 110.899 51.7815C110.478 52.489 109.565 54.0404 109.186 54.4928C108.808 54.948 107.451 56.1138 106.837 56.6531C104.963 58.2828 104.718 60.2257 105.298 62.2846C105.978 64.6885 107.852 66.2312 110.003 66.9475C113.078 67.9711 114.778 67.5506 117.623 67.829C119.068 67.9682 121.181 68.5192 122.999 66.4748C124.688 64.3202 123.818 62.2788 123.448 60.8521C122.726 58.0363 122.862 56.253 121.377 53.3242C120.339 51.2769 118.547 49.6211 116.11 49.3398L116.107 49.334Z" fill="#FB1803"/>
<path d="M115.012 50.3372C113.339 50.0994 111.672 50.4967 110.629 52.2801C110.284 52.8658 109.542 54.1533 109.232 54.5303C108.919 54.9015 107.79 55.8555 107.278 56.2963C105.716 57.6302 105.554 59.2628 106.095 61.0172C106.729 63.0645 108.362 64.4129 110.213 65.0711C112.859 66.0107 114.301 65.6917 116.73 65.9962C117.964 66.1499 119.779 66.666 121.281 64.9812C122.672 63.2036 121.884 61.458 121.534 60.24C120.851 57.8448 120.928 56.3456 119.594 53.8315C118.661 52.0742 117.097 50.633 115.012 50.3372Z" fill="#FF400F"/>
<path d="M122.165 55.7599C122.165 55.7599 119.002 57.465 118.03 56.9923C117.54 56.7574 117.589 55.9977 117.324 55.5569C118.385 54.4927 119.148 53.1762 119.933 51.8858C119.933 51.8858 117.791 54.8001 116.733 54.7363C116.639 54.7305 116.084 54.1128 115.851 53.933C116.542 52.8137 116.986 51.5233 117.458 50.2503C117.458 50.2503 116.064 53.2313 115.106 53.4314C114.713 53.5125 114.409 53.0602 114.059 52.9326C114.366 51.9785 114.426 50.9346 114.511 49.8965C114.511 49.8965 114.07 52.3845 113.405 52.7354C112.384 53.2777 111.203 52.5237 110.304 52.7789C109.892 53.4575 109.431 54.1969 109.192 54.4869C108.933 54.7972 108.219 55.4409 107.597 55.9861C107.511 56.914 108.45 57.9551 108.103 59.0541C107.881 59.7674 105.588 60.5881 105.588 60.5881C106.513 60.3677 107.412 60.2749 108.407 59.6601C108.595 59.9994 109.098 60.2285 109.084 60.6432C109.056 61.632 106.402 63.4937 106.402 63.4937C107.611 62.8499 108.791 62.1801 109.701 61.2927C109.92 61.4957 110.623 61.9307 110.643 62.0235C110.89 63.0848 108.384 65.7237 108.384 65.7237C109.497 64.7174 110.64 63.7402 111.559 62.4759C112.017 62.6586 112.731 62.4904 113.029 62.934C113.652 63.8475 112.489 67.3505 112.489 67.3505C113.075 66.0107 113.797 64.7609 113.999 63.1457C114.801 63.3081 116.414 63.5952 116.454 63.6329C117.236 64.3259 117.902 67.5911 117.902 67.5911C117.811 66.3384 117.831 65.0596 117.427 63.8794C118.778 64.2535 119.645 64.5579 120.132 63.9751C120.618 63.3893 120.152 62.6035 119.586 61.284C120.809 61.3884 122.035 61.2927 123.263 61.1652C123.263 61.1652 120.001 61.0289 119.216 60.3474C118.63 59.8399 118.527 58.7467 118.385 57.9232C119.731 57.4534 120.937 56.5805 122.168 55.7628L122.165 55.7599Z" fill="#FFB78E"/>
<path d="M108.219 55.4351C108.595 56.8705 109.681 58.883 111.65 60.3938C113.095 61.5044 114.816 61.4232 116.383 62.1859C118.078 63.0152 119.52 64.0794 119.822 63.717C120.112 63.369 118.906 62.1743 117.907 60.678C116.906 59.1788 116.636 57.3751 115.293 56.0267C113.519 54.2375 111.377 53.527 109.906 53.4255C109.622 53.8837 109.352 54.2955 109.187 54.4956C109.013 54.7044 108.638 55.0581 108.219 55.4351Z" fill="#FF6D4F"/>
</g>
</g>
<defs>
<linearGradient id="paint0_linear_2695_3104" x1="113.033" y1="23.5066" x2="119.764" y2="31.7839" gradientUnits="userSpaceOnUse">
<stop offset="0.11" stop-color="#475A8B"/>
<stop offset="0.85" stop-color="#303D60"/>
</linearGradient>
<linearGradient id="paint1_linear_2695_3104" x1="122.988" y1="26.9669" x2="129.718" y2="35.2442" gradientUnits="userSpaceOnUse">
<stop offset="0.1" stop-color="#4A5D90"/>
<stop offset="0.78" stop-color="#344266"/>
</linearGradient>
<linearGradient id="paint2_linear_2695_3104" x1="114.266" y1="29.8432" x2="122.127" y2="37.0227" gradientUnits="userSpaceOnUse">
<stop offset="0.18" stop-color="#556CA7"/>
<stop offset="0.85" stop-color="#303D60"/>
</linearGradient>
<linearGradient id="paint3_linear_2695_3104" x1="29.0334" y1="20.5066" x2="35.764" y2="28.7839" gradientUnits="userSpaceOnUse">
<stop offset="0.11" stop-color="#475A8B"/>
<stop offset="0.85" stop-color="#303D60"/>
</linearGradient>
<linearGradient id="paint4_linear_2695_3104" x1="38.9877" y1="23.9669" x2="45.7184" y2="32.2442" gradientUnits="userSpaceOnUse">
<stop offset="0.1" stop-color="#4A5D90"/>
<stop offset="0.78" stop-color="#344266"/>
</linearGradient>
<linearGradient id="paint5_linear_2695_3104" x1="30.2657" y1="26.8432" x2="38.1268" y2="34.0227" gradientUnits="userSpaceOnUse">
<stop offset="0.18" stop-color="#556CA7"/>
<stop offset="0.85" stop-color="#303D60"/>
</linearGradient>
<linearGradient id="paint6_linear_2695_3104" x1="80.7634" y1="7.91515" x2="77.2599" y2="29.7877" gradientUnits="userSpaceOnUse">
<stop offset="0.07" stop-color="#D0343A"/>
<stop offset="0.86" stop-color="#AC0D12"/>
</linearGradient>
<linearGradient id="paint7_linear_2695_3104" x1="113.033" y1="23.5066" x2="119.764" y2="31.7839" gradientUnits="userSpaceOnUse">
<stop offset="0.11" stop-color="#475A8B"/>
<stop offset="0.85" stop-color="#303D60"/>
</linearGradient>
<linearGradient id="paint8_linear_2695_3104" x1="122.988" y1="26.9669" x2="129.718" y2="35.2442" gradientUnits="userSpaceOnUse">
<stop offset="0.1" stop-color="#4A5D90"/>
<stop offset="0.78" stop-color="#344266"/>
</linearGradient>
<linearGradient id="paint9_linear_2695_3104" x1="114.266" y1="29.8432" x2="122.127" y2="37.0227" gradientUnits="userSpaceOnUse">
<stop offset="0.18" stop-color="#556CA7"/>
<stop offset="0.85" stop-color="#303D60"/>
</linearGradient>
<linearGradient id="paint10_linear_2695_3104" x1="29.0334" y1="20.5066" x2="35.764" y2="28.7839" gradientUnits="userSpaceOnUse">
<stop offset="0.11" stop-color="#475A8B"/>
<stop offset="0.85" stop-color="#303D60"/>
</linearGradient>
<linearGradient id="paint11_linear_2695_3104" x1="38.9877" y1="23.9669" x2="45.7184" y2="32.2442" gradientUnits="userSpaceOnUse">
<stop offset="0.1" stop-color="#4A5D90"/>
<stop offset="0.78" stop-color="#344266"/>
</linearGradient>
<linearGradient id="paint12_linear_2695_3104" x1="30.2657" y1="26.8432" x2="38.1268" y2="34.0227" gradientUnits="userSpaceOnUse">
<stop offset="0.18" stop-color="#556CA7"/>
<stop offset="0.85" stop-color="#303D60"/>
</linearGradient>
<linearGradient id="paint13_linear_2695_3104" x1="80.7634" y1="7.91515" x2="77.2599" y2="29.7877" gradientUnits="userSpaceOnUse">
<stop offset="0.07" stop-color="#D0343A"/>
<stop offset="0.86" stop-color="#AC0D12"/>
</linearGradient>
<clipPath id="clip0_2695_3104">
<rect width="150" height="147" fill="white"/>
</clipPath>
<clipPath id="clip1_2695_3104">
<rect width="21" height="20" fill="white" transform="translate(10 38)"/>
</clipPath>
<clipPath id="clip2_2695_3104">
<rect width="24" height="25" fill="white" transform="translate(111 14)"/>
</clipPath>
<clipPath id="clip3_2695_3104">
<rect width="24" height="25" fill="white" transform="translate(27 11)"/>
</clipPath>
<clipPath id="clip4_2695_3104">
<rect width="21" height="20" fill="white" transform="translate(103 48)"/>
</clipPath>
<clipPath id="clip5_2695_3104">
<rect width="21" height="20" fill="white" transform="translate(10 38)"/>
</clipPath>
<clipPath id="clip6_2695_3104">
<rect width="24" height="25" fill="white" transform="translate(111 14)"/>
</clipPath>
<clipPath id="clip7_2695_3104">
<rect width="24" height="25" fill="white" transform="translate(27 11)"/>
</clipPath>
<clipPath id="clip8_2695_3104">
<rect width="21" height="20" fill="white" transform="translate(103 48)"/>
</clipPath>
</defs>
</svg>
