<svg width="150" height="147" viewBox="0 0 150 147" fill="none" xmlns="http://www.w3.org/2000/svg">
<g clip-path="url(#clip0_2487_914)">
<path d="M3.05371 43.4795V106.428C3.05371 115.954 9.01128 124.695 18.9385 131.575V68.6296C9.01128 61.7506 3.05371 53.0008 3.05371 43.4795Z" fill="#7E684F"/>
<path d="M18.9385 68.6296V131.575L74.995 106.426V43.4781L18.9385 68.6296Z" fill="#7E684F"/>
<path d="M57.207 114.41L74.9974 106.427V43.4781L57.207 51.4593V114.41Z" fill="#7E684F"/>
<path d="M74.9951 43.4795V106.428L101.804 143.684V80.7323L74.9951 43.4795Z" fill="#7E684F"/>
<path d="M101.804 80.7323V143.684C128.256 137.75 146.945 123.309 146.945 106.427V43.4781C146.946 60.364 128.256 74.8033 101.804 80.7323Z" fill="#7E684F"/>
<path d="M3.05371 81.1212V92.3255C3.05371 101.852 9.01128 110.595 18.9385 117.477V106.271C9.01128 99.3897 3.05371 90.6491 3.05371 81.1212Z" fill="#EFE9E3"/>
<path d="M18.9385 106.271V117.477L74.995 92.3268V81.1199L18.9385 106.271Z" fill="#EFE9E3"/>
<path d="M74.9951 81.1212V92.3255L101.804 129.586V118.381L74.9951 81.1212Z" fill="#EFE9E3"/>
<path d="M101.804 118.381V129.585C128.256 123.649 146.945 109.21 146.945 92.3268V81.1199C146.946 98.007 128.256 112.445 101.804 118.381Z" fill="#EFE9E3"/>
<path d="M74.9951 43.4795V72.6532L101.804 109.911V80.7323L74.9951 43.4795Z" fill="#7E684F"/>
<path d="M3.05371 43.4795V72.6532C3.05371 82.1811 9.01128 90.9217 18.9385 97.8033V68.6309C9.01128 61.7506 3.05371 53.0008 3.05371 43.4795Z" fill="#7E684F"/>
<path d="M18.9385 68.6296V97.8033L74.995 72.6532V43.4781L18.9385 68.6296Z" fill="#7E684F"/>
<path d="M101.804 80.7323V109.913C128.256 103.974 146.945 89.5364 146.945 72.6519V43.4768C146.946 60.3639 128.256 74.8033 101.804 80.7323Z" fill="#7E684F"/>
<path d="M57.207 80.637L74.9974 72.6532V43.4781L57.207 51.4593V80.637Z" fill="#7E684F"/>
<path d="M74.9951 3.33301C35.2638 3.33301 3.05371 21.3064 3.05371 43.4782C3.05371 52.9981 9.00879 61.748 18.9385 68.6269L74.9951 43.4782L101.804 80.7309C128.255 74.8007 146.945 60.3626 146.945 43.4782C146.946 21.3064 114.729 3.33301 74.9951 3.33301Z" fill="#5A4225"/>
<path d="M118.461 11.4861C129.739 18.5728 136.601 27.9062 136.601 38.126C136.601 53.8197 120.462 67.3818 96.9534 73.9869L101.807 80.7309C128.256 74.8019 146.946 60.3626 146.946 43.4781C146.946 30.4188 135.761 18.8189 118.461 11.4861Z" fill="#5A4225"/>
<path d="M70.0882 45.6798L18.9372 68.6295C16.0146 66.6051 13.4826 64.3982 11.2937 62.0761L64.6548 38.1274C64.6548 38.1274 72.4817 34.9055 77.3973 41.586L70.0882 45.6798Z" fill="#5A4225"/>
<path d="M101.804 83.9395C100.873 83.9395 99.9746 83.4817 99.3993 82.6799L74.0191 47.4039L20.1202 71.5868C19.1967 72.0035 18.1322 71.9017 17.2837 71.3168C6.15721 63.603 0.0236816 53.7139 0.0236816 43.4781C0.0236816 19.1629 32.9563 0.123047 74.9937 0.123047C117.04 0.123047 149.974 19.1629 149.974 43.4781C149.974 61.5402 131.309 77.3953 102.431 83.8707C102.222 83.9223 102.01 83.9395 101.804 83.9395ZM74.995 40.2735C75.9184 40.2735 76.8169 40.7168 77.406 41.5331L103.038 77.1585C127.571 71.1898 143.918 57.7944 143.918 43.4795C143.918 23.4578 112.356 6.54156 74.995 6.54156C37.6397 6.54156 6.07734 23.4565 6.07734 43.4795C6.07734 51.0901 10.7508 58.6836 19.2753 64.9949L73.8169 40.5209C74.2013 40.3529 74.6019 40.2735 74.995 40.2735Z" fill="#3F342F"/>
<path d="M3.04858 59.7076V70.9119C3.04858 80.4385 9.00615 89.1817 18.9334 96.0634V84.8577C9.00615 77.9761 3.04858 69.2355 3.04858 59.7076Z" fill="#EFE9E3"/>
<path d="M18.9333 84.8577V96.0633L74.9912 70.9132V59.7063L18.9333 84.8577Z" fill="#EFE9E3"/>
<path d="M101.8 96.967V108.171C128.252 102.236 146.941 87.7964 146.941 70.9132V59.7063C146.941 76.5934 128.251 91.0315 101.8 96.967Z" fill="#EFE9E3"/>
<path d="M101.804 146.893C100.873 146.893 99.9746 146.435 99.3993 145.627L74.0191 110.349L20.1202 134.533C19.1967 134.949 18.1323 134.848 17.2837 134.265C6.15721 126.548 0.0236816 116.666 0.0236816 106.427V43.4781C0.0236816 41.7064 1.37892 40.2721 3.05238 40.2721C4.72335 40.2721 6.07609 41.7064 6.07609 43.4781C6.07609 51.0874 10.7496 58.6822 19.2741 64.9935L73.8157 40.5196C75.0861 39.9506 76.5686 40.3648 77.4035 41.5318L103.036 77.1571C127.569 71.1884 143.915 57.7944 143.915 43.4781C143.915 41.7064 145.273 40.2721 146.944 40.2721C148.615 40.2721 149.973 41.7064 149.973 43.4781V106.427C149.973 124.48 131.307 140.346 102.429 146.823C102.222 146.866 102.01 146.893 101.804 146.893ZM74.995 103.216C75.9184 103.216 76.8169 103.662 77.406 104.476L103.038 140.106C127.571 134.131 143.918 120.734 143.918 106.427V60.7331C136.212 71.1752 121.566 79.5798 102.432 83.872C101.274 84.1326 100.109 83.6656 99.4006 82.6812L74.0204 47.4051L20.1214 71.5867C19.198 72.0035 18.1335 71.9016 17.2849 71.3181C12.6564 68.1082 8.89265 64.5238 6.07859 60.7013V106.427C6.07859 114.041 10.752 121.635 19.2766 127.943L73.8182 103.466C74.2013 103.3 74.6019 103.216 74.995 103.216Z" fill="#3F342F"/>
<path d="M74.9912 59.7076V70.9119L101.8 108.173V96.9684L74.9912 59.7076Z" fill="#EFE9E3"/>
</g>
<defs>
<clipPath id="clip0_2487_914">
<rect width="150" height="147" fill="white"/>
</clipPath>
</defs>
</svg>
