<svg width="160" height="178" viewBox="0 0 160 178" fill="none" xmlns="http://www.w3.org/2000/svg">
<g clip-path="url(#clip0_2500_1230)">
<path d="M3.25732 52.6486V128.871C3.25732 140.407 9.61207 150.991 20.2011 159.322V83.1024C9.61207 74.7728 3.25732 64.1777 3.25732 52.6486Z" fill="#EAE2D6"/>
<path d="M20.2009 83.1024V159.322L79.9946 128.87V52.647L20.2009 83.1024Z" fill="#EAE2D6"/>
<path d="M61.021 138.537L79.9974 128.871V52.647L61.021 62.3112V138.537Z" fill="#EAE2D6"/>
<path d="M79.9946 52.6486V128.871L108.591 173.985V97.7574L79.9946 52.6486Z" fill="#EAE2D6"/>
<path d="M108.591 97.7574V173.985C136.807 166.799 156.741 149.313 156.741 128.871V52.647C156.743 73.0937 136.807 90.5781 108.591 97.7574Z" fill="#EAE2D6"/>
<path d="M79.9946 52.6486V87.9746L108.591 133.09V97.7574L79.9946 52.6486Z" fill="#EAE2D6"/>
<path d="M3.25732 52.6486V87.9746C3.25732 99.5117 9.61207 110.096 20.2011 118.428V83.104C9.61207 74.7728 3.25732 64.1777 3.25732 52.6486Z" fill="#EAE2D6"/>
<path d="M20.2009 83.1024V118.428L79.9946 87.9746V52.647L20.2009 83.1024Z" fill="#EAE2D6"/>
<path d="M108.591 97.7574V133.091C136.807 125.901 156.741 108.418 156.741 87.973V52.6454C156.743 73.0938 136.807 90.5781 108.591 97.7574Z" fill="#EAE2D6"/>
<path d="M61.021 97.642L79.9974 87.9746V52.647L61.021 62.3112V97.642Z" fill="#EAE2D6"/>
<path d="M79.9948 4.03589C37.6147 4.03589 3.25732 25.7996 3.25732 52.647C3.25732 64.1746 9.60941 74.7697 20.2011 83.0993L79.9948 52.647L108.591 97.7559C136.805 90.575 156.742 73.0922 156.742 52.647C156.743 25.7996 122.377 4.03589 79.9948 4.03589Z" fill="#BDA787"/>
<path d="M126.359 13.9083C138.388 22.4895 145.708 33.7911 145.708 46.1662C145.708 65.1694 128.493 81.5916 103.417 89.5896L108.594 97.7558C136.807 90.5765 156.743 73.0921 156.743 52.6469C156.743 36.8336 144.812 22.7875 126.359 13.9083Z" fill="#BDA787"/>
<path d="M74.7608 55.313L20.1997 83.1024C17.0822 80.6511 14.3814 77.9788 12.0466 75.167L68.9651 46.1678C68.9651 46.1678 77.3139 42.2666 82.5571 50.3559L74.7608 55.313Z" fill="#BDA787"/>
<path d="M108.591 101.641C107.598 101.641 106.639 101.087 106.026 100.116L78.9536 57.4007L21.4614 86.6833C20.4764 87.188 19.341 87.0647 18.4358 86.3565C6.56757 77.0159 0.0251465 65.0414 0.0251465 52.647C0.0251465 23.2041 35.1533 0.149048 79.9932 0.149048C124.842 0.149048 159.972 23.2041 159.972 52.647C159.972 74.5181 140.062 93.7168 109.259 101.558C109.037 101.62 108.81 101.641 108.591 101.641ZM79.9945 48.7666C80.9795 48.7666 81.938 49.3033 82.5662 50.2919L109.907 93.43C136.076 86.2027 153.512 69.9824 153.512 52.6486C153.512 28.4047 119.847 7.92113 79.9945 7.92113C40.1489 7.92113 6.48238 28.4031 6.48238 52.6486C6.48238 61.8643 11.4674 71.0591 20.5603 78.7014L78.7379 49.0662C79.1479 48.8627 79.5752 48.7666 79.9945 48.7666Z" fill="#393732"/>
<path d="M2.3645 66.6157V78.742C2.3645 89.0525 8.75495 98.5152 19.4035 105.963V93.8354C8.75495 86.3875 2.3645 76.9276 2.3645 66.6157Z" fill="white"/>
<path d="M1.97046 86.3138V98.4401C1.97046 108.751 8.3609 118.213 19.0094 125.661V113.534C8.3609 106.086 1.97046 96.6258 1.97046 86.3138Z" fill="white"/>
<path d="M2.52637 105.932V118.058C2.52637 128.369 8.91681 137.831 19.5653 145.279V133.151C8.91681 125.704 2.52637 116.244 2.52637 105.932Z" fill="white"/>
<path d="M19.4036 93.8358V105.963L78.8321 78.7444V66.6157L19.4036 93.8358Z" fill="white"/>
<path d="M19.0093 113.534V125.661L78.4378 98.4425V86.3138L19.0093 113.534Z" fill="white"/>
<path d="M19.5654 133.152V145.279L78.994 118.06V105.932L19.5654 133.152Z" fill="white"/>
<path d="M107.507 106.95V119.079C135.757 112.654 155.715 97.0231 155.715 78.7472V66.6157C155.715 84.896 135.755 100.525 107.507 106.95Z" fill="white"/>
<path d="M107.113 126.648V138.777C135.363 132.352 155.321 116.721 155.321 98.4453V86.3138C155.321 104.594 135.361 120.223 107.113 126.648Z" fill="white"/>
<path d="M107.669 146.266V158.395C135.918 151.97 155.877 136.339 155.877 118.063V105.932C155.877 124.212 135.917 139.841 107.669 146.266Z" fill="white"/>
<path d="M108.591 177.87C107.598 177.87 106.639 177.316 106.026 176.337L78.9536 133.62L21.4614 162.904C20.4764 163.408 19.341 163.286 18.4358 162.579C6.56757 153.235 0.0251465 141.269 0.0251465 128.871V52.647C0.0251465 50.5017 1.47074 48.765 3.25576 48.765C5.03812 48.765 6.48105 50.5017 6.48105 52.647C6.48105 61.861 11.4661 71.0574 20.5589 78.6997L78.7366 49.0646C80.0917 48.3756 81.6731 48.8771 82.5636 50.2902L109.905 93.4284C136.073 86.201 153.509 69.9824 153.509 52.647C153.509 50.5017 154.958 48.765 156.74 48.765C158.522 48.765 159.971 50.5017 159.971 52.647V128.871C159.971 150.731 140.061 169.943 109.258 177.785C109.037 177.838 108.81 177.87 108.591 177.87ZM79.9945 124.983C80.9795 124.983 81.938 125.523 82.5662 126.508L109.907 169.653C136.076 162.417 153.512 146.196 153.512 128.871V73.5408C145.292 86.185 129.67 96.3619 109.26 101.559C108.025 101.875 106.783 101.309 106.027 100.117L78.9549 57.4022L21.4627 86.6833C20.4777 87.188 19.3423 87.0646 18.4371 86.3581C13.5 82.4712 9.48538 78.131 6.48371 73.5023V128.871C6.48371 138.09 11.4687 147.287 20.5616 154.924L78.7393 125.286C79.1479 125.084 79.5752 124.983 79.9945 124.983Z" fill="#393732"/>
<path d="M78.832 66.6157V78.7443L107.507 119.079V106.95L78.832 66.6157Z" fill="white"/>
<path d="M78.438 86.3138V98.4424L107.113 138.777V126.648L78.438 86.3138Z" fill="white"/>
<path d="M78.9939 105.932V118.06L107.669 158.395V146.266L78.9939 105.932Z" fill="white"/>
</g>
<defs>
<clipPath id="clip0_2500_1230">
<rect width="160" height="178" fill="white"/>
</clipPath>
</defs>
</svg>
