<svg width="160" height="178" viewBox="0 0 160 178" fill="none" xmlns="http://www.w3.org/2000/svg">
<g clip-path="url(#clip0_2695_3333)">
<path d="M3.25732 52.6487V128.871C3.25732 140.407 9.61207 150.991 20.2011 159.322V83.1025C9.61207 74.7729 3.25732 64.1778 3.25732 52.6487Z" fill="#B2B9AE"/>
<path d="M20.2009 83.1024V159.322L79.9946 128.87V52.647L20.2009 83.1024Z" fill="#B2B9AE"/>
<path d="M61.021 138.537L79.9974 128.871V52.647L61.021 62.3112V138.537Z" fill="#B2B9AE"/>
<path d="M79.9946 52.6487V128.871L108.591 173.985V97.7575L79.9946 52.6487Z" fill="#B2B9AE"/>
<path d="M108.591 97.7574V173.985C136.807 166.799 156.741 149.313 156.741 128.871V52.647C156.743 73.0937 136.807 90.5781 108.591 97.7574Z" fill="#B2B9AE"/>
<path d="M79.9946 52.6487V87.9747L108.591 133.09V97.7575L79.9946 52.6487Z" fill="#B2B9AE"/>
<path d="M3.25732 52.6487V87.9747C3.25732 99.5119 9.61207 110.096 20.2011 118.429V83.1041C9.61207 74.7729 3.25732 64.1778 3.25732 52.6487Z" fill="#B2B9AE"/>
<path d="M20.2009 83.1024V118.428L79.9946 87.9746V52.647L20.2009 83.1024Z" fill="#B2B9AE"/>
<path d="M108.591 97.7573V133.091C136.807 125.901 156.741 108.418 156.741 87.9729V52.6453C156.743 73.0936 136.807 90.578 108.591 97.7573Z" fill="#B2B9AE"/>
<path d="M61.021 97.642L79.9974 87.9746V52.647L61.021 62.3112V97.642Z" fill="#B2B9AE"/>
<path d="M79.9948 4.03589C37.6147 4.03589 3.25732 25.7996 3.25732 52.647C3.25732 64.1746 9.60941 74.7697 20.2011 83.0993L79.9948 52.647L108.591 97.7559C136.805 90.575 156.742 73.0922 156.742 52.647C156.743 25.7996 122.377 4.03589 79.9948 4.03589Z" fill="#63743E"/>
<path d="M126.359 13.9084C138.388 22.4896 145.708 33.7913 145.708 46.1663C145.708 65.1696 128.493 81.5917 103.417 89.5897L108.594 97.7559C136.807 90.5766 156.743 73.0922 156.743 52.6471C156.743 36.8338 144.812 22.7876 126.359 13.9084Z" fill="#63743E"/>
<path d="M74.7608 55.3131L20.1997 83.1026C17.0822 80.6513 14.3814 77.9789 12.0466 75.1671L68.9651 46.168C68.9651 46.168 77.3139 42.2667 82.5571 50.356L74.7608 55.3131Z" fill="#63743E"/>
<path d="M108.591 101.641C107.598 101.641 106.639 101.087 106.026 100.116L78.9536 57.4005L21.4614 86.6832C20.4764 87.1879 19.341 87.0645 18.4358 86.3564C6.56757 77.0158 0.0251465 65.0412 0.0251465 52.6469C0.0251465 23.204 35.1533 0.148926 79.9932 0.148926C124.842 0.148926 159.972 23.204 159.972 52.6469C159.972 74.518 140.062 93.7167 109.259 101.558C109.037 101.62 108.81 101.641 108.591 101.641ZM79.9945 48.7665C80.9795 48.7665 81.938 49.3032 82.5662 50.2917L109.907 93.4299C136.076 86.2026 153.512 69.9823 153.512 52.6485C153.512 28.4046 119.847 7.92101 79.9945 7.92101C40.1489 7.92101 6.48238 28.403 6.48238 52.6485C6.48238 61.8641 11.4674 71.0589 20.5603 78.7012L78.7379 49.0661C79.1479 48.8626 79.5752 48.7665 79.9945 48.7665Z" fill="#3C4738"/>
<path d="M2.3645 66.6157V78.742C2.3645 89.0525 8.75495 98.5152 19.4035 105.963V93.8354C8.75495 86.3875 2.3645 76.9276 2.3645 66.6157Z" fill="#EDEDED"/>
<path d="M1.97046 86.314V98.4402C1.97046 108.751 8.3609 118.213 19.0094 125.661V113.534C8.3609 106.086 1.97046 96.6259 1.97046 86.314Z" fill="#EDEDED"/>
<path d="M2.52637 105.932V118.058C2.52637 128.368 8.91681 137.831 19.5653 145.279V133.151C8.91681 125.703 2.52637 116.244 2.52637 105.932Z" fill="#EDEDED"/>
<path d="M19.4036 93.8358V105.963L78.8321 78.7444V66.6157L19.4036 93.8358Z" fill="#EDEDED"/>
<path d="M19.0093 113.534V125.661L78.4378 98.4426V86.314L19.0093 113.534Z" fill="#EDEDED"/>
<path d="M19.5654 133.152V145.279L78.994 118.06V105.932L19.5654 133.152Z" fill="#EDEDED"/>
<path d="M107.507 106.95V119.079C135.757 112.654 155.715 97.0231 155.715 78.7472V66.6157C155.715 84.896 135.755 100.525 107.507 106.95Z" fill="#EDEDED"/>
<path d="M107.113 126.649V138.777C135.363 132.352 155.321 116.721 155.321 98.4454V86.314C155.321 104.594 135.361 120.223 107.113 126.649Z" fill="#EDEDED"/>
<path d="M107.669 146.266V158.395C135.918 151.97 155.877 136.339 155.877 118.063V105.932C155.877 124.212 135.917 139.841 107.669 146.266Z" fill="#EDEDED"/>
<path d="M108.591 177.87C107.598 177.87 106.639 177.316 106.026 176.337L78.9536 133.62L21.4614 162.904C20.4764 163.407 19.341 163.286 18.4358 162.579C6.56757 153.235 0.0251465 141.269 0.0251465 128.871V52.6469C0.0251465 50.5016 1.47074 48.7649 3.25576 48.7649C5.03812 48.7649 6.48105 50.5016 6.48105 52.6469C6.48105 61.8609 11.4661 71.0573 20.5589 78.6996L78.7366 49.0645C80.0917 48.3755 81.6731 48.877 82.5636 50.2901L109.905 93.4283C136.073 86.2009 153.509 69.9823 153.509 52.6469C153.509 50.5016 154.958 48.7649 156.74 48.7649C158.522 48.7649 159.971 50.5016 159.971 52.6469V128.871C159.971 150.731 140.061 169.943 109.258 177.785C109.037 177.838 108.81 177.87 108.591 177.87ZM79.9945 124.983C80.9795 124.983 81.938 125.523 82.5662 126.508L109.907 169.653C136.076 162.417 153.512 146.195 153.512 128.871V73.5407C145.292 86.1849 129.67 96.3618 109.26 101.559C108.025 101.875 106.783 101.309 106.027 100.117L78.9549 57.4021L21.4627 86.6832C20.4777 87.1879 19.3423 87.0645 18.4371 86.3579C13.5 82.4711 9.48538 78.1308 6.48371 73.5022V128.871C6.48371 138.09 11.4687 147.286 20.5616 154.924L78.7393 125.286C79.1479 125.084 79.5752 124.983 79.9945 124.983Z" fill="#3C4738"/>
<path d="M78.832 66.6157V78.7443L107.507 119.079V106.95L78.832 66.6157Z" fill="#EDEDED"/>
<path d="M78.438 86.314V98.4425L107.113 138.777V126.649L78.438 86.314Z" fill="#EDEDED"/>
<path d="M78.9939 105.932V118.06L107.669 158.395V146.266L78.9939 105.932Z" fill="#EDEDED"/>
<g clip-path="url(#clip1_2695_3333)">
<path d="M11.7875 53.8198C13.2666 53.9329 15.1069 54.5738 15.0443 55.2001C14.9846 55.8236 13.0475 56.1861 11.5656 56.0759C10.0894 55.9657 9 54.7478 9 54.7478C9 54.7478 10.3084 53.7125 11.7875 53.8198Z" fill="#849B0E"/>
<path d="M11.2102 55.8382C12.3536 55.4844 13.9237 55.4177 14.0517 55.8933C14.1826 56.3659 12.8229 57.2069 11.6795 57.5577C10.5332 57.9115 9.36987 57.3374 9.36987 57.3374C9.36987 57.3374 10.0639 56.1919 11.2102 55.8382Z" fill="#7A8E0E"/>
<path d="M14.1456 50.9955C14.4897 52.4657 15.4085 54.2143 16.0001 54.0548C16.5917 53.8953 16.6344 51.8857 16.2931 50.4155C15.9489 48.9453 14.5978 48.0435 14.5978 48.0435C14.5978 48.0435 13.8042 49.5253 14.1456 50.9955Z" fill="#7A8E0E"/>
<path d="M16.0057 50.0908C15.8464 51.3029 16.0341 52.8891 16.5148 52.9442C16.9955 52.9993 17.59 51.5001 17.7465 50.288C17.9057 49.0787 17.1634 48 17.1634 48C17.1634 48 16.165 48.8786 16.0057 50.0908Z" fill="#849B0E"/>
<path d="M16.4436 52.5789C16.1791 52.8921 15.7752 53.0893 15.2945 53.0835C14.8166 53.0806 14.3445 52.8805 13.9804 52.5615L12.2283 51.042L11.5115 51.9003L13.2636 53.4227C13.6305 53.7388 13.9007 54.1796 13.9804 54.661C14.06 55.1452 13.9377 55.5831 13.6732 55.8992L13.2949 56.3515L14.1539 57.0185L17.607 52.8834L16.8248 52.1265L16.4465 52.5789H16.4436Z" fill="#A1B728"/>
<path d="M22.1068 49.334C20.1527 49.1049 18.1787 49.6327 16.8987 51.7815C16.4778 52.489 15.5647 54.0404 15.1864 54.4928C14.8081 54.948 13.4513 56.1138 12.837 56.6531C10.9625 58.2828 10.7179 60.2257 11.2982 62.2846C11.978 64.6885 13.8524 66.2312 16.0028 66.9475C19.0775 67.9711 20.7785 67.5506 23.6228 67.829C25.0678 67.9682 27.1811 68.5192 28.9987 66.4748C30.6882 64.3202 29.8179 62.2788 29.4481 60.8521C28.7256 58.0363 28.8622 56.253 27.3774 53.3242C26.3392 51.2769 24.5472 49.6211 22.1096 49.3398L22.1068 49.334Z" fill="#FB1803"/>
<path d="M21.0118 50.3372C19.3393 50.0994 17.6725 50.4967 16.6286 52.2801C16.2844 52.8658 15.542 54.1533 15.232 54.5303C14.9191 54.9015 13.7899 55.8555 13.2779 56.2963C11.7164 57.6302 11.5542 59.2628 12.0947 61.0172C12.729 63.0645 14.3616 64.4129 16.2133 65.0711C18.8586 66.0107 20.3007 65.6917 22.7298 65.9962C23.9642 66.1499 25.7789 66.666 27.2808 64.9812C28.6717 63.2036 27.8838 61.458 27.5339 60.24C26.8513 57.8448 26.9281 56.3456 25.5941 53.8315C24.6611 52.0742 23.0967 50.633 21.0118 50.3372Z" fill="#FF400F"/>
<path d="M28.1654 55.7599C28.1654 55.7599 25.0024 57.465 24.0297 56.9923C23.5404 56.7574 23.5888 55.9977 23.3243 55.5569C24.3852 54.4927 25.1475 53.1762 25.9325 51.8858C25.9325 51.8858 23.7907 54.8001 22.7326 54.7363C22.6388 54.7305 22.0841 54.1128 21.8509 53.933C22.5421 52.8137 22.9858 51.5233 23.4579 50.2503C23.4579 50.2503 22.0642 53.2313 21.1056 53.4314C20.7131 53.5125 20.4088 53.0602 20.0589 52.9326C20.3661 51.9785 20.4258 50.9346 20.5112 49.8965C20.5112 49.8965 20.0703 52.3845 19.4047 52.7354C18.3836 53.2777 17.2032 52.5237 16.3043 52.7789C15.8919 53.4575 15.4311 54.1969 15.1922 54.4869C14.9334 54.7972 14.2194 55.4409 13.5965 55.9861C13.5112 56.914 14.4498 57.9551 14.1028 59.0541C13.8809 59.7674 11.5884 60.5881 11.5884 60.5881C12.5128 60.3677 13.4116 60.2749 14.4072 59.6601C14.5949 59.9994 15.0983 60.2285 15.0841 60.6432C15.0557 61.632 12.4019 63.4937 12.4019 63.4937C13.6107 62.8499 14.7911 62.1801 15.7013 61.2927C15.9204 61.4957 16.6229 61.9307 16.6428 62.0235C16.8903 63.0848 14.3844 65.7237 14.3844 65.7237C15.4965 64.7174 16.64 63.7402 17.5587 62.4759C18.0167 62.6586 18.7306 62.4904 19.0293 62.934C19.6522 63.8475 18.4888 67.3505 18.4888 67.3505C19.0748 66.0107 19.7972 64.7609 19.9992 63.1457C20.8013 63.3081 22.4141 63.5952 22.4539 63.6329C23.2361 64.3259 23.9017 67.5911 23.9017 67.5911C23.8106 66.3384 23.8306 65.0596 23.4267 63.8794C24.7777 64.2535 25.6453 64.5579 26.1317 63.9751C26.618 63.3893 26.1516 62.6035 25.5855 61.284C26.8086 61.3884 28.0345 61.2927 29.2633 61.1652C29.2633 61.1652 26.0008 61.0289 25.2158 60.3474C24.6298 59.8399 24.5274 58.7467 24.3852 57.9232C25.7306 57.4534 26.9366 56.5805 28.1682 55.7628L28.1654 55.7599Z" fill="#FFB78E"/>
<path d="M14.2195 55.4351C14.5949 56.8705 15.6815 58.883 17.6498 60.3938C19.0947 61.5044 20.8156 61.4232 22.3828 62.1859C24.0781 63.0152 25.5202 64.0794 25.8217 63.717C26.1118 63.369 24.9058 62.1743 23.9074 60.678C22.9062 59.1788 22.636 57.3751 21.2934 56.0267C19.5185 54.2375 17.3767 53.527 15.9062 53.4255C15.6218 53.8837 15.3515 54.2955 15.1866 54.4956C15.0131 54.7044 14.6376 55.0581 14.2195 55.4351Z" fill="#FF6D4F"/>
</g>
<g clip-path="url(#clip2_2695_3333)">
<path d="M111.512 12.8807C112.72 17.2092 109.555 21.9001 109.555 21.9001C109.555 21.9001 104.438 19.5796 103.233 15.2542C102.346 11.0631 103.378 8.28357 105.402 7C107.602 7.19363 110.073 9.00187 111.512 12.8807Z" fill="#689524"/>
<path d="M105.35 7.03442C103.363 8.33049 102.352 11.0975 103.23 15.2543C104.358 19.2955 108.896 21.5847 109.487 21.8689L105.35 7.03442Z" fill="#517D0C"/>
<path d="M109.355 21.8064C109.481 21.8688 109.555 21.9032 109.555 21.9032C109.555 21.9032 109.601 21.8345 109.678 21.7127L105.581 7.02498C105.522 7.01562 105.461 7.00625 105.402 7C105.35 7.03123 105.303 7.06871 105.254 7.10306L109.355 21.8064Z" fill="#80B92D"/>
<path d="M119.438 20.1013C115.612 23.1931 109.549 21.9345 109.549 21.9345C109.549 21.9345 109.694 15.6666 113.523 12.5747C117.353 9.8733 120.581 9.7515 122.735 11.2912C123.481 13.6428 122.72 16.9657 119.435 20.1044L119.438 20.1013Z" fill="#689524"/>
<path d="M122.683 11.2504C120.529 9.75136 117.322 9.8919 113.523 12.5715C109.947 15.4572 109.583 21.1161 109.552 21.85L122.683 11.2504Z" fill="#517D0C"/>
<path d="M109.561 21.6813C109.552 21.8375 109.549 21.9312 109.549 21.9312C109.549 21.9312 109.638 21.9499 109.792 21.9749L122.79 11.4815C122.772 11.419 122.76 11.3503 122.738 11.2878C122.686 11.2472 122.63 11.216 122.572 11.1816L109.561 21.6845V21.6813Z" fill="#80B92D"/>
<path d="M109.817 20.7695C109.817 17.7433 107.395 15.2886 104.41 15.2886C101.425 15.2886 99 17.7433 99 20.7695C99 23.7958 101.422 26.2505 104.407 26.2505C107.392 26.2505 109.814 23.7958 109.814 20.7695H109.817Z" fill="url(#paint0_linear_2695_3333)"/>
<path d="M103.301 20.6103C103.643 20.3043 104.296 20.0013 104.752 19.9389L105.676 19.814C106.132 19.7515 106.357 19.4048 106.181 19.0426L105.818 18.3024C105.639 17.9433 105.599 17.3061 105.722 16.8939L105.978 16.0569C106.104 15.6447 105.839 15.3761 105.387 15.4604L104.462 15.6353C104.009 15.7165 103.332 15.6291 102.953 15.4323L102.189 15.0388C101.813 14.8452 101.418 15.0294 101.317 15.4417L101.11 16.2849C101.006 16.7003 100.63 17.278 100.272 17.5716L99.539 18.165C99.1817 18.4586 99.2063 18.8364 99.5945 19.0082L100.386 19.358C100.778 19.5298 101.221 19.9795 101.375 20.3542L101.689 21.1131C101.844 21.4879 102.25 21.541 102.595 21.2318L103.295 20.6041L103.301 20.6103Z" fill="#233259"/>
<path d="M105.014 17.0595C104.576 16.0913 103.319 15.726 102.207 16.2381C101.095 16.7534 100.547 17.9558 100.984 18.9271C101.422 19.8952 102.679 20.2606 103.791 19.7453C104.903 19.23 105.451 18.0276 105.017 17.0595H105.014Z" fill="#3E2F4D"/>
<path d="M104.783 17.1625C104.398 16.3037 103.282 15.982 102.296 16.438C101.311 16.894 100.827 17.962 101.212 18.8177C101.6 19.6766 102.712 20.0014 103.695 19.5454C104.681 19.0863 105.168 18.0214 104.78 17.1625H104.783Z" fill="#46537A"/>
<path d="M103.436 17.7871C103.341 17.5778 103.067 17.4966 102.823 17.609C102.58 17.7215 102.463 17.9807 102.555 18.1931C102.651 18.4023 102.925 18.4835 103.168 18.3711C103.412 18.2586 103.532 17.9994 103.433 17.7871H103.436Z" fill="#3E2F4D"/>
<g opacity="0.5">
<path d="M101.603 18.3368C101.249 18.1806 101.261 17.8871 101.36 17.5623C101.523 17.0282 101.967 16.7628 102.321 16.9189C102.675 17.0782 102.435 17.328 102.158 17.6684C101.942 17.937 101.955 18.4929 101.603 18.3368Z" fill="#EDEDED"/>
</g>
<path d="M119.771 24.2329C119.771 21.2035 117.35 18.752 114.364 18.752C111.379 18.752 108.954 21.2035 108.954 24.2329C108.954 27.2623 111.376 29.7139 114.364 29.7139C117.353 29.7139 119.771 27.2623 119.771 24.2329Z" fill="url(#paint1_linear_2695_3333)"/>
<g opacity="0.5">
<path d="M110.541 22.0404C110.181 21.8 110.165 21.3409 110.446 20.9036C110.729 20.4664 111.207 20.2166 111.564 20.457C111.921 20.6944 111.666 21.066 111.382 21.5001C111.099 21.9374 110.898 22.2778 110.541 22.0404Z" fill="#EDEDED"/>
</g>
<path d="M114.324 25.7133C114.749 25.5571 115.446 25.5571 115.871 25.7133L116.737 26.0224C117.162 26.1786 117.498 25.9287 117.485 25.4728L117.461 24.5452C117.448 24.0862 117.664 23.4147 117.938 23.0555L118.499 22.3185C118.773 21.9562 118.644 21.5534 118.212 21.4253L117.331 21.163C116.897 21.0349 116.336 20.6196 116.08 20.2417L115.563 19.4765C115.307 19.0986 114.891 19.0986 114.635 19.4765L114.118 20.2417C113.862 20.6196 113.301 21.0349 112.867 21.163L111.986 21.4253C111.555 21.5565 111.425 21.9594 111.699 22.3185L112.26 23.0555C112.534 23.4178 112.75 24.0893 112.735 24.5452L112.71 25.4728C112.698 25.9287 113.033 26.1786 113.462 26.0224L114.327 25.7133H114.324Z" fill="#1C2847"/>
<path d="M117.245 22.8774C117.245 21.6751 116.284 20.7007 115.098 20.7007C113.911 20.7007 112.95 21.6751 112.95 22.8774C112.95 24.0798 113.911 25.0542 115.098 25.0542C116.284 25.0542 117.245 24.0798 117.245 22.8774Z" fill="#3A2C47"/>
<path d="M116.999 22.8776C116.999 21.8126 116.148 20.9507 115.098 20.9507C114.047 20.9507 113.197 21.8126 113.197 22.8776C113.197 23.9426 114.047 24.8076 115.098 24.8076C116.148 24.8076 116.999 23.9457 116.999 22.8776Z" fill="#303D60"/>
<path d="M115.566 22.8775C115.566 22.6152 115.356 22.4028 115.098 22.4028C114.839 22.4028 114.629 22.6152 114.629 22.8775C114.629 23.1399 114.839 23.3522 115.098 23.3522C115.356 23.3522 115.566 23.1399 115.566 22.8775Z" fill="#3A2C47"/>
<path d="M111.588 26.519C111.588 23.4928 109.167 21.0381 106.178 21.0381C103.19 21.0381 100.771 23.4928 100.771 26.519C100.771 29.5453 103.193 32 106.178 32C109.164 32 111.588 29.5453 111.588 26.519Z" fill="url(#paint2_linear_2695_3333)"/>
<path d="M103.741 28.8831C104.185 28.8081 104.866 28.933 105.254 29.161L106.046 29.6263C106.434 29.8543 106.81 29.6701 106.878 29.2172L107.016 28.2991C107.084 27.8462 107.414 27.2247 107.747 26.9187L108.424 26.2941C108.757 25.988 108.702 25.5695 108.301 25.3634L107.485 24.948C107.084 24.7419 106.607 24.2328 106.422 23.8144L106.052 22.9649C105.87 22.5495 105.461 22.4714 105.146 22.7994L104.502 23.4583C104.185 23.7862 103.563 24.0892 103.116 24.1392L102.207 24.2391C101.76 24.2891 101.563 24.6607 101.77 25.0667L102.189 25.8943C102.392 26.3003 102.484 26.9967 102.392 27.4465L102.204 28.3553C102.112 28.8019 102.398 29.1079 102.842 29.033L103.745 28.8831H103.741Z" fill="#1C2847"/>
<path d="M107.103 26.6251C107.315 25.4446 106.545 24.314 105.387 24.0985C104.225 23.883 103.113 24.67 102.9 25.8506C102.688 27.0311 103.455 28.1679 104.616 28.3802C105.778 28.5957 106.89 27.8118 107.103 26.6251Z" fill="#3A2C47"/>
<path d="M106.862 26.5813C107.05 25.532 106.369 24.5326 105.34 24.3421C104.315 24.1547 103.329 24.848 103.138 25.8942C102.95 26.9436 103.631 27.9461 104.657 28.1366C105.686 28.324 106.671 27.6307 106.859 26.5813H106.862Z" fill="#394870"/>
<path d="M105.457 26.3222C105.504 26.063 105.337 25.8194 105.085 25.7726C104.832 25.7226 104.589 25.8944 104.542 26.1536C104.496 26.4097 104.663 26.6564 104.915 26.7064C105.168 26.7532 105.411 26.5814 105.457 26.3222Z" fill="#3A2C47"/>
<g opacity="0.7">
<path d="M102.602 23.449C102.392 23.2179 102.472 22.8337 102.737 22.5464C103.175 22.0717 103.812 21.9374 104.022 22.1685C104.231 22.4028 103.957 22.9618 103.532 23.2272C103.202 23.4334 102.811 23.6801 102.602 23.449Z" fill="#EDEDED"/>
</g>
</g>
<g clip-path="url(#clip3_2695_3333)">
<path d="M38.5118 19.8807C39.7195 24.2092 36.5554 28.9001 36.5554 28.9001C36.5554 28.9001 31.4381 26.5796 30.2335 22.2542C29.3462 18.0631 30.3783 15.2836 32.4024 14C34.6022 14.1936 37.073 16.0019 38.5118 19.8807Z" fill="#689524"/>
<path d="M32.3497 14.0344C30.3626 15.3305 29.352 18.0975 30.2301 22.2543C31.3577 26.2955 35.8958 28.5847 36.4873 28.8689L32.3497 14.0344Z" fill="#517D0C"/>
<path d="M36.3548 28.8064C36.4811 28.8688 36.555 28.9032 36.555 28.9032C36.555 28.9032 36.6013 28.8345 36.6783 28.7127L32.5807 14.025C32.5222 14.0156 32.4606 14.0062 32.402 14C32.3497 14.0312 32.3034 14.0687 32.2542 14.1031L36.3548 28.8064Z" fill="#80B92D"/>
<path d="M46.4384 27.1013C42.612 30.1931 36.5488 28.9345 36.5488 28.9345C36.5488 28.9345 36.6936 22.6666 40.5232 19.5747C44.3527 16.8733 47.5814 16.7515 49.735 18.2912C50.4805 20.6428 49.7196 23.9657 46.4353 27.1044L46.4384 27.1013Z" fill="#689524"/>
<path d="M49.6829 18.2504C47.5294 16.7514 44.3222 16.8919 40.5235 19.5715C36.9466 22.4572 36.5831 28.1161 36.5522 28.85L49.6829 18.2504Z" fill="#517D0C"/>
<path d="M36.5612 28.6813C36.5519 28.8375 36.5488 28.9312 36.5488 28.9312C36.5488 28.9312 36.6382 28.9499 36.7922 28.9749L49.7904 18.4815C49.7719 18.419 49.7596 18.3503 49.738 18.2878C49.6857 18.2472 49.6302 18.216 49.5717 18.1816L36.5612 28.6845V28.6813Z" fill="#80B92D"/>
<path d="M36.8169 27.7695C36.8169 24.7433 34.3954 22.2886 31.41 22.2886C28.4246 22.2886 26 24.7433 26 27.7695C26 30.7958 28.4216 33.2505 31.4069 33.2505C34.3923 33.2505 36.8139 30.7958 36.8139 27.7695H36.8169Z" fill="url(#paint3_linear_2695_3333)"/>
<path d="M30.3008 27.6103C30.6428 27.3043 31.2959 27.0013 31.7519 26.9389L32.6761 26.814C33.1321 26.7515 33.357 26.4048 33.1814 26.0426L32.8179 25.3024C32.6392 24.9433 32.5991 24.3061 32.7224 23.8939L32.9781 23.0569C33.1044 22.6447 32.8394 22.3761 32.3865 22.4604L31.4623 22.6353C31.0094 22.7165 30.3316 22.6291 29.9527 22.4323L29.1886 22.0388C28.8127 21.8452 28.4184 22.0294 28.3167 22.4417L28.1103 23.2849C28.0055 23.7003 27.6297 24.278 27.2723 24.5716L26.539 25.165C26.1817 25.4586 26.2063 25.8364 26.5945 26.0082L27.3863 26.358C27.7776 26.5298 28.2212 26.9795 28.3752 27.3542L28.6895 28.1131C28.8435 28.4879 29.2502 28.541 29.5953 28.2318L30.2946 27.6041L30.3008 27.6103Z" fill="#233259"/>
<path d="M32.0139 24.0595C31.5764 23.0913 30.3194 22.726 29.2072 23.2381C28.095 23.7534 27.5466 24.9558 27.9841 25.9271C28.4216 26.8952 29.6786 27.2606 30.7907 26.7453C31.9029 26.23 32.4513 25.0276 32.0169 24.0595H32.0139Z" fill="#3E2F4D"/>
<path d="M31.7827 24.1625C31.3975 23.3037 30.2823 22.982 29.2964 23.438C28.3105 23.894 27.8268 24.962 28.2119 25.8177C28.6001 26.6766 29.7123 27.0014 30.6951 26.5454C31.681 26.0863 32.1678 25.0214 31.7796 24.1625H31.7827Z" fill="#46537A"/>
<path d="M30.4364 24.7871C30.3408 24.5778 30.0666 24.4966 29.8233 24.609C29.5799 24.7215 29.4628 24.9807 29.5552 25.1931C29.6507 25.4023 29.9249 25.4835 30.1683 25.3711C30.4117 25.2586 30.5319 24.9994 30.4333 24.7871H30.4364Z" fill="#3E2F4D"/>
<g opacity="0.5">
<path d="M28.6033 25.3368C28.249 25.1806 28.2613 24.8871 28.3599 24.5623C28.5232 24.0282 28.9668 23.7628 29.3211 23.9189C29.6754 24.0782 29.4351 24.328 29.1578 24.6684C28.9422 24.937 28.9545 25.4929 28.6033 25.3368Z" fill="#EDEDED"/>
</g>
<path d="M46.7713 31.2329C46.7713 28.2035 44.3497 25.752 41.3644 25.752C38.379 25.752 35.9543 28.2035 35.9543 31.2329C35.9543 34.2623 38.3759 36.7139 41.3644 36.7139C44.3528 36.7139 46.7713 34.2623 46.7713 31.2329Z" fill="url(#paint4_linear_2695_3333)"/>
<g opacity="0.5">
<path d="M37.5411 29.0404C37.1806 28.8 37.1652 28.3409 37.4456 27.9036C37.729 27.4664 38.2066 27.2166 38.5639 27.457C38.9213 27.6944 38.6656 28.066 38.3822 28.5001C38.0987 28.9374 37.8985 29.2778 37.5411 29.0404Z" fill="#EDEDED"/>
</g>
<path d="M41.3243 32.7133C41.7495 32.5571 42.4457 32.5571 42.8709 32.7133L43.7366 33.0224C44.1618 33.1786 44.4976 32.9287 44.4853 32.4728L44.4606 31.5452C44.4483 31.0862 44.664 30.4147 44.9382 30.0555L45.4989 29.3185C45.7731 28.9562 45.6437 28.5534 45.2124 28.4253L44.3312 28.163C43.8968 28.0349 43.3361 27.6196 43.0804 27.2417L42.5628 26.4765C42.3071 26.0986 41.8912 26.0986 41.6355 26.4765L41.1179 27.2417C40.8622 27.6196 40.3015 28.0349 39.8671 28.163L38.9859 28.4253C38.5546 28.5565 38.4252 28.9594 38.6994 29.3185L39.2601 30.0555C39.5343 30.4178 39.75 31.0893 39.7346 31.5452L39.7099 32.4728C39.6976 32.9287 40.0334 33.1786 40.4617 33.0224L41.3274 32.7133H41.3243Z" fill="#1C2847"/>
<path d="M44.2449 29.8774C44.2449 28.6751 43.2837 27.7007 42.0976 27.7007C40.9114 27.7007 39.9502 28.6751 39.9502 29.8774C39.9502 31.0798 40.9114 32.0542 42.0976 32.0542C43.2837 32.0542 44.2449 31.0798 44.2449 29.8774Z" fill="#3A2C47"/>
<path d="M43.9986 29.8776C43.9986 28.8126 43.1483 27.9507 42.0977 27.9507C41.0471 27.9507 40.1968 28.8126 40.1968 29.8776C40.1968 30.9426 41.0471 31.8076 42.0977 31.8076C43.1483 31.8076 43.9986 30.9457 43.9986 29.8776Z" fill="#303D60"/>
<path d="M42.566 29.8775C42.566 29.6152 42.3565 29.4028 42.0977 29.4028C41.8389 29.4028 41.6294 29.6152 41.6294 29.8775C41.6294 30.1399 41.8389 30.3522 42.0977 30.3522C42.3565 30.3522 42.566 30.1399 42.566 29.8775Z" fill="#3A2C47"/>
<path d="M38.5884 33.519C38.5884 30.4928 36.1669 28.0381 33.1784 28.0381C30.19 28.0381 27.7715 30.4928 27.7715 33.519C27.7715 36.5453 30.1931 39 33.1784 39C36.1638 39 38.5884 36.5453 38.5884 33.519Z" fill="url(#paint5_linear_2695_3333)"/>
<path d="M30.7415 35.8831C31.1851 35.8081 31.866 35.933 32.2542 36.161L33.046 36.6263C33.4342 36.8543 33.81 36.6701 33.8778 36.2172L34.0164 35.2991C34.0842 34.8462 34.4139 34.2247 34.7466 33.9187L35.4244 33.2941C35.7571 32.988 35.7017 32.5695 35.3012 32.3634L34.4847 31.948C34.0842 31.7419 33.6067 31.2328 33.4218 30.8144L33.0521 29.9649C32.8704 29.5495 32.4606 29.4714 32.1463 29.7994L31.5024 30.4583C31.1851 30.7862 30.5628 31.0892 30.1161 31.1392L29.2072 31.2391C28.7605 31.2891 28.5633 31.6607 28.7697 32.0667L29.1887 32.8943C29.392 33.3003 29.4845 33.9967 29.392 34.4465L29.2041 35.3553C29.1117 35.8019 29.3982 36.1079 29.8419 36.033L30.7445 35.8831H30.7415Z" fill="#1C2847"/>
<path d="M34.1027 33.6251C34.3153 32.4446 33.545 31.314 32.3866 31.0985C31.2251 30.883 30.113 31.67 29.9004 32.8506C29.6878 34.0311 30.4549 35.1679 31.6164 35.3802C32.7779 35.5957 33.8901 34.8118 34.1027 33.6251Z" fill="#3A2C47"/>
<path d="M33.8624 33.5813C34.0503 32.532 33.3695 31.5326 32.3405 31.3421C31.3145 31.1547 30.3286 31.848 30.1376 32.8942C29.9497 33.9436 30.6306 34.9461 31.6565 35.1366C32.6855 35.324 33.6714 34.6307 33.8593 33.5813H33.8624Z" fill="#394870"/>
<path d="M32.4574 33.3222C32.5036 33.063 32.3372 32.8194 32.0846 32.7726C31.832 32.7226 31.5886 32.8944 31.5424 33.1536C31.4962 33.4097 31.6625 33.6564 31.9152 33.7064C32.1678 33.7532 32.4112 33.5814 32.4574 33.3222Z" fill="#3A2C47"/>
<g opacity="0.7">
<path d="M29.6016 30.449C29.3921 30.2179 29.4722 29.8337 29.7372 29.5464C30.1746 29.0717 30.8124 28.9374 31.0219 29.1685C31.2314 29.4028 30.9572 29.9618 30.532 30.2272C30.2024 30.4334 29.8111 30.6801 29.6016 30.449Z" fill="#EDEDED"/>
</g>
</g>
<path d="M65.9754 25.1176C67.2076 25.7603 68.541 26.2007 70.0454 26.3871C71.6895 26.5934 74.2517 27.0933 76.2728 26.8751C76.9639 26.4744 77.6655 25.9706 78.3741 25.3398C80.5767 23.3839 81.1108 20.1902 80.3114 18.1629C79.3096 15.6159 78.2485 15.366 77.5957 14.3543C76.943 13.3387 77.0512 12.1168 75.2186 10.264C73.756 8.78423 70.9216 8.40734 68.6143 10.2045C62.9839 14.5884 63.2561 20.825 65.4762 24.4471C65.6298 24.6772 65.7973 24.8994 65.9754 25.1136V25.1176Z" fill="url(#paint6_linear_2695_3333)"/>
<path d="M72.426 13.5609C71.7384 13.8545 71.11 13.9815 70.5934 13.1801C70.0768 12.3747 70.2444 11.371 70.8622 10.9981C71.686 10.4982 72.4923 10.8394 72.9217 11.7042C73.3964 12.6604 73.0857 13.2793 72.426 13.5609Z" fill="#EDEDED"/>
<path d="M78.5206 16.5205C78.196 16.7943 77.2291 16.3182 76.5693 15.3026C75.9096 14.279 75.8049 13.0928 76.133 12.823C76.4611 12.5493 76.8311 13.5133 77.4909 14.5369C78.1471 15.5605 78.8487 16.2508 78.5206 16.5245V16.5205Z" fill="#AC0D12"/>
<path d="M75.6748 10.869C77.0745 8.3894 78.1462 5.73924 79.2213 3.06528C80.3872 0.20089 82.0731 -3.68706 84 -4.9804L83.3437 -6C81.0748 -3.53234 79.902 -0.414042 78.5267 2.89072C76.8686 6.86595 75.1023 11.0435 71.9538 13.7056C71.6815 13.9317 71.4022 14.1499 71.1021 14.3522C71.1963 14.6855 71.3534 15.0346 71.5698 15.3679C71.7897 15.7091 72.048 15.9868 72.2959 16.205C72.9905 15.5781 74.8161 12.3607 75.6748 10.8729V10.869Z" fill="#8CA332"/>
<g clip-path="url(#clip4_2695_3333)">
<path d="M129.787 37.8198C131.267 37.9329 133.107 38.5738 133.044 39.2001C132.985 39.8236 131.048 40.1861 129.566 40.0759C128.089 39.9657 127 38.7478 127 38.7478C127 38.7478 128.308 37.7125 129.787 37.8198Z" fill="#849B0E"/>
<path d="M129.21 39.8382C130.354 39.4844 131.924 39.4177 132.052 39.8933C132.183 40.3659 130.823 41.2069 129.68 41.5577C128.533 41.9115 127.37 41.3374 127.37 41.3374C127.37 41.3374 128.064 40.1919 129.21 39.8382Z" fill="#7A8E0E"/>
<path d="M132.146 34.9955C132.49 36.4657 133.408 38.2143 134 38.0548C134.592 37.8953 134.634 35.8857 134.293 34.4155C133.949 32.9453 132.598 32.0435 132.598 32.0435C132.598 32.0435 131.804 33.5253 132.146 34.9955Z" fill="#7A8E0E"/>
<path d="M134.006 34.0908C133.846 35.3029 134.034 36.8891 134.515 36.9442C134.996 36.9993 135.59 35.5001 135.746 34.288C135.906 33.0787 135.163 32 135.163 32C135.163 32 134.165 32.8786 134.006 34.0908Z" fill="#849B0E"/>
<path d="M134.444 36.5789C134.179 36.8921 133.775 37.0893 133.294 37.0835C132.817 37.0806 132.344 36.8805 131.98 36.5615L130.228 35.042L129.511 35.9003L131.264 37.4227C131.631 37.7388 131.901 38.1796 131.98 38.661C132.06 39.1452 131.938 39.5831 131.673 39.8992L131.295 40.3515L132.154 41.0185L135.607 36.8834L134.825 36.1265L134.446 36.5789H134.444Z" fill="#A1B728"/>
<path d="M140.107 33.334C138.153 33.1049 136.179 33.6327 134.899 35.7815C134.478 36.489 133.565 38.0404 133.186 38.4928C132.808 38.948 131.451 40.1138 130.837 40.6531C128.963 42.2828 128.718 44.2257 129.298 46.2846C129.978 48.6885 131.852 50.2312 134.003 50.9475C137.078 51.9711 138.778 51.5506 141.623 51.829C143.068 51.9682 145.181 52.5192 146.999 50.4748C148.688 48.3202 147.818 46.2788 147.448 44.8521C146.726 42.0363 146.862 40.253 145.377 37.3242C144.339 35.2769 142.547 33.6211 140.11 33.3398L140.107 33.334Z" fill="#FB1803"/>
<path d="M139.012 34.3372C137.339 34.0994 135.672 34.4967 134.629 36.2801C134.284 36.8658 133.542 38.1533 133.232 38.5303C132.919 38.9015 131.79 39.8555 131.278 40.2963C129.716 41.6302 129.554 43.2628 130.095 45.0172C130.729 47.0645 132.362 48.4129 134.213 49.0711C136.859 50.0107 138.301 49.6917 140.73 49.9962C141.964 50.1499 143.779 50.666 145.281 48.9812C146.672 47.2036 145.884 45.458 145.534 44.24C144.851 41.8448 144.928 40.3456 143.594 37.8315C142.661 36.0742 141.097 34.633 139.012 34.3372Z" fill="#FF400F"/>
<path d="M146.165 39.7599C146.165 39.7599 143.002 41.465 142.03 40.9923C141.54 40.7574 141.589 39.9977 141.324 39.5569C142.385 38.4927 143.148 37.1762 143.933 35.8858C143.933 35.8858 141.791 38.8001 140.733 38.7363C140.639 38.7305 140.084 38.1128 139.851 37.933C140.542 36.8137 140.986 35.5233 141.458 34.2503C141.458 34.2503 140.064 37.2313 139.106 37.4314C138.713 37.5125 138.409 37.0602 138.059 36.9326C138.366 35.9785 138.426 34.9346 138.511 33.8965C138.511 33.8965 138.07 36.3845 137.405 36.7354C136.384 37.2777 135.203 36.5237 134.304 36.7789C133.892 37.4575 133.431 38.1969 133.192 38.4869C132.933 38.7972 132.219 39.4409 131.597 39.9861C131.511 40.914 132.45 41.9551 132.103 43.0541C131.881 43.7674 129.588 44.5881 129.588 44.5881C130.513 44.3677 131.412 44.2749 132.407 43.6601C132.595 43.9994 133.098 44.2285 133.084 44.6432C133.056 45.632 130.402 47.4937 130.402 47.4937C131.611 46.8499 132.791 46.1801 133.701 45.2927C133.92 45.4957 134.623 45.9307 134.643 46.0235C134.89 47.0848 132.384 49.7237 132.384 49.7237C133.497 48.7174 134.64 47.7402 135.559 46.4759C136.017 46.6586 136.731 46.4904 137.029 46.934C137.652 47.8475 136.489 51.3505 136.489 51.3505C137.075 50.0107 137.797 48.7609 137.999 47.1457C138.801 47.3081 140.414 47.5952 140.454 47.6329C141.236 48.3259 141.902 51.5911 141.902 51.5911C141.811 50.3384 141.831 49.0596 141.427 47.8794C142.778 48.2535 143.645 48.5579 144.132 47.9751C144.618 47.3893 144.152 46.6035 143.586 45.284C144.809 45.3884 146.035 45.2927 147.263 45.1652C147.263 45.1652 144.001 45.0289 143.216 44.3474C142.63 43.8399 142.527 42.7467 142.385 41.9232C143.731 41.4534 144.937 40.5805 146.168 39.7628L146.165 39.7599Z" fill="#FFB78E"/>
<path d="M132.219 39.4351C132.595 40.8705 133.681 42.883 135.65 44.3938C137.095 45.5044 138.816 45.4232 140.383 46.1859C142.078 47.0152 143.52 48.0794 143.822 47.717C144.112 47.369 142.906 46.1743 141.907 44.678C140.906 43.1788 140.636 41.3751 139.293 40.0267C137.519 38.2375 135.377 37.527 133.906 37.4255C133.622 37.8837 133.352 38.2955 133.187 38.4956C133.013 38.7044 132.638 39.0581 132.219 39.4351Z" fill="#FF6D4F"/>
</g>
<g clip-path="url(#clip5_2695_3333)">
<path d="M115.976 84.1908C117.208 84.8336 118.541 85.2739 120.046 85.4604C121.69 85.6667 124.252 86.1666 126.273 85.9484C126.964 85.5477 127.666 85.0438 128.375 84.413C130.577 82.4571 131.111 79.2635 130.312 77.2362C129.31 74.6892 128.249 74.4392 127.596 73.4276C126.943 72.4119 127.052 71.19 125.219 69.3373C123.756 67.8575 120.922 67.4806 118.615 69.2778C112.984 73.6616 113.257 79.8982 115.477 83.5204C115.63 83.7505 115.798 83.9726 115.976 84.1869V84.1908Z" fill="url(#paint7_linear_2695_3333)"/>
<path d="M122.427 72.6342C121.739 72.9278 121.111 73.0547 120.594 72.2533C120.077 71.448 120.245 70.4442 120.863 70.0713C121.686 69.5714 122.493 69.9126 122.922 70.7775C123.397 71.7336 123.086 72.3525 122.427 72.6342Z" fill="#EDEDED"/>
<path d="M128.521 75.5938C128.196 75.8675 127.23 75.3915 126.57 74.3758C125.91 73.3523 125.805 72.166 126.134 71.8963C126.462 71.6225 126.832 72.5866 127.491 73.6101C128.148 74.6337 128.849 75.324 128.521 75.5977V75.5938Z" fill="#AC0D12"/>
<path d="M130.675 69.869C132.075 67.3894 133.146 64.7392 134.221 62.0653C135.387 59.2009 137.073 55.3129 139 54.0196L138.344 53C136.075 55.4677 134.902 58.586 133.527 61.8907C131.869 65.866 130.102 70.0435 126.954 72.7056C126.681 72.9317 126.402 73.1499 126.102 73.3522C126.196 73.6855 126.353 74.0346 126.57 74.3679C126.79 74.7091 127.048 74.9868 127.296 75.205C127.99 74.5781 129.816 71.3607 130.675 69.8729V69.869Z" fill="#8CA332"/>
</g>
</g>
<defs>
<linearGradient id="paint0_linear_2695_3333" x1="101.033" y1="16.5066" x2="107.764" y2="24.7839" gradientUnits="userSpaceOnUse">
<stop offset="0.11" stop-color="#475A8B"/>
<stop offset="0.85" stop-color="#303D60"/>
</linearGradient>
<linearGradient id="paint1_linear_2695_3333" x1="110.988" y1="19.9668" x2="117.718" y2="28.2441" gradientUnits="userSpaceOnUse">
<stop offset="0.1" stop-color="#4A5D90"/>
<stop offset="0.78" stop-color="#344266"/>
</linearGradient>
<linearGradient id="paint2_linear_2695_3333" x1="102.266" y1="22.8432" x2="110.127" y2="30.0227" gradientUnits="userSpaceOnUse">
<stop offset="0.18" stop-color="#556CA7"/>
<stop offset="0.85" stop-color="#303D60"/>
</linearGradient>
<linearGradient id="paint3_linear_2695_3333" x1="28.0334" y1="23.5066" x2="34.764" y2="31.7839" gradientUnits="userSpaceOnUse">
<stop offset="0.11" stop-color="#475A8B"/>
<stop offset="0.85" stop-color="#303D60"/>
</linearGradient>
<linearGradient id="paint4_linear_2695_3333" x1="37.9877" y1="26.9668" x2="44.7184" y2="35.2441" gradientUnits="userSpaceOnUse">
<stop offset="0.1" stop-color="#4A5D90"/>
<stop offset="0.78" stop-color="#344266"/>
</linearGradient>
<linearGradient id="paint5_linear_2695_3333" x1="29.2657" y1="29.8432" x2="37.1268" y2="37.0227" gradientUnits="userSpaceOnUse">
<stop offset="0.18" stop-color="#556CA7"/>
<stop offset="0.85" stop-color="#303D60"/>
</linearGradient>
<linearGradient id="paint6_linear_2695_3333" x1="73.7634" y1="7.91515" x2="70.2599" y2="29.7877" gradientUnits="userSpaceOnUse">
<stop offset="0.07" stop-color="#D0343A"/>
<stop offset="0.86" stop-color="#AC0D12"/>
</linearGradient>
<linearGradient id="paint7_linear_2695_3333" x1="123.764" y1="66.9884" x2="120.26" y2="88.861" gradientUnits="userSpaceOnUse">
<stop offset="0.07" stop-color="#D0343A"/>
<stop offset="0.86" stop-color="#AC0D12"/>
</linearGradient>
<clipPath id="clip0_2695_3333">
<rect width="160" height="178" fill="white"/>
</clipPath>
<clipPath id="clip1_2695_3333">
<rect width="21" height="20" fill="white" transform="translate(9 48)"/>
</clipPath>
<clipPath id="clip2_2695_3333">
<rect width="24" height="25" fill="white" transform="translate(99 7)"/>
</clipPath>
<clipPath id="clip3_2695_3333">
<rect width="24" height="25" fill="white" transform="translate(26 14)"/>
</clipPath>
<clipPath id="clip4_2695_3333">
<rect width="21" height="20" fill="white" transform="translate(127 32)"/>
</clipPath>
<clipPath id="clip5_2695_3333">
<rect width="25" height="33" fill="white" transform="translate(114 53)"/>
</clipPath>
</defs>
</svg>
