<svg width="160" height="178" viewBox="0 0 160 178" fill="none" xmlns="http://www.w3.org/2000/svg">
<g clip-path="url(#clip0_2696_4633)">
<path d="M3.25732 52.6487V128.871C3.25732 140.407 9.61207 150.991 20.2011 159.322V83.1025C9.61207 74.7729 3.25732 64.1778 3.25732 52.6487Z" fill="#7E684F"/>
<path d="M20.2009 83.1024V159.322L79.9946 128.87V52.647L20.2009 83.1024Z" fill="#7E684F"/>
<path d="M61.021 138.537L79.9974 128.871V52.647L61.021 62.3112V138.537Z" fill="#7E684F"/>
<path d="M79.9946 52.6487V128.871L108.591 173.985V97.7575L79.9946 52.6487Z" fill="#7E684F"/>
<path d="M108.591 97.7574V173.985C136.807 166.799 156.741 149.313 156.741 128.871V52.647C156.743 73.0937 136.807 90.5781 108.591 97.7574Z" fill="#7E684F"/>
<path d="M79.9946 52.6487V87.9747L108.591 133.09V97.7575L79.9946 52.6487Z" fill="#7E684F"/>
<path d="M3.25732 52.6487V87.9747C3.25732 99.5119 9.61207 110.096 20.2011 118.429V83.1041C9.61207 74.7729 3.25732 64.1778 3.25732 52.6487Z" fill="#7E684F"/>
<path d="M20.2009 83.1024V118.428L79.9946 87.9746V52.647L20.2009 83.1024Z" fill="#7E684F"/>
<path d="M108.591 97.7573V133.091C136.807 125.901 156.741 108.418 156.741 87.9729V52.6453C156.743 73.0936 136.807 90.578 108.591 97.7573Z" fill="#7E684F"/>
<path d="M61.021 97.642L79.9974 87.9746V52.647L61.021 62.3112V97.642Z" fill="#7E684F"/>
<path d="M79.9948 4.03589C37.6147 4.03589 3.25732 25.7996 3.25732 52.647C3.25732 64.1746 9.60941 74.7697 20.2011 83.0993L79.9948 52.647L108.591 97.7559C136.805 90.575 156.742 73.0922 156.742 52.647C156.743 25.7996 122.377 4.03589 79.9948 4.03589Z" fill="#5A4225"/>
<path d="M126.359 13.9084C138.388 22.4896 145.708 33.7913 145.708 46.1663C145.708 65.1696 128.493 81.5917 103.417 89.5897L108.594 97.7559C136.807 90.5766 156.743 73.0922 156.743 52.6471C156.743 36.8338 144.812 22.7876 126.359 13.9084Z" fill="#5A4225"/>
<path d="M74.7608 55.3131L20.1997 83.1026C17.0822 80.6513 14.3814 77.9789 12.0466 75.1671L68.9651 46.168C68.9651 46.168 77.3139 42.2667 82.5571 50.356L74.7608 55.3131Z" fill="#5A4225"/>
<path d="M108.591 101.641C107.598 101.641 106.639 101.087 106.026 100.116L78.9536 57.4005L21.4614 86.6832C20.4764 87.1879 19.341 87.0645 18.4358 86.3564C6.56757 77.0158 0.0251465 65.0412 0.0251465 52.6469C0.0251465 23.204 35.1533 0.148926 79.9932 0.148926C124.842 0.148926 159.972 23.204 159.972 52.6469C159.972 74.518 140.062 93.7167 109.259 101.558C109.037 101.62 108.81 101.641 108.591 101.641ZM79.9945 48.7665C80.9795 48.7665 81.938 49.3032 82.5662 50.2917L109.907 93.4299C136.076 86.2026 153.512 69.9823 153.512 52.6485C153.512 28.4046 119.847 7.92101 79.9945 7.92101C40.1489 7.92101 6.48238 28.403 6.48238 52.6485C6.48238 61.8641 11.4674 71.0589 20.5603 78.7012L78.7379 49.0661C79.1479 48.8626 79.5752 48.7665 79.9945 48.7665Z" fill="#393732"/>
<path d="M2.3645 66.6157V78.742C2.3645 89.0525 8.75495 98.5152 19.4035 105.963V93.8354C8.75495 86.3875 2.3645 76.9276 2.3645 66.6157Z" fill="#EFE9E3"/>
<path d="M1.97046 86.314V98.4402C1.97046 108.751 8.3609 118.213 19.0094 125.661V113.534C8.3609 106.086 1.97046 96.6259 1.97046 86.314Z" fill="#EFE9E3"/>
<path d="M2.52637 105.932V118.058C2.52637 128.368 8.91681 137.831 19.5653 145.279V133.151C8.91681 125.703 2.52637 116.244 2.52637 105.932Z" fill="#EFE9E3"/>
<path d="M19.4036 93.8358V105.963L78.8321 78.7444V66.6157L19.4036 93.8358Z" fill="#EFE9E3"/>
<path d="M19.0093 113.534V125.661L78.4378 98.4426V86.314L19.0093 113.534Z" fill="#EFE9E3"/>
<path d="M19.5654 133.152V145.279L78.994 118.06V105.932L19.5654 133.152Z" fill="#EFE9E3"/>
<path d="M107.507 106.95V119.079C135.757 112.654 155.715 97.0231 155.715 78.7472V66.6157C155.715 84.896 135.755 100.525 107.507 106.95Z" fill="#EFE9E3"/>
<path d="M107.113 126.649V138.777C135.363 132.352 155.321 116.721 155.321 98.4454V86.314C155.321 104.594 135.361 120.223 107.113 126.649Z" fill="#EFE9E3"/>
<path d="M107.669 146.266V158.395C135.918 151.97 155.877 136.339 155.877 118.063V105.932C155.877 124.212 135.917 139.841 107.669 146.266Z" fill="#EFE9E3"/>
<path d="M108.591 177.87C107.598 177.87 106.639 177.316 106.026 176.337L78.9536 133.62L21.4614 162.904C20.4764 163.407 19.341 163.286 18.4358 162.579C6.56757 153.235 0.0251465 141.269 0.0251465 128.871V52.6469C0.0251465 50.5016 1.47074 48.7649 3.25576 48.7649C5.03812 48.7649 6.48105 50.5016 6.48105 52.6469C6.48105 61.8609 11.4661 71.0573 20.5589 78.6996L78.7366 49.0645C80.0917 48.3755 81.6731 48.877 82.5636 50.2901L109.905 93.4283C136.073 86.2009 153.509 69.9823 153.509 52.6469C153.509 50.5016 154.958 48.7649 156.74 48.7649C158.522 48.7649 159.971 50.5016 159.971 52.6469V128.871C159.971 150.731 140.061 169.943 109.258 177.785C109.037 177.838 108.81 177.87 108.591 177.87ZM79.9945 124.983C80.9795 124.983 81.938 125.523 82.5662 126.508L109.907 169.653C136.076 162.417 153.512 146.195 153.512 128.871V73.5407C145.292 86.1849 129.67 96.3618 109.26 101.559C108.025 101.875 106.783 101.309 106.027 100.117L78.9549 57.4021L21.4627 86.6832C20.4777 87.1879 19.3423 87.0645 18.4371 86.3579C13.5 82.4711 9.48538 78.1308 6.48371 73.5022V128.871C6.48371 138.09 11.4687 147.286 20.5616 154.924L78.7393 125.286C79.1479 125.084 79.5752 124.983 79.9945 124.983Z" fill="#393732"/>
<path d="M78.832 66.6157V78.7443L107.507 119.079V106.95L78.832 66.6157Z" fill="#EFE9E3"/>
<path d="M78.438 86.314V98.4425L107.113 138.777V126.649L78.438 86.314Z" fill="#EFE9E3"/>
<path d="M78.9939 105.932V118.06L107.669 158.395V146.266L78.9939 105.932Z" fill="#EFE9E3"/>
<g clip-path="url(#clip1_2696_4633)">
<path d="M14.6002 57.7045C14.6002 57.7045 14.192 58.5754 13.5389 58.8492C13.5389 58.8492 13.1702 59.2318 13.2544 59.7761H12.475C12.475 59.7761 12.475 60.8647 12.6779 61.0824L12.0247 61.3562C12.0247 61.3562 11.9233 62.5272 12.3934 62.5009C12.3934 62.5009 12.0891 62.8274 12.0173 62.9924C11.9456 63.154 12.1089 64.3547 12.3934 64.4075L12 64.4966C12 64.4966 12.3117 65.4961 12.6383 65.4961C12.6383 65.4961 12.1064 66.5319 12.2301 67.2939C12.3538 68.0559 12.475 67.8942 12.475 67.8942C12.475 67.8942 11.7798 68.8212 12.3513 69.5832C12.9228 70.3452 13.1282 70.0747 13.1282 70.0747C13.1282 70.0747 13.3731 71.5459 14.1277 71.4073C14.1277 71.4073 14.7611 72.3079 15.7408 72.1429C15.7408 72.1429 18.111 73.2876 19.1723 72.6872C19.1723 72.6872 21.2134 73.1227 22.0324 72.0869C22.0324 72.0869 24.0735 72.4695 24.8924 71.1599C24.8924 71.1599 26.8123 70.7773 27.2205 69.3621C27.2205 69.3621 27.9553 68.9267 28.5268 67.8381C29.0983 66.7496 29.5882 67.6732 29.8331 66.6407C30.078 65.6049 29.8331 64.6813 29.8331 64.6813C29.8331 64.6813 30.0508 62.8307 29.942 62.1776C29.8331 61.5244 27.8316 59.2912 27.8712 58.4731C27.9132 57.6551 28.361 56.7842 27.1759 56.5137C25.9909 56.2399 21.2926 55.9134 20.7211 56.0222C20.1496 56.1311 17.9427 56.6226 17.6978 57.0019C17.4529 57.3846 15.0085 57.0778 14.5928 57.7111" fill="#F4DBD2"/>
<path d="M25.4787 56.7151C25.7236 58.7207 23.7073 60.8286 20.9734 61.4223C18.242 62.0161 15.8273 60.8714 15.5824 58.8625C15.3375 56.8569 17.3538 54.7491 20.0877 54.1553C22.8191 53.5615 25.2338 54.7062 25.4787 56.7151Z" fill="#611709"/>
<path d="M14.1278 62.1642C13.7765 62.5172 14.3183 65.961 15.3401 65.839C15.9586 65.839 16.3495 64.7702 16.3495 64.7702C16.3495 64.7702 17.0793 65.839 17.7721 65.839C18.4648 65.839 18.1481 65.3343 18.1481 65.3343C18.1481 65.3343 19.6895 65.9181 20.3649 65.839C20.3649 65.839 21.4758 66.7527 23.0047 65.8456C23.7123 65.4266 24.3655 65.5487 25.1077 65.5586C25.8895 65.5718 26.4585 64.8857 27.134 64.4403C27.3443 64.3018 27.5595 64.1599 27.7945 64.1138C27.9009 64.094 28.037 64.0643 28.0642 63.9257C28.084 63.8202 28.0172 63.7113 27.938 63.6783C27.7599 63.6025 27.5224 63.6585 27.3245 63.5926C27.0672 63.5101 26.8123 63.4144 26.56 63.3155C26.0775 63.1241 25.5778 62.9163 25.1448 62.57C24.2269 61.8344 22.4481 61.2637 22.0819 62.1609C22.0819 62.1609 20.496 61.2406 19.452 61.7024C19.452 61.7024 16.6785 60.086 15.7978 61.5738C15.7978 61.5738 15.11 61.1812 14.1302 62.1609" fill="#EFE9E3"/>
<path d="M14.1648 68.0459C14.1549 67.5313 14.4048 67.0233 14.766 66.8353C14.8377 66.799 14.9169 66.7726 14.9911 66.799C15.0752 66.8287 15.1371 66.921 15.1965 67.0068C15.34 67.2245 15.4835 67.4422 15.627 67.6566C15.6665 67.0497 16.2702 66.6571 16.6537 66.987C16.8541 67.1585 16.9704 67.4587 17.0768 67.7457C17.1832 67.373 17.3563 66.9936 17.6384 66.8683C17.9204 66.7429 18.3014 67.0365 18.252 67.429C18.4251 67.0431 18.7492 66.7891 19.0857 66.7726C19.4222 66.7561 19.7587 66.9804 19.9516 67.3499C20.4242 66.7396 21.2307 66.6604 21.7651 67.1717C22.2154 66.6143 22.9626 66.5417 23.4673 67.0101C23.7642 66.5747 24.2788 66.6274 24.7216 66.6307C25.1967 66.6307 25.6717 66.5351 26.122 66.3405C26.2704 66.2778 26.4213 66.2019 26.5772 66.2118C26.7331 66.2217 26.8964 66.3504 26.9285 66.5516C26.9557 66.7264 26.8815 66.9012 26.8098 67.053C26.3471 68.0261 25.8375 69.0553 25.0433 69.5072C24.875 69.6029 24.6598 69.659 24.5287 69.494C24.4272 69.3654 24.3604 69.1114 24.2244 69.1576C24.1254 69.1905 24.1031 69.3621 24.0512 69.4775C23.9621 69.6688 23.7741 69.715 23.6058 69.7381C23.0269 69.814 22.4406 69.7942 21.8641 69.6787C21.7874 70.1175 21.4806 70.4506 21.1466 70.5331C20.8126 70.6156 20.4638 70.4803 20.1793 70.2362C20.0803 70.1538 19.9739 70.0515 19.8601 70.0713C19.7883 70.0845 19.7265 70.1439 19.6671 70.1966C19.4098 70.4308 19.1105 70.6255 18.7987 70.6156C18.487 70.6057 18.1629 70.3385 18.0936 69.9327C17.7769 70.0944 17.4479 70.2527 17.1114 70.2263C16.7725 70.1966 16.4236 69.9327 16.3321 69.4973C16.1787 69.6491 16.0228 69.8008 15.8422 69.8767C15.6616 69.9525 15.4464 69.936 15.3029 69.7711C15.1594 69.6062 15.1247 69.273 15.2633 69.1015C14.9961 69.2961 14.6448 69.3324 14.3924 69.1015C14.1376 68.8739 14.0361 68.356 14.2266 68.036" fill="#EFE9E3"/>
<g opacity="0.74">
<mask id="mask0_2696_4633" style="mask-type:luminance" maskUnits="userSpaceOnUse" x="12" y="57" width="16" height="16">
<path d="M27.1017 57.2031H12.1113V72.7598H27.1017V57.2031Z" fill="white"/>
</mask>
<g mask="url(#mask0_2696_4633)">
<path d="M23.8236 70.8134C23.0071 71.8492 20.9635 71.4138 20.9635 71.4138C19.9022 72.0142 17.532 70.8695 17.532 70.8695C16.5523 71.0344 15.9189 70.1339 15.9189 70.1339C15.1643 70.2691 14.9194 68.8012 14.9194 68.8012C14.9194 68.8012 14.714 69.075 14.1425 68.3097C13.571 67.5477 14.2662 66.6208 14.2662 66.6208C14.2662 66.6208 14.1425 66.7857 14.0213 66.0204C13.8976 65.2584 14.4295 64.2226 14.4295 64.2226C14.103 64.2226 13.7912 63.2231 13.7912 63.2231L14.1846 63.1341C13.8976 63.078 13.7343 61.8806 13.8085 61.7189C13.8803 61.554 14.1846 61.2274 14.1846 61.2274C13.7145 61.2538 13.816 60.0828 13.816 60.0828L14.4691 59.809C14.2638 59.5913 14.2638 58.5027 14.2638 58.5027H15.0406C14.959 57.9584 15.3276 57.5758 15.3276 57.5758C15.528 57.4933 15.7037 57.3547 15.8521 57.1997C15.3301 57.2591 14.8699 57.3613 14.7091 57.6054C14.7091 57.6054 14.3009 58.4763 13.6477 58.7501C13.6477 58.7501 13.2791 59.1327 13.3607 59.677H12.5839C12.5839 59.677 12.5839 60.7656 12.7892 60.9833L12.1361 61.2571C12.1361 61.2571 12.0346 62.4281 12.5047 62.4018C12.5047 62.4018 12.2004 62.7283 12.1286 62.8933C12.0569 63.0582 12.2202 64.2556 12.5047 64.3084L12.1113 64.3975C12.1113 64.3975 12.4231 65.397 12.7496 65.397C12.7496 65.397 12.2177 66.4328 12.3414 67.1948C12.4651 67.9568 12.5863 67.7951 12.5863 67.7951C12.5863 67.7951 11.8911 68.7221 12.4626 69.4841C13.0342 70.2461 13.2395 69.9756 13.2395 69.9756C13.2395 69.9756 13.4844 71.4468 14.239 71.3082C14.239 71.3082 14.8724 72.2055 15.8521 72.0438C15.8521 72.0438 18.2223 73.1885 19.2837 72.5881C19.2837 72.5881 21.3248 73.0236 22.1437 71.9878C22.1437 71.9878 24.1848 72.3704 25.0037 71.0608C25.0037 71.0608 26.4535 70.7738 27.1017 69.7677C26.8543 69.8502 26.6836 69.8865 26.6836 69.8865C25.8672 71.1928 23.8236 70.8134 23.8236 70.8134Z" fill="#C6B0A9"/>
</g>
</g>
<g opacity="0.65">
<mask id="mask1_2696_4633" style="mask-type:luminance" maskUnits="userSpaceOnUse" x="16" y="55" width="8" height="4">
<path d="M23.9251 55.5999H16.394V58.8095H23.9251V55.5999Z" fill="white"/>
</mask>
<g mask="url(#mask1_2696_4633)">
<path d="M23.9204 56.3884C24.0144 57.1504 22.4062 58.1334 20.328 58.5853C18.2498 59.0372 16.4907 58.7832 16.3992 58.0212C16.3052 57.2592 17.9133 56.2762 19.9915 55.8243C22.0698 55.3724 23.8288 55.6264 23.9204 56.3884Z" fill="#85372A"/>
</g>
</g>
</g>
<g clip-path="url(#clip2_2696_4633)">
<path d="M40.6002 12.7045C40.6002 12.7045 40.192 13.5754 39.5389 13.8492C39.5389 13.8492 39.1702 14.2318 39.2544 14.7761H38.475C38.475 14.7761 38.475 15.8647 38.6779 16.0824L38.0247 16.3562C38.0247 16.3562 37.9233 17.5272 38.3934 17.5009C38.3934 17.5009 38.0891 17.8274 38.0173 17.9924C37.9456 18.154 38.1089 19.3547 38.3934 19.4075L38 19.4966C38 19.4966 38.3117 20.4961 38.6383 20.4961C38.6383 20.4961 38.1064 21.5319 38.2301 22.2939C38.3538 23.0559 38.475 22.8942 38.475 22.8942C38.475 22.8942 37.7798 23.8212 38.3513 24.5832C38.9228 25.3452 39.1282 25.0747 39.1282 25.0747C39.1282 25.0747 39.3731 26.5459 40.1277 26.4073C40.1277 26.4073 40.7611 27.3079 41.7408 27.1429C41.7408 27.1429 44.111 28.2876 45.1723 27.6872C45.1723 27.6872 47.2134 28.1227 48.0324 27.0869C48.0324 27.0869 50.0735 27.4695 50.8924 26.1599C50.8924 26.1599 52.8123 25.7773 53.2205 24.3621C53.2205 24.3621 53.9553 23.9267 54.5268 22.8381C55.0983 21.7496 55.5882 22.6732 55.8331 21.6407C56.078 20.6049 55.8331 19.6813 55.8331 19.6813C55.8331 19.6813 56.0508 17.8307 55.942 17.1776C55.8331 16.5244 53.8316 14.2912 53.8712 13.4731C53.9132 12.6551 54.361 11.7842 53.1759 11.5137C51.9909 11.2399 47.2926 10.9134 46.7211 11.0222C46.1496 11.1311 43.9427 11.6226 43.6978 12.0019C43.4529 12.3846 41.0085 12.0778 40.5928 12.7111" fill="#F4DBD2"/>
<path d="M51.4787 11.7151C51.7236 13.7207 49.7073 15.8286 46.9734 16.4223C44.242 17.0161 41.8273 15.8714 41.5824 13.8625C41.3375 11.8569 43.3538 9.74906 46.0877 9.1553C48.8191 8.56153 51.2338 9.70618 51.4787 11.7151Z" fill="#611709"/>
<path d="M40.1278 17.1642C39.7765 17.5172 40.3183 20.961 41.3401 20.839C41.9586 20.839 42.3495 19.7702 42.3495 19.7702C42.3495 19.7702 43.0793 20.839 43.7721 20.839C44.4648 20.839 44.1481 20.3343 44.1481 20.3343C44.1481 20.3343 45.6895 20.9181 46.3649 20.839C46.3649 20.839 47.4758 21.7527 49.0047 20.8456C49.7123 20.4266 50.3655 20.5487 51.1077 20.5586C51.8895 20.5718 52.4585 19.8857 53.134 19.4403C53.3443 19.3018 53.5595 19.1599 53.7945 19.1138C53.9009 19.094 54.037 19.0643 54.0642 18.9257C54.084 18.8202 54.0172 18.7113 53.938 18.6783C53.7599 18.6025 53.5224 18.6585 53.3245 18.5926C53.0672 18.5101 52.8123 18.4144 52.56 18.3155C52.0775 18.1241 51.5778 17.9163 51.1448 17.57C50.2269 16.8344 48.4481 16.2637 48.0819 17.1609C48.0819 17.1609 46.496 16.2406 45.452 16.7024C45.452 16.7024 42.6785 15.086 41.7978 16.5738C41.7978 16.5738 41.11 16.1812 40.1302 17.1609" fill="#EFE9E3"/>
<path d="M40.1648 23.0459C40.1549 22.5313 40.4048 22.0233 40.766 21.8353C40.8377 21.799 40.9169 21.7726 40.9911 21.799C41.0752 21.8287 41.1371 21.921 41.1965 22.0068C41.34 22.2245 41.4835 22.4422 41.627 22.6566C41.6665 22.0497 42.2702 21.6571 42.6537 21.987C42.8541 22.1585 42.9704 22.4587 43.0768 22.7457C43.1832 22.373 43.3563 21.9936 43.6384 21.8683C43.9204 21.7429 44.3014 22.0365 44.252 22.429C44.4251 22.0431 44.7492 21.7891 45.0857 21.7726C45.4222 21.7561 45.7587 21.9804 45.9516 22.3499C46.4242 21.7396 47.2307 21.6604 47.7651 22.1717C48.2154 21.6143 48.9626 21.5417 49.4673 22.0101C49.7642 21.5747 50.2788 21.6274 50.7216 21.6307C51.1967 21.6307 51.6717 21.5351 52.122 21.3405C52.2704 21.2778 52.4213 21.2019 52.5772 21.2118C52.7331 21.2217 52.8964 21.3504 52.9285 21.5516C52.9557 21.7264 52.8815 21.9012 52.8098 22.053C52.3471 23.0261 51.8375 24.0553 51.0433 24.5072C50.875 24.6029 50.6598 24.659 50.5287 24.494C50.4272 24.3654 50.3604 24.1114 50.2244 24.1576C50.1254 24.1905 50.1031 24.3621 50.0512 24.4775C49.9621 24.6688 49.7741 24.715 49.6058 24.7381C49.0269 24.814 48.4406 24.7942 47.8641 24.6787C47.7874 25.1175 47.4806 25.4506 47.1466 25.5331C46.8126 25.6156 46.4638 25.4803 46.1793 25.2362C46.0803 25.1538 45.9739 25.0515 45.8601 25.0713C45.7883 25.0845 45.7265 25.1439 45.6671 25.1966C45.4098 25.4308 45.1105 25.6255 44.7987 25.6156C44.487 25.6057 44.1629 25.3385 44.0936 24.9327C43.7769 25.0944 43.4479 25.2527 43.1114 25.2263C42.7725 25.1966 42.4236 24.9327 42.3321 24.4973C42.1787 24.6491 42.0228 24.8008 41.8422 24.8767C41.6616 24.9525 41.4464 24.936 41.3029 24.7711C41.1594 24.6062 41.1247 24.273 41.2633 24.1015C40.9961 24.2961 40.6448 24.3324 40.3924 24.1015C40.1376 23.8739 40.0361 23.356 40.2266 23.036" fill="#EFE9E3"/>
<g opacity="0.74">
<mask id="mask2_2696_4633" style="mask-type:luminance" maskUnits="userSpaceOnUse" x="38" y="12" width="16" height="16">
<path d="M53.1017 12.2031H38.1113V27.7598H53.1017V12.2031Z" fill="white"/>
</mask>
<g mask="url(#mask2_2696_4633)">
<path d="M49.8236 25.8134C49.0071 26.8492 46.9635 26.4138 46.9635 26.4138C45.9022 27.0142 43.532 25.8695 43.532 25.8695C42.5523 26.0344 41.9189 25.1339 41.9189 25.1339C41.1643 25.2691 40.9194 23.8012 40.9194 23.8012C40.9194 23.8012 40.714 24.075 40.1425 23.3097C39.571 22.5477 40.2662 21.6208 40.2662 21.6208C40.2662 21.6208 40.1425 21.7857 40.0213 21.0204C39.8976 20.2584 40.4295 19.2226 40.4295 19.2226C40.103 19.2226 39.7912 18.2231 39.7912 18.2231L40.1846 18.1341C39.8976 18.078 39.7343 16.8806 39.8085 16.7189C39.8803 16.554 40.1846 16.2274 40.1846 16.2274C39.7145 16.2538 39.816 15.0828 39.816 15.0828L40.4691 14.809C40.2638 14.5913 40.2638 13.5027 40.2638 13.5027H41.0406C40.959 12.9584 41.3276 12.5758 41.3276 12.5758C41.528 12.4933 41.7037 12.3547 41.8521 12.1997C41.3301 12.2591 40.8699 12.3613 40.7091 12.6054C40.7091 12.6054 40.3009 13.4763 39.6477 13.7501C39.6477 13.7501 39.2791 14.1327 39.3607 14.677H38.5839C38.5839 14.677 38.5839 15.7656 38.7892 15.9833L38.1361 16.2571C38.1361 16.2571 38.0346 17.4281 38.5047 17.4018C38.5047 17.4018 38.2004 17.7283 38.1286 17.8933C38.0569 18.0582 38.2202 19.2556 38.5047 19.3084L38.1113 19.3975C38.1113 19.3975 38.4231 20.397 38.7496 20.397C38.7496 20.397 38.2177 21.4328 38.3414 22.1948C38.4651 22.9568 38.5863 22.7951 38.5863 22.7951C38.5863 22.7951 37.8911 23.7221 38.4626 24.4841C39.0342 25.2461 39.2395 24.9756 39.2395 24.9756C39.2395 24.9756 39.4844 26.4468 40.239 26.3082C40.239 26.3082 40.8724 27.2055 41.8521 27.0438C41.8521 27.0438 44.2223 28.1885 45.2837 27.5881C45.2837 27.5881 47.3248 28.0236 48.1437 26.9878C48.1437 26.9878 50.1848 27.3704 51.0037 26.0608C51.0037 26.0608 52.4535 25.7738 53.1017 24.7677C52.8543 24.8502 52.6836 24.8865 52.6836 24.8865C51.8672 26.1928 49.8236 25.8134 49.8236 25.8134Z" fill="#C6B0A9"/>
</g>
</g>
<g opacity="0.65">
<mask id="mask3_2696_4633" style="mask-type:luminance" maskUnits="userSpaceOnUse" x="42" y="10" width="8" height="4">
<path d="M49.9251 10.5999H42.394V13.8095H49.9251V10.5999Z" fill="white"/>
</mask>
<g mask="url(#mask3_2696_4633)">
<path d="M49.9201 11.3884C50.0141 12.1504 48.406 13.1334 46.3278 13.5853C44.2495 14.0372 42.4905 13.7832 42.3989 13.0212C42.3049 12.2592 43.9131 11.2762 45.9913 10.8243C48.0695 10.3724 49.8286 10.6264 49.9201 11.3884Z" fill="#85372A"/>
</g>
</g>
</g>
<g clip-path="url(#clip3_2696_4633)">
<path d="M103.6 12.7045C103.6 12.7045 103.192 13.5754 102.539 13.8492C102.539 13.8492 102.17 14.2318 102.254 14.7761H101.475C101.475 14.7761 101.475 15.8647 101.678 16.0824L101.025 16.3562C101.025 16.3562 100.923 17.5272 101.393 17.5009C101.393 17.5009 101.089 17.8274 101.017 17.9924C100.946 18.154 101.109 19.3547 101.393 19.4075L101 19.4966C101 19.4966 101.312 20.4961 101.638 20.4961C101.638 20.4961 101.106 21.5319 101.23 22.2939C101.354 23.0559 101.475 22.8942 101.475 22.8942C101.475 22.8942 100.78 23.8212 101.351 24.5832C101.923 25.3452 102.128 25.0747 102.128 25.0747C102.128 25.0747 102.373 26.5459 103.128 26.4073C103.128 26.4073 103.761 27.3079 104.741 27.1429C104.741 27.1429 107.111 28.2876 108.172 27.6872C108.172 27.6872 110.213 28.1227 111.032 27.0869C111.032 27.0869 113.073 27.4695 113.892 26.1599C113.892 26.1599 115.812 25.7773 116.22 24.3621C116.22 24.3621 116.955 23.9267 117.527 22.8381C118.098 21.7496 118.588 22.6732 118.833 21.6407C119.078 20.6049 118.833 19.6813 118.833 19.6813C118.833 19.6813 119.051 17.8307 118.942 17.1776C118.833 16.5244 116.832 14.2912 116.871 13.4731C116.913 12.6551 117.361 11.7842 116.176 11.5137C114.991 11.2399 110.293 10.9134 109.721 11.0222C109.15 11.1311 106.943 11.6226 106.698 12.0019C106.453 12.3846 104.008 12.0778 103.593 12.7111" fill="#F4DBD2"/>
<path d="M114.479 11.7151C114.724 13.7207 112.707 15.8286 109.973 16.4223C107.242 17.0161 104.827 15.8714 104.582 13.8625C104.337 11.8569 106.354 9.74906 109.088 9.1553C111.819 8.56153 114.234 9.70618 114.479 11.7151Z" fill="#611709"/>
<path d="M103.128 17.1642C102.776 17.5172 103.318 20.961 104.34 20.839C104.959 20.839 105.349 19.7702 105.349 19.7702C105.349 19.7702 106.079 20.839 106.772 20.839C107.465 20.839 107.148 20.3343 107.148 20.3343C107.148 20.3343 108.689 20.9181 109.365 20.839C109.365 20.839 110.476 21.7527 112.005 20.8456C112.712 20.4266 113.365 20.5487 114.108 20.5586C114.89 20.5718 115.459 19.8857 116.134 19.4403C116.344 19.3018 116.56 19.1599 116.795 19.1138C116.901 19.094 117.037 19.0643 117.064 18.9257C117.084 18.8202 117.017 18.7113 116.938 18.6783C116.76 18.6025 116.522 18.6585 116.324 18.5926C116.067 18.5101 115.812 18.4144 115.56 18.3155C115.078 18.1241 114.578 17.9163 114.145 17.57C113.227 16.8344 111.448 16.2637 111.082 17.1609C111.082 17.1609 109.496 16.2406 108.452 16.7024C108.452 16.7024 105.679 15.086 104.798 16.5738C104.798 16.5738 104.11 16.1812 103.13 17.1609" fill="#EFE9E3"/>
<path d="M103.165 23.0459C103.155 22.5313 103.405 22.0233 103.766 21.8353C103.838 21.799 103.917 21.7726 103.991 21.799C104.075 21.8287 104.137 21.921 104.196 22.0068C104.34 22.2245 104.483 22.4422 104.627 22.6566C104.667 22.0497 105.27 21.6571 105.654 21.987C105.854 22.1585 105.97 22.4587 106.077 22.7457C106.183 22.373 106.356 21.9936 106.638 21.8683C106.92 21.7429 107.301 22.0365 107.252 22.429C107.425 22.0431 107.749 21.7891 108.086 21.7726C108.422 21.7561 108.759 21.9804 108.952 22.3499C109.424 21.7396 110.231 21.6604 110.765 22.1717C111.215 21.6143 111.963 21.5417 112.467 22.0101C112.764 21.5747 113.279 21.6274 113.722 21.6307C114.197 21.6307 114.672 21.5351 115.122 21.3405C115.27 21.2778 115.421 21.2019 115.577 21.2118C115.733 21.2217 115.896 21.3504 115.929 21.5516C115.956 21.7264 115.882 21.9012 115.81 22.053C115.347 23.0261 114.837 24.0553 114.043 24.5072C113.875 24.6029 113.66 24.659 113.529 24.494C113.427 24.3654 113.36 24.1114 113.224 24.1576C113.125 24.1905 113.103 24.3621 113.051 24.4775C112.962 24.6688 112.774 24.715 112.606 24.7381C112.027 24.814 111.441 24.7942 110.864 24.6787C110.787 25.1175 110.481 25.4506 110.147 25.5331C109.813 25.6156 109.464 25.4803 109.179 25.2362C109.08 25.1538 108.974 25.0515 108.86 25.0713C108.788 25.0845 108.726 25.1439 108.667 25.1966C108.41 25.4308 108.11 25.6255 107.799 25.6156C107.487 25.6057 107.163 25.3385 107.094 24.9327C106.777 25.0944 106.448 25.2527 106.111 25.2263C105.772 25.1966 105.424 24.9327 105.332 24.4973C105.179 24.6491 105.023 24.8008 104.842 24.8767C104.662 24.9525 104.446 24.936 104.303 24.7711C104.159 24.6062 104.125 24.273 104.263 24.1015C103.996 24.2961 103.645 24.3324 103.392 24.1015C103.138 23.8739 103.036 23.356 103.227 23.036" fill="#EFE9E3"/>
<g opacity="0.74">
<mask id="mask4_2696_4633" style="mask-type:luminance" maskUnits="userSpaceOnUse" x="101" y="12" width="16" height="16">
<path d="M116.102 12.2031H101.111V27.7598H116.102V12.2031Z" fill="white"/>
</mask>
<g mask="url(#mask4_2696_4633)">
<path d="M112.824 25.8134C112.007 26.8492 109.964 26.4138 109.964 26.4138C108.902 27.0142 106.532 25.8695 106.532 25.8695C105.552 26.0344 104.919 25.1339 104.919 25.1339C104.164 25.2691 103.919 23.8012 103.919 23.8012C103.919 23.8012 103.714 24.075 103.143 23.3097C102.571 22.5477 103.266 21.6208 103.266 21.6208C103.266 21.6208 103.143 21.7857 103.021 21.0204C102.898 20.2584 103.43 19.2226 103.43 19.2226C103.103 19.2226 102.791 18.2231 102.791 18.2231L103.185 18.1341C102.898 18.078 102.734 16.8806 102.809 16.7189C102.88 16.554 103.185 16.2274 103.185 16.2274C102.715 16.2538 102.816 15.0828 102.816 15.0828L103.469 14.809C103.264 14.5913 103.264 13.5027 103.264 13.5027H104.041C103.959 12.9584 104.328 12.5758 104.328 12.5758C104.528 12.4933 104.704 12.3547 104.852 12.1997C104.33 12.2591 103.87 12.3613 103.709 12.6054C103.709 12.6054 103.301 13.4763 102.648 13.7501C102.648 13.7501 102.279 14.1327 102.361 14.677H101.584C101.584 14.677 101.584 15.7656 101.789 15.9833L101.136 16.2571C101.136 16.2571 101.035 17.4281 101.505 17.4018C101.505 17.4018 101.2 17.7283 101.129 17.8933C101.057 18.0582 101.22 19.2556 101.505 19.3084L101.111 19.3975C101.111 19.3975 101.423 20.397 101.75 20.397C101.75 20.397 101.218 21.4328 101.341 22.1948C101.465 22.9568 101.586 22.7951 101.586 22.7951C101.586 22.7951 100.891 23.7221 101.463 24.4841C102.034 25.2461 102.24 24.9756 102.24 24.9756C102.24 24.9756 102.484 26.4468 103.239 26.3082C103.239 26.3082 103.872 27.2055 104.852 27.0438C104.852 27.0438 107.222 28.1885 108.284 27.5881C108.284 27.5881 110.325 28.0236 111.144 26.9878C111.144 26.9878 113.185 27.3704 114.004 26.0608C114.004 26.0608 115.454 25.7738 116.102 24.7677C115.854 24.8502 115.684 24.8865 115.684 24.8865C114.867 26.1928 112.824 25.8134 112.824 25.8134Z" fill="#C6B0A9"/>
</g>
</g>
<g opacity="0.65">
<mask id="mask5_2696_4633" style="mask-type:luminance" maskUnits="userSpaceOnUse" x="105" y="10" width="8" height="4">
<path d="M112.925 10.5999H105.394V13.8095H112.925V10.5999Z" fill="white"/>
</mask>
<g mask="url(#mask5_2696_4633)">
<path d="M112.92 11.3884C113.014 12.1504 111.406 13.1334 109.328 13.5853C107.25 14.0372 105.49 13.7832 105.399 13.0212C105.305 12.2592 106.913 11.2762 108.991 10.8243C111.07 10.3724 112.829 10.6264 112.92 11.3884Z" fill="#85372A"/>
</g>
</g>
</g>
<g clip-path="url(#clip4_2696_4633)">
<path d="M137.6 52.7045C137.6 52.7045 137.192 53.5754 136.539 53.8492C136.539 53.8492 136.17 54.2318 136.254 54.7761H135.475C135.475 54.7761 135.475 55.8647 135.678 56.0824L135.025 56.3562C135.025 56.3562 134.923 57.5272 135.393 57.5009C135.393 57.5009 135.089 57.8274 135.017 57.9924C134.946 58.154 135.109 59.3547 135.393 59.4075L135 59.4966C135 59.4966 135.312 60.4961 135.638 60.4961C135.638 60.4961 135.106 61.5319 135.23 62.2939C135.354 63.0559 135.475 62.8942 135.475 62.8942C135.475 62.8942 134.78 63.8212 135.351 64.5832C135.923 65.3452 136.128 65.0747 136.128 65.0747C136.128 65.0747 136.373 66.5459 137.128 66.4073C137.128 66.4073 137.761 67.3079 138.741 67.1429C138.741 67.1429 141.111 68.2876 142.172 67.6872C142.172 67.6872 144.213 68.1227 145.032 67.0869C145.032 67.0869 147.073 67.4695 147.892 66.1599C147.892 66.1599 149.812 65.7773 150.22 64.3621C150.22 64.3621 150.955 63.9267 151.527 62.8381C152.098 61.7496 152.588 62.6732 152.833 61.6407C153.078 60.6049 152.833 59.6813 152.833 59.6813C152.833 59.6813 153.051 57.8307 152.942 57.1776C152.833 56.5244 150.832 54.2912 150.871 53.4731C150.913 52.6551 151.361 51.7842 150.176 51.5137C148.991 51.2399 144.293 50.9134 143.721 51.0222C143.15 51.1311 140.943 51.6226 140.698 52.0019C140.453 52.3846 138.008 52.0778 137.593 52.7111" fill="#F4DBD2"/>
<path d="M148.479 51.7151C148.724 53.7207 146.707 55.8286 143.973 56.4223C141.242 57.0161 138.827 55.8714 138.582 53.8625C138.337 51.8569 140.354 49.7491 143.088 49.1553C145.819 48.5615 148.234 49.7062 148.479 51.7151Z" fill="#611709"/>
<path d="M137.128 57.1642C136.776 57.5172 137.318 60.961 138.34 60.839C138.959 60.839 139.349 59.7702 139.349 59.7702C139.349 59.7702 140.079 60.839 140.772 60.839C141.465 60.839 141.148 60.3343 141.148 60.3343C141.148 60.3343 142.689 60.9181 143.365 60.839C143.365 60.839 144.476 61.7527 146.005 60.8456C146.712 60.4266 147.365 60.5487 148.108 60.5586C148.89 60.5718 149.459 59.8857 150.134 59.4403C150.344 59.3018 150.56 59.1599 150.795 59.1138C150.901 59.094 151.037 59.0643 151.064 58.9257C151.084 58.8202 151.017 58.7113 150.938 58.6783C150.76 58.6025 150.522 58.6585 150.324 58.5926C150.067 58.5101 149.812 58.4144 149.56 58.3155C149.078 58.1241 148.578 57.9163 148.145 57.57C147.227 56.8344 145.448 56.2637 145.082 57.1609C145.082 57.1609 143.496 56.2406 142.452 56.7024C142.452 56.7024 139.679 55.086 138.798 56.5738C138.798 56.5738 138.11 56.1812 137.13 57.1609" fill="#EFE9E3"/>
<path d="M137.165 63.0459C137.155 62.5313 137.405 62.0233 137.766 61.8353C137.838 61.799 137.917 61.7726 137.991 61.799C138.075 61.8287 138.137 61.921 138.196 62.0068C138.34 62.2245 138.483 62.4422 138.627 62.6566C138.667 62.0497 139.27 61.6571 139.654 61.987C139.854 62.1585 139.97 62.4587 140.077 62.7457C140.183 62.373 140.356 61.9936 140.638 61.8683C140.92 61.7429 141.301 62.0365 141.252 62.429C141.425 62.0431 141.749 61.7891 142.086 61.7726C142.422 61.7561 142.759 61.9804 142.952 62.3499C143.424 61.7396 144.231 61.6604 144.765 62.1717C145.215 61.6143 145.963 61.5417 146.467 62.0101C146.764 61.5747 147.279 61.6274 147.722 61.6307C148.197 61.6307 148.672 61.5351 149.122 61.3405C149.27 61.2778 149.421 61.2019 149.577 61.2118C149.733 61.2217 149.896 61.3504 149.929 61.5516C149.956 61.7264 149.882 61.9012 149.81 62.053C149.347 63.0261 148.837 64.0553 148.043 64.5072C147.875 64.6029 147.66 64.659 147.529 64.494C147.427 64.3654 147.36 64.1114 147.224 64.1576C147.125 64.1905 147.103 64.3621 147.051 64.4775C146.962 64.6688 146.774 64.715 146.606 64.7381C146.027 64.814 145.441 64.7942 144.864 64.6787C144.787 65.1175 144.481 65.4506 144.147 65.5331C143.813 65.6156 143.464 65.4803 143.179 65.2362C143.08 65.1538 142.974 65.0515 142.86 65.0713C142.788 65.0845 142.726 65.1439 142.667 65.1966C142.41 65.4308 142.11 65.6255 141.799 65.6156C141.487 65.6057 141.163 65.3385 141.094 64.9327C140.777 65.0944 140.448 65.2527 140.111 65.2263C139.772 65.1966 139.424 64.9327 139.332 64.4973C139.179 64.6491 139.023 64.8008 138.842 64.8767C138.662 64.9525 138.446 64.936 138.303 64.7711C138.159 64.6062 138.125 64.273 138.263 64.1015C137.996 64.2961 137.645 64.3324 137.392 64.1015C137.138 63.8739 137.036 63.356 137.227 63.036" fill="#EFE9E3"/>
<g opacity="0.74">
<mask id="mask6_2696_4633" style="mask-type:luminance" maskUnits="userSpaceOnUse" x="135" y="52" width="16" height="16">
<path d="M150.102 52.2031H135.111V67.7598H150.102V52.2031Z" fill="white"/>
</mask>
<g mask="url(#mask6_2696_4633)">
<path d="M146.824 65.8134C146.007 66.8492 143.964 66.4138 143.964 66.4138C142.902 67.0142 140.532 65.8695 140.532 65.8695C139.552 66.0344 138.919 65.1339 138.919 65.1339C138.164 65.2691 137.919 63.8012 137.919 63.8012C137.919 63.8012 137.714 64.075 137.143 63.3097C136.571 62.5477 137.266 61.6208 137.266 61.6208C137.266 61.6208 137.143 61.7857 137.021 61.0204C136.898 60.2584 137.43 59.2226 137.43 59.2226C137.103 59.2226 136.791 58.2231 136.791 58.2231L137.185 58.1341C136.898 58.078 136.734 56.8806 136.809 56.7189C136.88 56.554 137.185 56.2274 137.185 56.2274C136.715 56.2538 136.816 55.0828 136.816 55.0828L137.469 54.809C137.264 54.5913 137.264 53.5027 137.264 53.5027H138.041C137.959 52.9584 138.328 52.5758 138.328 52.5758C138.528 52.4933 138.704 52.3547 138.852 52.1997C138.33 52.2591 137.87 52.3613 137.709 52.6054C137.709 52.6054 137.301 53.4763 136.648 53.7501C136.648 53.7501 136.279 54.1327 136.361 54.677H135.584C135.584 54.677 135.584 55.7656 135.789 55.9833L135.136 56.2571C135.136 56.2571 135.035 57.4281 135.505 57.4018C135.505 57.4018 135.2 57.7283 135.129 57.8933C135.057 58.0582 135.22 59.2556 135.505 59.3084L135.111 59.3975C135.111 59.3975 135.423 60.397 135.75 60.397C135.75 60.397 135.218 61.4328 135.341 62.1948C135.465 62.9568 135.586 62.7951 135.586 62.7951C135.586 62.7951 134.891 63.7221 135.463 64.4841C136.034 65.2461 136.24 64.9756 136.24 64.9756C136.24 64.9756 136.484 66.4468 137.239 66.3082C137.239 66.3082 137.872 67.2055 138.852 67.0438C138.852 67.0438 141.222 68.1885 142.284 67.5881C142.284 67.5881 144.325 68.0236 145.144 66.9878C145.144 66.9878 147.185 67.3704 148.004 66.0608C148.004 66.0608 149.454 65.7738 150.102 64.7677C149.854 64.8502 149.684 64.8865 149.684 64.8865C148.867 66.1928 146.824 65.8134 146.824 65.8134Z" fill="#C6B0A9"/>
</g>
</g>
<g opacity="0.65">
<mask id="mask7_2696_4633" style="mask-type:luminance" maskUnits="userSpaceOnUse" x="139" y="50" width="8" height="4">
<path d="M146.925 50.5999H139.394V53.8095H146.925V50.5999Z" fill="white"/>
</mask>
<g mask="url(#mask7_2696_4633)">
<path d="M146.92 51.3884C147.014 52.1504 145.406 53.1334 143.328 53.5853C141.25 54.0372 139.49 53.7832 139.399 53.0212C139.305 52.2592 140.913 51.2762 142.991 50.8243C145.07 50.3724 146.829 50.6264 146.92 51.3884Z" fill="#85372A"/>
</g>
</g>
</g>
<path d="M29.6241 38.2169C27.8736 39.1152 26.1145 40.4016 24.137 40.3679L23.6576 40.5989C23.2745 40.7503 22.8755 41.0298 22.5398 41.2951C23.5144 41.5821 24.6672 41.5684 25.6897 41.6923C26.5475 41.7957 27.468 41.8384 28.3209 41.6781C29.8253 41.3959 31.3885 41.0225 32.7999 40.2381C33.3928 39.9085 34.1327 39.4348 34.797 38.8768C35.4623 38.3177 36.0533 37.6742 36.3483 37.0038C34.1902 36.2089 31.6064 37.2011 29.6241 38.2169Z" fill="#88B704"/>
<path d="M35.6538 37.2394C33.5547 36.8116 31.2549 37.8391 29.2932 38.6999C28.1706 39.192 27.0566 39.7812 25.8779 40.1013C25.2438 40.2738 24.6073 40.325 23.9507 40.2996C23.9 40.2949 23.5302 40.4468 23.4799 40.4473C23.3741 40.4763 23.2668 40.5133 23.1605 40.557C22.8865 40.6699 22.6504 40.9489 22.5403 41.1541C23.3688 41.6172 24.455 41.6642 25.4627 41.7238C26.298 41.7755 27.1825 41.7327 27.9584 41.5771C29.2472 41.3213 30.5561 40.9547 31.7539 40.2902C32.2788 39.9995 32.8914 39.5971 33.468 39.1561C34.2793 38.5343 35.0528 37.866 35.6538 37.2394Z" fill="#739B03"/>
<path d="M34.2626 37.7104C32.2846 38.0169 30.5509 39.114 28.6304 39.6625C27.537 39.9742 26.4795 40.2459 25.3454 40.3197C24.4781 40.3772 23.6663 40.0549 22.8109 40.1678C22.5447 40.2021 22.3876 40.6383 22.5399 40.8709C23.5059 42.3488 25.843 41.7016 27.2324 41.3762C28.526 41.0719 29.6764 40.4205 30.8081 39.7153C31.9398 39.0101 33.0514 38.2516 34.2688 37.7352C34.2832 37.7294 34.2784 37.7078 34.2631 37.7104" fill="#496302"/>
<path d="M27.0078 35.4448C25.6026 36.6558 24.3756 38.1532 22.9474 39.3131C22.3493 39.7994 21.6438 40.5157 20.844 40.4097L21.1773 41.4171C21.5648 41.607 22.3488 41.5316 22.8105 41.54C23.6821 41.5548 24.4872 41.5036 25.3378 41.2958C26.9695 40.8965 28.6783 40.0426 30.162 39.2197C31.6731 38.38 33.1127 37.0129 34.2344 35.7713C35.3551 34.5296 36.1587 33.4136 36.3967 33.0755C36.7837 32.5232 37.1898 31.5485 37.7301 31.2083C35.7511 30.8929 33.8292 31.299 32.0241 32.1108C30.2171 32.9215 28.526 34.1388 27.0078 35.4458" fill="#88B704"/>
<path d="M37.1332 31.4112C35.5958 31.5182 34.0723 31.9286 32.615 32.589C32.3156 32.7251 32.0206 32.8717 31.7285 33.0278C30.4473 33.7172 29.2323 34.5975 28.0489 35.4952C27.6494 35.7996 27.25 36.1044 26.8558 36.4077C25.8491 37.181 24.8812 38.0133 23.8922 38.7834C23.4674 39.1141 23.0215 39.3952 22.5656 39.6515C21.9372 40.0049 21.2428 40.4854 20.5584 40.6606C20.5278 40.669 20.4985 40.6769 20.4703 40.6843C20.4085 40.7866 20.7054 41.5883 20.8142 41.6026C21.2452 41.7513 21.9425 41.6959 22.4262 41.6796C23.2682 41.6516 24.067 41.5419 24.8898 41.2977C25.0426 41.2508 25.1968 41.2012 25.3501 41.1469C26.8132 40.6379 28.2768 39.8172 29.5493 39.0291C31.0005 38.1267 32.3932 36.8439 33.5561 35.6239C34.5628 34.5674 35.3568 33.5895 35.7587 33.1191C36.1868 32.618 36.6054 31.8316 37.114 31.4386C37.1279 31.4275 37.1308 31.4133 37.1337 31.4106" fill="#739B03"/>
<path d="M35.9404 31.8196C34.6104 32.664 33.2459 33.4278 31.9303 34.3044C30.4744 35.2765 29.1741 36.5107 27.7536 37.5451C26.3814 38.5414 24.8149 39.2936 23.2933 39.9677C22.1415 40.4777 20.7037 40.1929 19.7885 41.1481C19.4892 41.4598 19.7272 41.9308 20.0869 41.9757C21.5275 42.1576 23.0194 41.7647 24.4332 41.107C25.8479 40.4487 27.187 39.5267 28.3211 38.6501C29.6516 37.6221 30.9337 36.4902 32.1971 35.3314C33.4605 34.1726 34.7052 32.9868 35.9614 31.8491C35.9758 31.836 35.9567 31.8101 35.9409 31.8201" fill="#496302"/>
<g style="mix-blend-mode:multiply">
<mask id="mask8_2696_4633" style="mask-type:luminance" maskUnits="userSpaceOnUse" x="23" y="32" width="9" height="10">
<path d="M31.8448 32.8777H23.5867V41.7378H31.8448V32.8777Z" fill="white"/>
</mask>
<g mask="url(#mask8_2696_4633)">
<path d="M30.2706 33.0338L29.4483 33.508C29.2012 33.7686 28.6341 34.1309 28.3085 34.4938C27.7117 35.1584 27.1921 35.8884 26.5968 36.5588C25.4737 37.8241 24.4052 39.3247 23.705 40.9103C23.1671 42.1239 24.602 41.6988 25.2902 41.5121C26.0498 41.3069 26.6858 40.9989 27.3937 40.5526C28.8219 39.6528 30.0177 38.2793 30.9871 36.7703C31.4761 36.0092 31.7821 35.1009 31.8386 34.1926C31.9205 32.8197 31.1787 32.7015 30.2701 33.0344" fill="#E8DCC4"/>
</g>
</g>
<path d="M29.8502 26.8405C29.7027 26.4359 29.5542 26.0672 29.3569 25.7049C29.1639 25.3515 29.0987 24.8135 28.6792 25.0646C27.9871 25.4781 27.3751 26.091 26.694 26.5551C25.1806 27.5937 23.6854 28.6734 22.2089 29.7773C20.8233 30.8175 19.2845 31.663 17.841 32.5976C17.0594 33.1013 16.2965 33.5992 15.5206 34.0966C14.8266 34.546 13.9957 34.8973 13.3683 35.4216L13.1102 35.5113C12.4732 35.757 11.4928 35.67 11 36.3504C11.1901 37.1601 11.8482 38.1021 12.3539 38.7371C12.5991 39.0462 12.8817 39.282 13.1059 39.5979C13.3463 39.9397 13.6236 40.2135 13.9287 40.4746C14.5584 41.0131 15.4023 41.3512 16.1087 41.6634C16.5326 41.8481 16.8516 42.0316 17.3161 42.0996C21.4229 42.7162 23.0915 41.9013 23.9119 41.5421C25.5954 40.8037 27.0087 39.9508 28.3066 38.5747C29.4349 37.3768 30.4096 35.8889 30.5671 32.6166C30.6701 30.4593 30.4977 28.6338 29.8497 26.84" fill="#FEFEDA"/>
<mask id="mask9_2696_4633" style="mask-type:luminance" maskUnits="userSpaceOnUse" x="11" y="25" width="20" height="18">
<path d="M28.6799 25.0648C28.5377 25.1487 28.4017 25.2447 28.2652 25.3449C28.8605 26.2875 30.2671 29.1114 29.6646 33.9429C28.9084 39.9943 21.4701 42.2418 17.5707 41.4501C13.2953 40.5814 12.0429 37.0084 11.7373 35.8459C11.4514 35.9435 11.1894 36.0907 11.0007 36.3518C11.1909 37.1614 11.8489 38.1034 12.3547 38.7385C12.5999 39.0476 12.8824 39.2833 13.1066 39.5993C13.347 39.9411 13.6243 40.2148 13.9294 40.4759C14.5592 41.0144 15.403 41.3525 16.1095 41.6642C16.5333 41.8489 16.8528 42.0324 17.3173 42.1005C21.4241 42.717 23.0927 41.9021 23.9131 41.5429C25.5966 40.8045 27.0099 39.9516 28.3078 38.5755C29.4361 37.3777 30.4108 35.8897 30.5683 32.6174C30.6713 30.4601 30.4989 28.6346 29.8509 26.8408C29.7034 26.4362 29.5549 26.0675 29.3581 25.7052C29.1996 25.4145 29.1272 25.0005 28.8744 25.0005C28.8193 25.0005 28.7556 25.02 28.6809 25.0648" fill="white"/>
</mask>
<g mask="url(#mask9_2696_4633)">
<path d="M11.0069 24.5949L10.6997 42.7107L30.6637 43.1213L30.971 25.0055L11.0069 24.5949Z" fill="url(#paint0_linear_2696_4633)"/>
</g>
<path d="M19.1585 32.2173C18.7629 32.3608 16.9588 33.7765 16.26 34.3261C15.0636 35.2665 12.646 36.6179 14.0809 38.378C14.6618 39.0911 15.3433 39.7667 16.1623 40.0795C16.6058 40.2509 17.0842 40.4392 17.533 40.5189C17.8663 40.5785 18.612 40.6713 18.8769 40.3992C19.1623 40.1096 19.2361 39.4065 19.3108 39.0204C19.4133 38.4871 19.5076 37.9576 19.5771 37.4154C19.7126 36.3642 19.8165 35.363 19.8702 34.2665C19.885 33.9479 19.9626 33.6483 19.9674 33.344C19.9937 31.9394 19.3888 32.1335 19.1585 32.2173Z" fill="#F98104"/>
<path d="M24.4488 36.8003C24.0437 36.0508 22.0341 33.6625 21.6567 33.0876C21.4939 32.8376 20.8104 32.2083 20.6433 32.2337C20.1485 32.3107 20.2209 33.3925 20.207 33.5939C20.1778 34.0956 20.1251 34.6051 20.0935 35.1046C20.0255 36.1531 20.0279 37.2117 20.0101 38.254C19.9986 39.0077 19.5743 40.6011 20.5633 40.7873C20.9579 40.8622 21.5125 40.7003 21.9072 40.6576C22.3636 40.608 22.8286 40.425 23.2348 40.2203C23.9139 39.8796 24.6874 39.5468 25.2755 39.0256C26.0863 38.3067 24.8665 37.5736 24.4493 36.8003" fill="#F98104"/>
<path d="M29.0274 28.8265C28.8847 28.0205 28.5399 26.7235 27.5844 26.8533C27.2166 26.9034 26.8148 27.2283 26.4843 27.4446C26.1471 27.664 25.7946 27.838 25.4556 28.0569C24.7424 28.5163 24.0624 29.0322 23.3842 29.557C23.0983 29.7764 21.3056 30.6631 21.7668 31.2448L22.0513 31.4737C22.7549 31.6578 23.3698 31.6605 24.0868 31.7939C24.8507 31.9374 25.7314 32.0429 26.5126 32.1009C27.2702 32.1563 28.3205 32.4158 28.7654 31.5386C29.1696 30.7422 29.1864 29.7305 29.0274 28.827" fill="#F98104"/>
<path d="M28.4891 32.845C28.2946 32.4652 27.6198 32.5775 27.2865 32.5169C26.3933 32.3539 25.4354 32.4362 24.558 32.2569C24.1121 32.1624 23.7587 31.9784 23.286 31.9414C22.8406 31.9072 21.5135 31.6418 21.5135 31.6418C21.025 31.7146 21.5025 32.481 21.6734 32.6556C21.9756 32.9679 22.2386 33.3002 22.5235 33.643C23.08 34.3176 23.6337 34.988 24.1485 35.7053C24.4124 36.0693 24.6854 36.4121 24.9493 36.7792C25.1687 37.083 25.2879 37.4929 25.5393 37.7603C26.2084 38.4708 26.9996 37.5862 27.4445 36.9638C27.991 36.1964 28.4225 35.3656 28.5259 34.4147C28.5676 34.0328 28.66 33.1788 28.4891 32.845Z" fill="#F98104"/>
<path d="M19.5985 32.6857L19.5411 32.4885C18.771 32.3761 17.9194 33.4753 17.3605 33.9458C16.6541 34.5429 15.8825 35.1157 15.1843 35.7392C14.4553 36.3906 14.0353 37.2371 14.815 38.0468C15.3782 38.6296 16.4304 39.223 17.2235 39.0452C18.0818 38.849 18.498 37.4339 18.7465 36.6685C19.0588 35.7086 19.3418 34.6906 19.4893 33.7006C19.5353 33.392 19.6287 32.9917 19.5981 32.6857" fill="#FBA20A"/>
<path d="M23.3386 37.2303C23.2194 36.4259 22.7352 35.4696 22.3587 34.7544C22.1475 34.3546 21.8257 34.0091 21.5723 33.6536C21.341 33.3329 21.1854 32.9489 20.8803 32.6799L20.6734 32.6108C20.1528 32.652 20.273 35.1078 20.2644 35.5904C20.2452 36.6749 20.1518 37.7329 20.1801 38.8073C20.2112 40.0215 21.3429 40.1428 22.2146 39.7277C23.0422 39.3321 23.4794 38.1834 23.3386 37.2297" fill="#FBA20A"/>
<path d="M25.9195 33.1698C25.3869 32.7615 24.691 32.6972 24.0727 32.55C23.7586 32.4762 23.4439 32.3454 23.1307 32.2251C22.9846 32.1676 22.1781 31.9556 22.1752 31.9519L21.9626 32.1428C21.7212 32.156 22.3596 33.1149 22.4564 33.2631C22.7126 33.6508 23.0565 34.0121 23.3644 34.3645C23.8927 34.9684 24.4243 35.6662 24.9961 36.2111C25.2907 36.4948 25.8362 36.7665 26.2418 36.6652C26.6455 36.565 26.8644 35.988 26.9439 35.5971C27.1187 34.7126 26.5962 33.6862 25.9195 33.1687" fill="#FBA20A"/>
<path d="M27.8994 28.9418C27.3017 28.0398 26.1753 28.485 25.4243 28.84C24.8999 29.0863 24.3788 29.3706 23.8549 29.6132C23.3716 29.839 22.7299 30.0526 22.3783 30.4772L22.2849 30.8031C22.0421 31.0806 23.079 31.4028 23.2567 31.4477C23.7102 31.5653 24.2078 31.6333 24.6853 31.6423C25.6044 31.6571 26.7016 31.8876 27.522 31.4034C28.306 30.9445 28.3908 29.6812 27.8994 28.9412" fill="#FBA20A"/>
<path d="M18.2975 33.3735C17.8866 33.7269 17.4934 34.0708 17.0916 34.4348C16.469 34.9981 15.366 35.8119 15.7468 36.8378C16.2018 38.0668 17.4034 36.9592 17.8718 36.3637C18.4728 35.6015 18.9498 34.5403 19.1936 33.5967C19.243 33.4052 19.2798 33.152 19.3253 32.9774L19.3301 32.681C19.0739 32.5259 18.5025 33.1979 18.298 33.3741" fill="#F7B304"/>
<path d="M22.2329 35.1714C22.0825 34.7774 21.8861 34.4077 21.6998 34.0358C21.5451 33.732 21.3387 33.1408 21.0245 33.0115L20.7577 32.8744C20.7305 32.8623 20.73 32.8164 20.6749 32.8449C20.4771 33.2647 20.4704 33.9045 20.4651 34.3787C20.456 34.9246 20.4441 35.4747 20.4891 35.9969C20.5255 36.4062 20.5609 37.0929 20.7616 37.449C20.9905 37.8567 21.5513 37.9342 21.899 37.6927C22.6107 37.2006 22.5068 35.8914 22.2329 35.1709" fill="#F7B304"/>
<path d="M26.296 29.482C25.9157 28.8844 24.9756 29.3337 24.4837 29.5036C24.0972 29.6365 22.6408 30.4493 22.6408 30.4493C22.1748 30.7826 23.5646 31.1529 23.7083 31.1635C24.1916 31.1978 24.6786 31.2341 25.17 31.1935C25.5498 31.1603 26.0565 31.1107 26.3161 30.7626C26.5886 30.3987 26.5374 29.8612 26.2955 29.482" fill="#F7B304"/>
<path d="M22.6159 32.2896L22.318 32.2827C21.8142 32.6509 23.3243 33.8608 23.5604 34.1541C23.9296 34.604 25.1586 35.7533 25.5288 34.7148C26.1155 33.0707 23.4124 32.6562 22.6159 32.2896Z" fill="#F7B304"/>
<path d="M83.6241 17.2169C81.8736 18.1152 80.1145 19.4016 78.137 19.3679L77.6576 19.5989C77.2745 19.7503 76.8755 20.0298 76.5398 20.2951C77.5144 20.5821 78.6672 20.5684 79.6897 20.6923C80.5475 20.7957 81.468 20.8384 82.3209 20.6781C83.8253 20.3959 85.3885 20.0225 86.7999 19.2381C87.3928 18.9085 88.1327 18.4348 88.797 17.8768C89.4623 17.3177 90.0533 16.6742 90.3483 16.0038C88.1902 15.2089 85.6064 16.2011 83.6241 17.2169Z" fill="#88B704"/>
<path d="M89.6538 16.2394C87.5547 15.8116 85.2549 16.8391 83.2932 17.6999C82.1706 18.192 81.0566 18.7812 79.8779 19.1013C79.2438 19.2738 78.6073 19.325 77.9507 19.2996C77.9 19.2949 77.5302 19.4468 77.4799 19.4473C77.3741 19.4763 77.2668 19.5133 77.1605 19.557C76.8865 19.6699 76.6504 19.9489 76.5403 20.1541C77.3688 20.6172 78.455 20.6642 79.4627 20.7238C80.298 20.7755 81.1825 20.7327 81.9584 20.5771C83.2472 20.3213 84.5561 19.9547 85.7539 19.2902C86.2788 18.9995 86.8914 18.5971 87.468 18.1561C88.2793 17.5343 89.0528 16.866 89.6538 16.2394Z" fill="#739B03"/>
<path d="M88.2626 16.7104C86.2846 17.0169 84.5509 18.114 82.6304 18.6625C81.537 18.9742 80.4795 19.2459 79.3454 19.3197C78.4781 19.3772 77.6663 19.0549 76.8109 19.1678C76.5447 19.2021 76.3876 19.6383 76.5399 19.8709C77.5059 21.3488 79.843 20.7016 81.2324 20.3762C82.526 20.0719 83.6764 19.4205 84.8081 18.7153C85.9398 18.0101 87.0514 17.2516 88.2688 16.7352C88.2832 16.7294 88.2784 16.7078 88.2631 16.7104" fill="#496302"/>
<path d="M81.0078 14.4448C79.6026 15.6558 78.3756 17.1532 76.9474 18.3131C76.3493 18.7994 75.6438 19.5157 74.844 19.4097L75.1773 20.4171C75.5648 20.607 76.3488 20.5316 76.8105 20.54C77.6821 20.5548 78.4872 20.5036 79.3378 20.2958C80.9695 19.8965 82.6783 19.0426 84.162 18.2197C85.6731 17.38 87.1127 16.0129 88.2344 14.7713C89.3551 13.5296 90.1587 12.4136 90.3967 12.0755C90.7837 11.5232 91.1898 10.5485 91.7301 10.2083C89.7511 9.89287 87.8292 10.299 86.0241 11.1108C84.2171 11.9215 82.526 13.1388 81.0078 14.4458" fill="#88B704"/>
<path d="M91.1332 10.4112C89.5958 10.5182 88.0723 10.9286 86.615 11.589C86.3156 11.7251 86.0206 11.8717 85.7285 12.0278C84.4473 12.7172 83.2323 13.5975 82.0489 14.4952C81.6494 14.7996 81.25 15.1044 80.8558 15.4077C79.8491 16.181 78.8812 17.0133 77.8922 17.7834C77.4674 18.1141 77.0215 18.3952 76.5656 18.6515C75.9372 19.0049 75.2428 19.4854 74.5584 19.6606C74.5278 19.669 74.4985 19.6769 74.4703 19.6843C74.4085 19.7866 74.7054 20.5883 74.8142 20.6026C75.2452 20.7513 75.9425 20.6959 76.4262 20.6796C77.2682 20.6516 78.067 20.5419 78.8898 20.2977C79.0426 20.2508 79.1968 20.2012 79.3501 20.1469C80.8132 19.6379 82.2768 18.8172 83.5493 18.0291C85.0005 17.1267 86.3932 15.8439 87.5561 14.6239C88.5628 13.5674 89.3568 12.5895 89.7587 12.1191C90.1868 11.618 90.6054 10.8316 91.114 10.4386C91.1279 10.4275 91.1308 10.4133 91.1337 10.4106" fill="#739B03"/>
<path d="M89.9404 10.8196C88.6104 11.664 87.2459 12.4278 85.9303 13.3044C84.4744 14.2765 83.1741 15.5107 81.7536 16.5451C80.3814 17.5414 78.8149 18.2936 77.2933 18.9677C76.1415 19.4777 74.7037 19.1929 73.7885 20.1481C73.4892 20.4598 73.7272 20.9308 74.0869 20.9757C75.5275 21.1576 77.0194 20.7647 78.4332 20.107C79.8479 19.4487 81.187 18.5267 82.3211 17.6501C83.6516 16.6221 84.9337 15.4902 86.1971 14.3314C87.4605 13.1726 88.7052 11.9868 89.9614 10.8491C89.9758 10.836 89.9567 10.8101 89.9409 10.8201" fill="#496302"/>
<g style="mix-blend-mode:multiply">
<mask id="mask10_2696_4633" style="mask-type:luminance" maskUnits="userSpaceOnUse" x="77" y="11" width="9" height="10">
<path d="M85.8448 11.8777H77.5867V20.7378H85.8448V11.8777Z" fill="white"/>
</mask>
<g mask="url(#mask10_2696_4633)">
<path d="M84.2706 12.0338L83.4483 12.508C83.2012 12.7686 82.6341 13.1309 82.3085 13.4938C81.7117 14.1584 81.1921 14.8884 80.5968 15.5588C79.4737 16.8241 78.4052 18.3247 77.705 19.9103C77.1671 21.1239 78.602 20.6988 79.2902 20.5121C80.0498 20.3069 80.6858 19.9989 81.3937 19.5526C82.8219 18.6528 84.0177 17.2793 84.9871 15.7703C85.4761 15.0092 85.7821 14.1009 85.8386 13.1926C85.9205 11.8197 85.1787 11.7015 84.2701 12.0344" fill="#E8DCC4"/>
</g>
</g>
<path d="M83.8502 5.84049C83.7027 5.43593 83.5542 5.06724 83.3569 4.70489C83.1639 4.35149 83.0987 3.81349 82.6792 4.06456C81.9871 4.47808 81.3751 5.09098 80.694 5.55514C79.1806 6.59369 77.6854 7.67338 76.2089 8.77733C74.8233 9.81747 73.2845 10.663 71.841 11.5976C71.0594 12.1013 70.2965 12.5992 69.5206 13.0966C68.8266 13.546 67.9957 13.8973 67.3683 14.4216L67.1102 14.5113C66.4732 14.757 65.4928 14.67 65 15.3504C65.1901 16.1601 65.8482 17.1021 66.3539 17.7371C66.5991 18.0462 66.8817 18.282 67.1059 18.5979C67.3463 18.9397 67.6236 19.2135 67.9287 19.4746C68.5584 20.0131 69.4023 20.3512 70.1087 20.6634C70.5326 20.8481 70.8516 21.0316 71.3161 21.0996C75.4229 21.7162 77.0915 20.9013 77.9119 20.5421C79.5954 19.8037 81.0087 18.9508 82.3066 17.5747C83.4349 16.3768 84.4096 14.8889 84.5671 11.6166C84.6701 9.45933 84.4977 7.63382 83.8497 5.83996" fill="#FEFEDA"/>
<mask id="mask11_2696_4633" style="mask-type:luminance" maskUnits="userSpaceOnUse" x="65" y="4" width="20" height="18">
<path d="M82.6799 4.06484C82.5377 4.1487 82.4017 4.2447 82.2652 4.34491C82.8605 5.28747 84.2671 8.11144 83.6646 12.9429C82.9084 18.9943 75.4701 21.2418 71.5707 20.4501C67.2953 19.5814 66.0429 16.0084 65.7373 14.8459C65.4514 14.9435 65.1894 15.0907 65.0007 15.3518C65.1909 16.1614 65.8489 17.1034 66.3547 17.7385C66.5999 18.0476 66.8824 18.2833 67.1066 18.5993C67.347 18.9411 67.6243 19.2148 67.9294 19.4759C68.5592 20.0144 69.403 20.3525 70.1095 20.6642C70.5333 20.8489 70.8528 21.0324 71.3173 21.1005C75.4241 21.717 77.0927 20.9021 77.9131 20.5429C79.5966 19.8045 81.0099 18.9516 82.3078 17.5755C83.4361 16.3777 84.4108 14.8897 84.5683 11.6174C84.6713 9.46013 84.4989 7.63463 83.8509 5.84076C83.7034 5.43621 83.5549 5.06752 83.3581 4.70516C83.1996 4.41454 83.1272 4.00049 82.8744 4.00049C82.8193 4.00049 82.7556 4.02 82.6809 4.06484" fill="white"/>
</mask>
<g mask="url(#mask11_2696_4633)">
<path d="M65.0069 3.59486L64.6997 21.7107L84.6637 22.1213L84.971 4.0055L65.0069 3.59486Z" fill="url(#paint1_linear_2696_4633)"/>
</g>
<path d="M73.1585 11.2173C72.7629 11.3608 70.9588 12.7765 70.26 13.3261C69.0636 14.2665 66.646 15.6179 68.0809 17.378C68.6618 18.0911 69.3433 18.7667 70.1623 19.0795C70.6058 19.2509 71.0842 19.4392 71.533 19.5189C71.8663 19.5785 72.612 19.6713 72.8769 19.3992C73.1623 19.1096 73.2361 18.4065 73.3108 18.0204C73.4133 17.4871 73.5076 16.9576 73.5771 16.4154C73.7126 15.3642 73.8165 14.363 73.8702 13.2665C73.885 12.9479 73.9626 12.6483 73.9674 12.344C73.9937 10.9394 73.3888 11.1335 73.1585 11.2173Z" fill="#F98104"/>
<path d="M78.4488 15.8003C78.0437 15.0508 76.0341 12.6625 75.6567 12.0876C75.4939 11.8376 74.8104 11.2083 74.6433 11.2337C74.1485 11.3107 74.2209 12.3925 74.207 12.5939C74.1778 13.0956 74.1251 13.6051 74.0935 14.1046C74.0255 15.1531 74.0279 16.2117 74.0101 17.254C73.9986 18.0077 73.5743 19.6011 74.5633 19.7873C74.9579 19.8622 75.5125 19.7003 75.9072 19.6576C76.3636 19.608 76.8286 19.425 77.2348 19.2203C77.9139 18.8796 78.6874 18.5468 79.2755 18.0256C80.0863 17.3067 78.8665 16.5736 78.4493 15.8003" fill="#F98104"/>
<path d="M83.0274 7.82647C82.8847 7.02053 82.5399 5.72352 81.5844 5.85328C81.2166 5.90339 80.8148 6.2283 80.4843 6.44455C80.1471 6.66397 79.7946 6.83803 79.4556 7.05692C78.7424 7.51633 78.0624 8.03218 77.3842 8.55699C77.0983 8.77641 75.3056 9.66306 75.7668 10.2448L76.0513 10.4737C76.7549 10.6578 77.3698 10.6605 78.0868 10.7939C78.8507 10.9374 79.7314 11.0429 80.5126 11.1009C81.2702 11.1563 82.3205 11.4158 82.7654 10.5386C83.1696 9.74217 83.1864 8.73052 83.0274 7.827" fill="#F98104"/>
<path d="M82.4891 11.845C82.2946 11.4652 81.6198 11.5775 81.2865 11.5169C80.3933 11.3539 79.4354 11.4362 78.558 11.2569C78.1121 11.1624 77.7587 10.9784 77.286 10.9414C76.8406 10.9072 75.5135 10.6418 75.5135 10.6418C75.025 10.7146 75.5025 11.481 75.6734 11.6556C75.9756 11.9679 76.2386 12.3002 76.5235 12.643C77.08 13.3176 77.6337 13.988 78.1485 14.7053C78.4124 15.0693 78.6854 15.4121 78.9493 15.7792C79.1687 16.083 79.2879 16.4929 79.5393 16.7603C80.2084 17.4708 80.9996 16.5862 81.4445 15.9638C81.991 15.1964 82.4225 14.3656 82.5259 13.4147C82.5676 13.0328 82.66 12.1788 82.4891 11.845Z" fill="#F98104"/>
<path d="M73.5985 11.6857L73.5411 11.4885C72.771 11.3761 71.9194 12.4753 71.3605 12.9458C70.6541 13.5429 69.8825 14.1157 69.1843 14.7392C68.4553 15.3906 68.0353 16.2371 68.815 17.0468C69.3782 17.6296 70.4304 18.223 71.2235 18.0452C72.0818 17.849 72.498 16.4339 72.7465 15.6685C73.0588 14.7086 73.3418 13.6906 73.4893 12.7006C73.5353 12.392 73.6287 11.9917 73.5981 11.6857" fill="#FBA20A"/>
<path d="M77.3386 16.2303C77.2194 15.4259 76.7352 14.4696 76.3587 13.7544C76.1475 13.3546 75.8257 13.0091 75.5723 12.6536C75.341 12.3329 75.1854 11.9489 74.8803 11.6799L74.6734 11.6108C74.1528 11.652 74.273 14.1078 74.2644 14.5904C74.2452 15.6749 74.1518 16.7329 74.1801 17.8073C74.2112 19.0215 75.3429 19.1428 76.2146 18.7277C77.0422 18.3321 77.4794 17.1834 77.3386 16.2297" fill="#FBA20A"/>
<path d="M79.9195 12.1698C79.3869 11.7615 78.691 11.6972 78.0727 11.55C77.7586 11.4762 77.4439 11.3454 77.1307 11.2251C76.9846 11.1676 76.1781 10.9556 76.1752 10.9519L75.9626 11.1428C75.7212 11.156 76.3596 12.1149 76.4564 12.2631C76.7126 12.6508 77.0565 13.0121 77.3644 13.3645C77.8927 13.9684 78.4243 14.6662 78.9961 15.2111C79.2907 15.4948 79.8362 15.7665 80.2418 15.6652C80.6455 15.565 80.8644 14.988 80.9439 14.5971C81.1187 13.7126 80.5962 12.6862 79.9195 12.1687" fill="#FBA20A"/>
<path d="M81.8994 7.94176C81.3017 7.03982 80.1753 7.48499 79.4243 7.83996C78.8999 8.08628 78.3788 8.37058 77.8549 8.6132C77.3716 8.83895 76.7299 9.05257 76.3783 9.47717L76.2849 9.80313C76.0421 10.0806 77.079 10.4028 77.2567 10.4477C77.7102 10.5653 78.2078 10.6333 78.6853 10.6423C79.6044 10.6571 80.7016 10.8876 81.522 10.4034C82.306 9.94449 82.3908 8.68124 81.8994 7.94123" fill="#FBA20A"/>
<path d="M72.2975 12.3735C71.8866 12.7269 71.4934 13.0708 71.0916 13.4348C70.469 13.9981 69.366 14.8119 69.7468 15.8378C70.2018 17.0668 71.4034 15.9592 71.8718 15.3637C72.4728 14.6015 72.9498 13.5403 73.1936 12.5967C73.243 12.4052 73.2798 12.152 73.3253 11.9774L73.3301 11.681C73.0739 11.5259 72.5025 12.1979 72.298 12.3741" fill="#F7B304"/>
<path d="M76.2329 14.1714C76.0825 13.7774 75.8861 13.4077 75.6998 13.0358C75.5451 12.732 75.3387 12.1408 75.0245 12.0115L74.7577 11.8744C74.7305 11.8623 74.73 11.8164 74.6749 11.8449C74.4771 12.2647 74.4704 12.9045 74.4651 13.3787C74.456 13.9246 74.4441 14.4747 74.4891 14.9969C74.5255 15.4062 74.5609 16.0929 74.7616 16.449C74.9905 16.8567 75.5513 16.9342 75.899 16.6927C76.6107 16.2006 76.5068 14.8914 76.2329 14.1709" fill="#F7B304"/>
<path d="M80.296 8.48196C79.9157 7.88435 78.9756 8.33374 78.4837 8.50358C78.0972 8.6365 76.6408 9.4493 76.6408 9.4493C76.1748 9.78265 77.5646 10.1529 77.7083 10.1635C78.1916 10.1978 78.6786 10.2341 79.17 10.1935C79.5498 10.1603 80.0565 10.1107 80.3161 9.76261C80.5886 9.39867 80.5374 8.86119 80.2955 8.48196" fill="#F7B304"/>
<path d="M76.6159 11.2896L76.318 11.2827C75.8142 11.6509 77.3243 12.8608 77.5604 13.1541C77.9296 13.604 79.1586 14.7533 79.5288 13.7148C80.1155 12.0707 77.4124 11.6562 76.6159 11.2896Z" fill="#F7B304"/>
<path d="M139.624 37.2169C137.874 38.1152 136.115 39.4016 134.137 39.3679L133.658 39.5989C133.274 39.7503 132.876 40.0298 132.54 40.2951C133.514 40.5821 134.667 40.5684 135.69 40.6923C136.547 40.7957 137.468 40.8384 138.321 40.6781C139.825 40.3959 141.388 40.0225 142.8 39.2381C143.393 38.9085 144.133 38.4348 144.797 37.8768C145.462 37.3177 146.053 36.6742 146.348 36.0038C144.19 35.2089 141.606 36.2011 139.624 37.2169Z" fill="#88B704"/>
<path d="M145.654 36.2394C143.555 35.8116 141.255 36.8391 139.293 37.6999C138.171 38.192 137.057 38.7812 135.878 39.1013C135.244 39.2738 134.607 39.325 133.951 39.2996C133.9 39.2949 133.53 39.4468 133.48 39.4473C133.374 39.4763 133.267 39.5133 133.16 39.557C132.887 39.6699 132.65 39.9489 132.54 40.1541C133.369 40.6172 134.455 40.6642 135.463 40.7238C136.298 40.7755 137.183 40.7327 137.958 40.5771C139.247 40.3213 140.556 39.9547 141.754 39.2902C142.279 38.9995 142.891 38.5971 143.468 38.1561C144.279 37.5343 145.053 36.866 145.654 36.2394Z" fill="#739B03"/>
<path d="M144.263 36.7104C142.285 37.0169 140.551 38.114 138.63 38.6625C137.537 38.9742 136.48 39.2459 135.345 39.3197C134.478 39.3772 133.666 39.0549 132.811 39.1678C132.545 39.2021 132.388 39.6383 132.54 39.8709C133.506 41.3488 135.843 40.7016 137.232 40.3762C138.526 40.0719 139.676 39.4205 140.808 38.7153C141.94 38.0101 143.051 37.2516 144.269 36.7352C144.283 36.7294 144.278 36.7078 144.263 36.7104" fill="#496302"/>
<path d="M137.008 34.4448C135.603 35.6558 134.376 37.1532 132.947 38.3131C132.349 38.7994 131.644 39.5157 130.844 39.4097L131.177 40.4171C131.565 40.607 132.349 40.5316 132.81 40.54C133.682 40.5548 134.487 40.5036 135.338 40.2958C136.969 39.8965 138.678 39.0426 140.162 38.2197C141.673 37.38 143.113 36.0129 144.234 34.7713C145.355 33.5296 146.159 32.4136 146.397 32.0755C146.784 31.5232 147.19 30.5485 147.73 30.2083C145.751 29.8929 143.829 30.299 142.024 31.1108C140.217 31.9215 138.526 33.1388 137.008 34.4458" fill="#88B704"/>
<path d="M147.133 30.4112C145.596 30.5182 144.072 30.9286 142.615 31.589C142.316 31.7251 142.021 31.8717 141.728 32.0278C140.447 32.7172 139.232 33.5975 138.049 34.4952C137.649 34.7996 137.25 35.1044 136.856 35.4077C135.849 36.181 134.881 37.0133 133.892 37.7834C133.467 38.1141 133.022 38.3952 132.566 38.6515C131.937 39.0049 131.243 39.4854 130.558 39.6606C130.528 39.669 130.499 39.6769 130.47 39.6843C130.409 39.7866 130.705 40.5883 130.814 40.6026C131.245 40.7513 131.943 40.6959 132.426 40.6796C133.268 40.6516 134.067 40.5419 134.89 40.2977C135.043 40.2508 135.197 40.2012 135.35 40.1469C136.813 39.6379 138.277 38.8172 139.549 38.0291C141 37.1267 142.393 35.8439 143.556 34.6239C144.563 33.5674 145.357 32.5895 145.759 32.1191C146.187 31.618 146.605 30.8316 147.114 30.4386C147.128 30.4275 147.131 30.4133 147.134 30.4106" fill="#739B03"/>
<path d="M145.94 30.8196C144.61 31.664 143.246 32.4278 141.93 33.3044C140.474 34.2765 139.174 35.5107 137.754 36.5451C136.381 37.5414 134.815 38.2936 133.293 38.9677C132.141 39.4777 130.704 39.1929 129.788 40.1481C129.489 40.4598 129.727 40.9308 130.087 40.9757C131.527 41.1576 133.019 40.7647 134.433 40.107C135.848 39.4487 137.187 38.5267 138.321 37.6501C139.652 36.6221 140.934 35.4902 142.197 34.3314C143.46 33.1726 144.705 31.9868 145.961 30.8491C145.976 30.836 145.957 30.8101 145.941 30.8201" fill="#496302"/>
<g style="mix-blend-mode:multiply">
<mask id="mask12_2696_4633" style="mask-type:luminance" maskUnits="userSpaceOnUse" x="133" y="31" width="9" height="10">
<path d="M141.845 31.8777H133.587V40.7378H141.845V31.8777Z" fill="white"/>
</mask>
<g mask="url(#mask12_2696_4633)">
<path d="M140.271 32.0338L139.448 32.508C139.201 32.7686 138.634 33.1309 138.308 33.4938C137.712 34.1584 137.192 34.8884 136.597 35.5588C135.474 36.8241 134.405 38.3247 133.705 39.9103C133.167 41.1239 134.602 40.6988 135.29 40.5121C136.05 40.3069 136.686 39.9989 137.394 39.5526C138.822 38.6528 140.018 37.2793 140.987 35.7703C141.476 35.0092 141.782 34.1009 141.839 33.1926C141.921 31.8197 141.179 31.7015 140.27 32.0344" fill="#E8DCC4"/>
</g>
</g>
<path d="M139.85 25.8405C139.703 25.4359 139.554 25.0672 139.357 24.7049C139.164 24.3515 139.099 23.8135 138.679 24.0646C137.987 24.4781 137.375 25.091 136.694 25.5551C135.181 26.5937 133.685 27.6734 132.209 28.7773C130.823 29.8175 129.285 30.663 127.841 31.5976C127.059 32.1013 126.296 32.5992 125.521 33.0966C124.827 33.546 123.996 33.8973 123.368 34.4216L123.11 34.5113C122.473 34.757 121.493 34.67 121 35.3504C121.19 36.1601 121.848 37.1021 122.354 37.7371C122.599 38.0462 122.882 38.282 123.106 38.5979C123.346 38.9397 123.624 39.2135 123.929 39.4746C124.558 40.0131 125.402 40.3512 126.109 40.6634C126.533 40.8481 126.852 41.0316 127.316 41.0996C131.423 41.7162 133.092 40.9013 133.912 40.5421C135.595 39.8037 137.009 38.9508 138.307 37.5747C139.435 36.3768 140.41 34.8889 140.567 31.6166C140.67 29.4593 140.498 27.6338 139.85 25.84" fill="#FEFEDA"/>
<mask id="mask13_2696_4633" style="mask-type:luminance" maskUnits="userSpaceOnUse" x="121" y="24" width="20" height="18">
<path d="M138.68 24.0648C138.538 24.1487 138.402 24.2447 138.265 24.3449C138.86 25.2875 140.267 28.1114 139.665 32.9429C138.908 38.9943 131.47 41.2418 127.571 40.4501C123.295 39.5814 122.043 36.0084 121.737 34.8459C121.451 34.9435 121.189 35.0907 121.001 35.3518C121.191 36.1614 121.849 37.1034 122.355 37.7385C122.6 38.0476 122.882 38.2833 123.107 38.5993C123.347 38.9411 123.624 39.2148 123.929 39.4759C124.559 40.0144 125.403 40.3525 126.109 40.6642C126.533 40.8489 126.853 41.0324 127.317 41.1005C131.424 41.717 133.093 40.9021 133.913 40.5429C135.597 39.8045 137.01 38.9516 138.308 37.5755C139.436 36.3777 140.411 34.8897 140.568 31.6174C140.671 29.4601 140.499 27.6346 139.851 25.8408C139.703 25.4362 139.555 25.0675 139.358 24.7052C139.2 24.4145 139.127 24.0005 138.874 24.0005C138.819 24.0005 138.756 24.02 138.681 24.0648" fill="white"/>
</mask>
<g mask="url(#mask13_2696_4633)">
<path d="M121.007 23.5949L120.7 41.7107L140.664 42.1213L140.971 24.0055L121.007 23.5949Z" fill="url(#paint2_linear_2696_4633)"/>
</g>
<path d="M129.158 31.2173C128.763 31.3608 126.959 32.7765 126.26 33.3261C125.064 34.2665 122.646 35.6179 124.081 37.378C124.662 38.0911 125.343 38.7667 126.162 39.0795C126.606 39.2509 127.084 39.4392 127.533 39.5189C127.866 39.5785 128.612 39.6713 128.877 39.3992C129.162 39.1096 129.236 38.4065 129.311 38.0204C129.413 37.4871 129.508 36.9576 129.577 36.4154C129.713 35.3642 129.817 34.363 129.87 33.2665C129.885 32.9479 129.963 32.6483 129.967 32.344C129.994 30.9394 129.389 31.1335 129.158 31.2173Z" fill="#F98104"/>
<path d="M134.449 35.8003C134.044 35.0508 132.034 32.6625 131.657 32.0876C131.494 31.8376 130.81 31.2083 130.643 31.2337C130.149 31.3107 130.221 32.3925 130.207 32.5939C130.178 33.0956 130.125 33.6051 130.093 34.1046C130.025 35.1531 130.028 36.2117 130.01 37.254C129.999 38.0077 129.574 39.6011 130.563 39.7873C130.958 39.8622 131.513 39.7003 131.907 39.6576C132.364 39.608 132.829 39.425 133.235 39.2203C133.914 38.8796 134.687 38.5468 135.275 38.0256C136.086 37.3067 134.866 36.5736 134.449 35.8003" fill="#F98104"/>
<path d="M139.027 27.8265C138.885 27.0205 138.54 25.7235 137.584 25.8533C137.217 25.9034 136.815 26.2283 136.484 26.4446C136.147 26.664 135.795 26.838 135.456 27.0569C134.742 27.5163 134.062 28.0322 133.384 28.557C133.098 28.7764 131.306 29.6631 131.767 30.2448L132.051 30.4737C132.755 30.6578 133.37 30.6605 134.087 30.7939C134.851 30.9374 135.731 31.0429 136.513 31.1009C137.27 31.1563 138.321 31.4158 138.765 30.5386C139.17 29.7422 139.186 28.7305 139.027 27.827" fill="#F98104"/>
<path d="M138.489 31.845C138.295 31.4652 137.62 31.5775 137.286 31.5169C136.393 31.3539 135.435 31.4362 134.558 31.2569C134.112 31.1624 133.759 30.9784 133.286 30.9414C132.841 30.9072 131.513 30.6418 131.513 30.6418C131.025 30.7146 131.502 31.481 131.673 31.6556C131.976 31.9679 132.239 32.3002 132.524 32.643C133.08 33.3176 133.634 33.988 134.149 34.7053C134.412 35.0693 134.685 35.4121 134.949 35.7792C135.169 36.083 135.288 36.4929 135.539 36.7603C136.208 37.4708 137 36.5862 137.445 35.9638C137.991 35.1964 138.422 34.3656 138.526 33.4147C138.568 33.0328 138.66 32.1788 138.489 31.845Z" fill="#F98104"/>
<path d="M129.599 31.6857L129.541 31.4885C128.771 31.3761 127.919 32.4753 127.361 32.9458C126.654 33.5429 125.883 34.1157 125.184 34.7392C124.455 35.3906 124.035 36.2371 124.815 37.0468C125.378 37.6296 126.43 38.223 127.224 38.0452C128.082 37.849 128.498 36.4339 128.747 35.6685C129.059 34.7086 129.342 33.6906 129.489 32.7006C129.535 32.392 129.629 31.9917 129.598 31.6857" fill="#FBA20A"/>
<path d="M133.339 36.2303C133.219 35.4259 132.735 34.4696 132.359 33.7544C132.148 33.3546 131.826 33.0091 131.572 32.6536C131.341 32.3329 131.185 31.9489 130.88 31.6799L130.673 31.6108C130.153 31.652 130.273 34.1078 130.264 34.5904C130.245 35.6749 130.152 36.7329 130.18 37.8073C130.211 39.0215 131.343 39.1428 132.215 38.7277C133.042 38.3321 133.479 37.1834 133.339 36.2297" fill="#FBA20A"/>
<path d="M135.919 32.1698C135.387 31.7615 134.691 31.6972 134.073 31.55C133.759 31.4762 133.444 31.3454 133.131 31.2251C132.985 31.1676 132.178 30.9556 132.175 30.9519L131.963 31.1428C131.721 31.156 132.36 32.1149 132.456 32.2631C132.713 32.6508 133.056 33.0121 133.364 33.3645C133.893 33.9684 134.424 34.6662 134.996 35.2111C135.291 35.4948 135.836 35.7665 136.242 35.6652C136.646 35.565 136.864 34.988 136.944 34.5971C137.119 33.7126 136.596 32.6862 135.919 32.1687" fill="#FBA20A"/>
<path d="M137.899 27.9418C137.302 27.0398 136.175 27.485 135.424 27.84C134.9 28.0863 134.379 28.3706 133.855 28.6132C133.372 28.839 132.73 29.0526 132.378 29.4772L132.285 29.8031C132.042 30.0806 133.079 30.4028 133.257 30.4477C133.71 30.5653 134.208 30.6333 134.685 30.6423C135.604 30.6571 136.702 30.8876 137.522 30.4034C138.306 29.9445 138.391 28.6812 137.899 27.9412" fill="#FBA20A"/>
<path d="M128.298 32.3735C127.887 32.7269 127.493 33.0708 127.092 33.4348C126.469 33.9981 125.366 34.8119 125.747 35.8378C126.202 37.0668 127.403 35.9592 127.872 35.3637C128.473 34.6015 128.95 33.5403 129.194 32.5967C129.243 32.4052 129.28 32.152 129.325 31.9774L129.33 31.681C129.074 31.5259 128.503 32.1979 128.298 32.3741" fill="#F7B304"/>
<path d="M132.233 34.1714C132.082 33.7774 131.886 33.4077 131.7 33.0358C131.545 32.732 131.339 32.1408 131.025 32.0115L130.758 31.8744C130.73 31.8623 130.73 31.8164 130.675 31.8449C130.477 32.2647 130.47 32.9045 130.465 33.3787C130.456 33.9246 130.444 34.4747 130.489 34.9969C130.525 35.4062 130.561 36.0929 130.762 36.449C130.991 36.8567 131.551 36.9342 131.899 36.6927C132.611 36.2006 132.507 34.8914 132.233 34.1709" fill="#F7B304"/>
<path d="M136.296 28.482C135.916 27.8844 134.976 28.3337 134.484 28.5036C134.097 28.6365 132.641 29.4493 132.641 29.4493C132.175 29.7826 133.565 30.1529 133.708 30.1635C134.192 30.1978 134.679 30.2341 135.17 30.1935C135.55 30.1603 136.057 30.1107 136.316 29.7626C136.589 29.3987 136.537 28.8612 136.295 28.482" fill="#F7B304"/>
<path d="M132.616 31.2896L132.318 31.2827C131.814 31.6509 133.324 32.8608 133.56 33.1541C133.93 33.604 135.159 34.7533 135.529 33.7148C136.115 32.0707 133.412 31.6562 132.616 31.2896Z" fill="#F7B304"/>
<path d="M127.624 83.2169C125.874 84.1152 124.115 85.4016 122.137 85.3679L121.658 85.5989C121.274 85.7503 120.876 86.0298 120.54 86.2951C121.514 86.5821 122.667 86.5684 123.69 86.6923C124.547 86.7957 125.468 86.8384 126.321 86.6781C127.825 86.3959 129.388 86.0225 130.8 85.2381C131.393 84.9085 132.133 84.4348 132.797 83.8768C133.462 83.3177 134.053 82.6742 134.348 82.0038C132.19 81.2089 129.606 82.2011 127.624 83.2169Z" fill="#88B704"/>
<path d="M133.654 82.2394C131.555 81.8116 129.255 82.8391 127.293 83.6999C126.171 84.192 125.057 84.7812 123.878 85.1013C123.244 85.2738 122.607 85.325 121.951 85.2996C121.9 85.2949 121.53 85.4468 121.48 85.4473C121.374 85.4763 121.267 85.5133 121.16 85.557C120.887 85.6699 120.65 85.9489 120.54 86.1541C121.369 86.6172 122.455 86.6642 123.463 86.7238C124.298 86.7755 125.183 86.7327 125.958 86.5771C127.247 86.3213 128.556 85.9547 129.754 85.2902C130.279 84.9995 130.891 84.5971 131.468 84.1561C132.279 83.5343 133.053 82.866 133.654 82.2394Z" fill="#739B03"/>
<path d="M132.263 82.7104C130.285 83.0169 128.551 84.114 126.63 84.6625C125.537 84.9742 124.48 85.2459 123.345 85.3197C122.478 85.3772 121.666 85.0549 120.811 85.1678C120.545 85.2021 120.388 85.6383 120.54 85.8709C121.506 87.3488 123.843 86.7016 125.232 86.3762C126.526 86.0719 127.676 85.4205 128.808 84.7153C129.94 84.0101 131.051 83.2516 132.269 82.7352C132.283 82.7294 132.278 82.7078 132.263 82.7104" fill="#496302"/>
<path d="M125.008 80.4448C123.603 81.6558 122.376 83.1532 120.947 84.3131C120.349 84.7994 119.644 85.5157 118.844 85.4097L119.177 86.4171C119.565 86.607 120.349 86.5316 120.81 86.54C121.682 86.5548 122.487 86.5036 123.338 86.2958C124.969 85.8965 126.678 85.0426 128.162 84.2197C129.673 83.38 131.113 82.0129 132.234 80.7713C133.355 79.5296 134.159 78.4136 134.397 78.0755C134.784 77.5232 135.19 76.5485 135.73 76.2083C133.751 75.8929 131.829 76.299 130.024 77.1108C128.217 77.9215 126.526 79.1388 125.008 80.4458" fill="#88B704"/>
<path d="M135.133 76.4112C133.596 76.5182 132.072 76.9286 130.615 77.589C130.316 77.7251 130.021 77.8717 129.728 78.0278C128.447 78.7172 127.232 79.5975 126.049 80.4952C125.649 80.7996 125.25 81.1044 124.856 81.4077C123.849 82.181 122.881 83.0133 121.892 83.7834C121.467 84.1141 121.022 84.3952 120.566 84.6515C119.937 85.0049 119.243 85.4854 118.558 85.6606C118.528 85.669 118.499 85.6769 118.47 85.6843C118.409 85.7866 118.705 86.5883 118.814 86.6026C119.245 86.7513 119.943 86.6959 120.426 86.6796C121.268 86.6516 122.067 86.5419 122.89 86.2977C123.043 86.2508 123.197 86.2012 123.35 86.1469C124.813 85.6379 126.277 84.8172 127.549 84.0291C129 83.1267 130.393 81.8439 131.556 80.6239C132.563 79.5674 133.357 78.5895 133.759 78.1191C134.187 77.618 134.605 76.8316 135.114 76.4386C135.128 76.4275 135.131 76.4133 135.134 76.4106" fill="#739B03"/>
<path d="M133.94 76.8196C132.61 77.664 131.246 78.4278 129.93 79.3044C128.474 80.2765 127.174 81.5107 125.754 82.5451C124.381 83.5414 122.815 84.2936 121.293 84.9677C120.141 85.4777 118.704 85.1929 117.788 86.1481C117.489 86.4598 117.727 86.9308 118.087 86.9757C119.527 87.1576 121.019 86.7647 122.433 86.107C123.848 85.4487 125.187 84.5267 126.321 83.6501C127.652 82.6221 128.934 81.4902 130.197 80.3314C131.46 79.1726 132.705 77.9868 133.961 76.8491C133.976 76.836 133.957 76.8101 133.941 76.8201" fill="#496302"/>
<g style="mix-blend-mode:multiply">
<mask id="mask14_2696_4633" style="mask-type:luminance" maskUnits="userSpaceOnUse" x="121" y="77" width="9" height="10">
<path d="M129.845 77.8777H121.587V86.7378H129.845V77.8777Z" fill="white"/>
</mask>
<g mask="url(#mask14_2696_4633)">
<path d="M128.271 78.0338L127.448 78.508C127.201 78.7686 126.634 79.1309 126.308 79.4938C125.712 80.1584 125.192 80.8884 124.597 81.5588C123.474 82.8241 122.405 84.3247 121.705 85.9103C121.167 87.1239 122.602 86.6988 123.29 86.5121C124.05 86.3069 124.686 85.9989 125.394 85.5526C126.822 84.6528 128.018 83.2793 128.987 81.7703C129.476 81.0092 129.782 80.1009 129.839 79.1926C129.921 77.8197 129.179 77.7015 128.27 78.0344" fill="#E8DCC4"/>
</g>
</g>
<path d="M127.85 71.8405C127.703 71.4359 127.554 71.0672 127.357 70.7049C127.164 70.3515 127.099 69.8135 126.679 70.0646C125.987 70.4781 125.375 71.091 124.694 71.5551C123.181 72.5937 121.685 73.6734 120.209 74.7773C118.823 75.8175 117.285 76.663 115.841 77.5976C115.059 78.1013 114.296 78.5992 113.521 79.0966C112.827 79.546 111.996 79.8973 111.368 80.4216L111.11 80.5113C110.473 80.757 109.493 80.67 109 81.3504C109.19 82.1601 109.848 83.1021 110.354 83.7371C110.599 84.0462 110.882 84.282 111.106 84.5979C111.346 84.9397 111.624 85.2135 111.929 85.4746C112.558 86.0131 113.402 86.3512 114.109 86.6634C114.533 86.8481 114.852 87.0316 115.316 87.0996C119.423 87.7162 121.092 86.9013 121.912 86.5421C123.595 85.8037 125.009 84.9508 126.307 83.5747C127.435 82.3768 128.41 80.8889 128.567 77.6166C128.67 75.4593 128.498 73.6338 127.85 71.84" fill="#FEFEDA"/>
<mask id="mask15_2696_4633" style="mask-type:luminance" maskUnits="userSpaceOnUse" x="109" y="70" width="20" height="18">
<path d="M126.68 70.0648C126.538 70.1487 126.402 70.2447 126.265 70.3449C126.86 71.2875 128.267 74.1114 127.665 78.9429C126.908 84.9943 119.47 87.2418 115.571 86.4501C111.295 85.5814 110.043 82.0084 109.737 80.8459C109.451 80.9435 109.189 81.0907 109.001 81.3518C109.191 82.1614 109.849 83.1034 110.355 83.7385C110.6 84.0476 110.882 84.2833 111.107 84.5993C111.347 84.9411 111.624 85.2148 111.929 85.4759C112.559 86.0144 113.403 86.3525 114.109 86.6642C114.533 86.8489 114.853 87.0324 115.317 87.1005C119.424 87.717 121.093 86.9021 121.913 86.5429C123.597 85.8045 125.01 84.9516 126.308 83.5755C127.436 82.3777 128.411 80.8897 128.568 77.6174C128.671 75.4601 128.499 73.6346 127.851 71.8408C127.703 71.4362 127.555 71.0675 127.358 70.7052C127.2 70.4145 127.127 70.0005 126.874 70.0005C126.819 70.0005 126.756 70.02 126.681 70.0648" fill="white"/>
</mask>
<g mask="url(#mask15_2696_4633)">
<path d="M109.007 69.5949L108.7 87.7107L128.664 88.1213L128.971 70.0055L109.007 69.5949Z" fill="url(#paint3_linear_2696_4633)"/>
</g>
<path d="M117.158 77.2173C116.763 77.3608 114.959 78.7765 114.26 79.3261C113.064 80.2665 110.646 81.6179 112.081 83.378C112.662 84.0911 113.343 84.7667 114.162 85.0795C114.606 85.2509 115.084 85.4392 115.533 85.5189C115.866 85.5785 116.612 85.6713 116.877 85.3992C117.162 85.1096 117.236 84.4065 117.311 84.0204C117.413 83.4871 117.508 82.9576 117.577 82.4154C117.713 81.3642 117.817 80.363 117.87 79.2665C117.885 78.9479 117.963 78.6483 117.967 78.344C117.994 76.9394 117.389 77.1335 117.158 77.2173Z" fill="#F98104"/>
<path d="M122.449 81.8003C122.044 81.0508 120.034 78.6625 119.657 78.0876C119.494 77.8376 118.81 77.2083 118.643 77.2337C118.149 77.3107 118.221 78.3925 118.207 78.5939C118.178 79.0956 118.125 79.6051 118.093 80.1046C118.025 81.1531 118.028 82.2117 118.01 83.254C117.999 84.0077 117.574 85.6011 118.563 85.7873C118.958 85.8622 119.513 85.7003 119.907 85.6576C120.364 85.608 120.829 85.425 121.235 85.2203C121.914 84.8796 122.687 84.5468 123.275 84.0256C124.086 83.3067 122.866 82.5736 122.449 81.8003" fill="#F98104"/>
<path d="M127.027 73.8265C126.885 73.0205 126.54 71.7235 125.584 71.8533C125.217 71.9034 124.815 72.2283 124.484 72.4446C124.147 72.664 123.795 72.838 123.456 73.0569C122.742 73.5163 122.062 74.0322 121.384 74.557C121.098 74.7764 119.306 75.6631 119.767 76.2448L120.051 76.4737C120.755 76.6578 121.37 76.6605 122.087 76.7939C122.851 76.9374 123.731 77.0429 124.513 77.1009C125.27 77.1563 126.321 77.4158 126.765 76.5386C127.17 75.7422 127.186 74.7305 127.027 73.827" fill="#F98104"/>
<path d="M126.489 77.845C126.295 77.4652 125.62 77.5775 125.286 77.5169C124.393 77.3539 123.435 77.4362 122.558 77.2569C122.112 77.1624 121.759 76.9784 121.286 76.9414C120.841 76.9072 119.513 76.6418 119.513 76.6418C119.025 76.7146 119.502 77.481 119.673 77.6556C119.976 77.9679 120.239 78.3002 120.524 78.643C121.08 79.3176 121.634 79.988 122.149 80.7053C122.412 81.0693 122.685 81.4121 122.949 81.7792C123.169 82.083 123.288 82.4929 123.539 82.7603C124.208 83.4708 125 82.5862 125.445 81.9638C125.991 81.1964 126.422 80.3656 126.526 79.4147C126.568 79.0328 126.66 78.1788 126.489 77.845Z" fill="#F98104"/>
<path d="M117.599 77.6857L117.541 77.4885C116.771 77.3761 115.919 78.4753 115.361 78.9458C114.654 79.5429 113.883 80.1157 113.184 80.7392C112.455 81.3906 112.035 82.2371 112.815 83.0468C113.378 83.6296 114.43 84.223 115.224 84.0452C116.082 83.849 116.498 82.4339 116.747 81.6685C117.059 80.7086 117.342 79.6906 117.489 78.7006C117.535 78.392 117.629 77.9917 117.598 77.6857" fill="#FBA20A"/>
<path d="M121.339 82.2303C121.219 81.4259 120.735 80.4696 120.359 79.7544C120.148 79.3546 119.826 79.0091 119.572 78.6536C119.341 78.3329 119.185 77.9489 118.88 77.6799L118.673 77.6108C118.153 77.652 118.273 80.1078 118.264 80.5904C118.245 81.6749 118.152 82.7329 118.18 83.8073C118.211 85.0215 119.343 85.1428 120.215 84.7277C121.042 84.3321 121.479 83.1834 121.339 82.2297" fill="#FBA20A"/>
<path d="M123.919 78.1698C123.387 77.7615 122.691 77.6972 122.073 77.55C121.759 77.4762 121.444 77.3454 121.131 77.2251C120.985 77.1676 120.178 76.9556 120.175 76.9519L119.963 77.1428C119.721 77.156 120.36 78.1149 120.456 78.2631C120.713 78.6508 121.056 79.0121 121.364 79.3645C121.893 79.9684 122.424 80.6662 122.996 81.2111C123.291 81.4948 123.836 81.7665 124.242 81.6652C124.646 81.565 124.864 80.988 124.944 80.5971C125.119 79.7126 124.596 78.6862 123.919 78.1687" fill="#FBA20A"/>
<path d="M125.899 73.9418C125.302 73.0398 124.175 73.485 123.424 73.84C122.9 74.0863 122.379 74.3706 121.855 74.6132C121.372 74.839 120.73 75.0526 120.378 75.4772L120.285 75.8031C120.042 76.0806 121.079 76.4028 121.257 76.4477C121.71 76.5653 122.208 76.6333 122.685 76.6423C123.604 76.6571 124.702 76.8876 125.522 76.4034C126.306 75.9445 126.391 74.6812 125.899 73.9412" fill="#FBA20A"/>
<path d="M116.298 78.3735C115.887 78.7269 115.493 79.0708 115.092 79.4348C114.469 79.9981 113.366 80.8119 113.747 81.8378C114.202 83.0668 115.403 81.9592 115.872 81.3637C116.473 80.6015 116.95 79.5403 117.194 78.5967C117.243 78.4052 117.28 78.152 117.325 77.9774L117.33 77.681C117.074 77.5259 116.503 78.1979 116.298 78.3741" fill="#F7B304"/>
<path d="M120.233 80.1714C120.082 79.7774 119.886 79.4077 119.7 79.0358C119.545 78.732 119.339 78.1408 119.025 78.0115L118.758 77.8744C118.73 77.8623 118.73 77.8164 118.675 77.8449C118.477 78.2647 118.47 78.9045 118.465 79.3787C118.456 79.9246 118.444 80.4747 118.489 80.9969C118.525 81.4062 118.561 82.0929 118.762 82.449C118.991 82.8567 119.551 82.9342 119.899 82.6927C120.611 82.2006 120.507 80.8914 120.233 80.1709" fill="#F7B304"/>
<path d="M124.296 74.482C123.916 73.8844 122.976 74.3337 122.484 74.5036C122.097 74.6365 120.641 75.4493 120.641 75.4493C120.175 75.7826 121.565 76.1529 121.708 76.1635C122.192 76.1978 122.679 76.2341 123.17 76.1935C123.55 76.1603 124.057 76.1107 124.316 75.7626C124.589 75.3987 124.537 74.8612 124.295 74.482" fill="#F7B304"/>
<path d="M120.616 77.2896L120.318 77.2827C119.814 77.6509 121.324 78.8608 121.56 79.1541C121.93 79.604 123.159 80.7533 123.529 79.7148C124.115 78.0707 121.412 77.6562 120.616 77.2896Z" fill="#F7B304"/>
</g>
<defs>
<linearGradient id="paint0_linear_2696_4633" x1="10.9511" y1="33.2949" x2="30.3972" y2="33.6247" gradientUnits="userSpaceOnUse">
<stop stop-color="#EE5700"/>
<stop offset="1" stop-color="#FBB203"/>
</linearGradient>
<linearGradient id="paint1_linear_2696_4633" x1="64.9511" y1="12.2949" x2="84.3972" y2="12.6247" gradientUnits="userSpaceOnUse">
<stop stop-color="#EE5700"/>
<stop offset="1" stop-color="#FBB203"/>
</linearGradient>
<linearGradient id="paint2_linear_2696_4633" x1="120.951" y1="32.2949" x2="140.397" y2="32.6247" gradientUnits="userSpaceOnUse">
<stop stop-color="#EE5700"/>
<stop offset="1" stop-color="#FBB203"/>
</linearGradient>
<linearGradient id="paint3_linear_2696_4633" x1="108.951" y1="78.2949" x2="128.397" y2="78.6247" gradientUnits="userSpaceOnUse">
<stop stop-color="#EE5700"/>
<stop offset="1" stop-color="#FBB203"/>
</linearGradient>
<clipPath id="clip0_2696_4633">
<rect width="160" height="178" fill="white"/>
</clipPath>
<clipPath id="clip1_2696_4633">
<rect width="26" height="20" fill="white" transform="translate(12 54)"/>
</clipPath>
<clipPath id="clip2_2696_4633">
<rect width="26" height="20" fill="white" transform="translate(38 9)"/>
</clipPath>
<clipPath id="clip3_2696_4633">
<rect width="26" height="20" fill="white" transform="translate(101 9)"/>
</clipPath>
<clipPath id="clip4_2696_4633">
<rect width="26" height="20" fill="white" transform="translate(135 49)"/>
</clipPath>
</defs>
</svg>
