<svg width="38" height="26" viewBox="0 0 38 26" fill="none" xmlns="http://www.w3.org/2000/svg">
<path d="M17.232 8.49151C17.232 9.8479 17.1028 11.2968 16.8446 12.8381C16.5541 14.4103 16.1183 15.9517 15.5373 17.4622C14.924 19.0036 14.1493 20.4525 13.2131 21.8088C12.2448 23.1961 11.0827 24.3829 9.72694 25.3694L4.44921 21.8551C5.35304 20.8686 6.03091 19.9284 6.48283 19.0344C6.93474 18.1404 7.28982 17.2464 7.54806 16.3524C6.57967 16.1983 5.67584 15.8746 4.83656 15.3814C3.99729 14.919 3.271 14.3333 2.65768 13.6242C2.04437 12.946 1.56017 12.1599 1.2051 11.266C0.850021 10.4028 0.672482 9.47798 0.672482 8.49151C0.672482 7.41256 0.898441 6.39526 1.35036 5.43962C1.76999 4.5148 2.36717 3.68247 3.14188 2.94262C3.88431 2.23359 4.75586 1.66329 5.75653 1.23171C6.75721 0.830956 7.8063 0.630579 8.90381 0.630579C10.0659 0.630579 11.1634 0.830956 12.1963 1.23171C13.197 1.66329 14.0847 2.23359 14.8594 2.94262C15.6018 3.68247 16.1829 4.5148 16.6025 5.43962C17.0222 6.39526 17.232 7.41256 17.232 8.49151ZM37.084 8.49151C37.084 9.8479 36.9549 11.2968 36.6966 12.8381C36.4061 14.4103 35.9703 15.9517 35.3893 17.4622C34.776 19.0036 33.9851 20.4525 33.0167 21.8088C32.0484 23.1961 30.8863 24.3829 29.5305 25.3694L24.3012 21.8551C25.2051 20.8686 25.8829 19.9284 26.3348 19.0344C26.7545 18.1404 27.0934 17.2464 27.3517 16.3524C26.3833 16.1983 25.4794 15.8746 24.6402 15.3814C23.8009 14.919 23.0907 14.3333 22.5097 13.6242C21.8964 12.946 21.4122 12.1599 21.0571 11.266C20.702 10.4028 20.5245 9.47798 20.5245 8.49151C20.5245 7.41256 20.7505 6.39526 21.2024 5.43962C21.622 4.5148 22.2192 3.68247 22.9939 2.94262C23.7363 2.23359 24.6079 1.66329 25.6086 1.23171C26.6092 0.830956 27.6583 0.630579 28.7558 0.630579C29.9179 0.630579 31.0154 0.830956 32.0484 1.23171C33.049 1.66329 33.9206 2.23359 34.663 2.94262C35.4054 3.68247 36.0026 4.5148 36.4545 5.43962C36.8742 6.39526 37.084 7.41256 37.084 8.49151Z" fill="#785E4C"/>
</svg>
