<svg width="25" height="22" viewBox="0 0 25 22" fill="none" xmlns="http://www.w3.org/2000/svg">
<path d="M2.66491 12.2439L2.66543 12.2443L11.4886 20.4816C11.4886 20.4816 11.4887 20.4816 11.4887 20.4816C11.762 20.7368 12.1234 20.8794 12.5 20.8794C12.8766 20.8794 13.238 20.7368 13.5113 20.4816C13.5113 20.4816 13.5114 20.4816 13.5114 20.4816L22.3346 12.2443L22.3351 12.2439C23.7174 10.957 24.5 9.15131 24.5 7.26314V6.97994C24.5 3.81128 22.2109 1.10971 19.0877 0.588368L2.66491 12.2439ZM2.66491 12.2439C1.28258 10.957 0.5 9.15131 0.5 7.26314V6.97994C0.5 3.81128 2.7891 1.10971 5.91228 0.588368L2.66491 12.2439ZM12.5 3.33646L12.1464 2.9829L11.5605 2.39697C10.0829 0.919376 7.97964 0.243846 5.91239 0.588349L12.5 3.33646ZM12.5 3.33646L12.8536 2.9829M12.5 3.33646L12.8536 2.9829M12.8536 2.9829L13.4395 2.39697C14.9171 0.919377 17.0204 0.243846 19.0876 0.588349L12.8536 2.9829Z" fill="#DADADA" stroke="white"/>
</svg>
