<svg width="136" height="35" viewBox="0 0 136 35" fill="white" xmlns="http://www.w3.org/2000/svg">
<path d="M5.74875 33.5V1.34H6.94875V33.5H5.74875ZM0.46875 33.5V1.34H1.66875V33.5H0.46875ZM3.10875 33.5V1.34H4.30875V33.5H3.10875ZM31.6288 33.5V1.34H32.8288V33.5H31.6288ZM26.3488 33.5V1.34H27.5488V33.5H26.3488ZM28.9888 33.5V1.34H30.1888V33.5H28.9888ZM18.1488 14.94L17.4288 13.86L24.9088 3.02V5.14L18.1488 14.94ZM19.7488 21.86L8.38875 5.62V3.58L20.5087 20.82L19.7488 21.86ZM19.7888 17.26L19.0688 16.18L24.9088 7.86V9.94L19.7888 17.26ZM18.1488 24.22L8.38875 10.3V8.18L18.8688 23.14L18.1488 24.22ZM21.3888 19.54L20.6688 18.5L24.9088 12.46V14.54L21.3888 19.54ZM16.5488 26.5L8.38875 14.9V12.78L17.2688 25.46L16.5488 26.5ZM41.2359 33.5L52.8759 1.34H54.1559L42.5159 33.5H41.2359ZM35.6359 33.5L47.2759 1.34H48.5159L36.9159 33.5H35.6359ZM38.4359 33.5L50.0359 1.34H51.3559L39.7159 33.5H38.4359ZM64.6759 33.5L54.2359 4.66L54.8759 2.86L65.9559 33.5H64.6759ZM61.8759 33.5L52.8759 8.58L53.4759 6.74L63.1559 33.5H61.8759ZM59.0759 33.5L51.4759 12.46L52.1159 10.66L60.3559 33.5H59.0759ZM47.7559 22.86L48.1959 21.66H53.4759L53.9159 22.86H47.7559ZM46.7959 25.54L47.2359 24.34H54.4359L54.8759 25.54H46.7959ZM45.8359 28.18L46.2759 26.98H55.3959L55.8359 28.18H45.8359ZM83.0284 28.82C80.6551 28.82 78.6151 28.3133 76.9084 27.3C75.2018 26.26 73.8951 24.8733 72.9884 23.14C72.0818 21.4067 71.6284 19.5 71.6284 17.42C71.6284 15.3133 72.0818 13.4067 72.9884 11.7C73.8951 9.96667 75.2018 8.59333 76.9084 7.58C78.6151 6.54 80.6551 6.02 83.0284 6.02C84.7618 6.02 86.3218 6.31333 87.7084 6.9C89.0951 7.46 90.2684 8.24667 91.2284 9.26L90.3884 10.1C89.5084 9.22 88.4551 8.52667 87.2284 8.02C86.0018 7.51333 84.6018 7.26 83.0284 7.26C80.8951 7.26 79.0551 7.72667 77.5084 8.66C75.9884 9.56667 74.8284 10.7933 74.0284 12.34C73.2284 13.86 72.8284 15.5533 72.8284 17.42C72.8284 19.2867 73.2284 20.9933 74.0284 22.54C74.8284 24.06 75.9884 25.2867 77.5084 26.22C79.0551 27.1267 80.8951 27.58 83.0284 27.58C84.6018 27.58 86.0018 27.3267 87.2284 26.82C88.4551 26.3133 89.5084 25.62 90.3884 24.74L91.2284 25.58C90.2684 26.5667 89.0951 27.3533 87.7084 27.94C86.3218 28.5267 84.7618 28.82 83.0284 28.82ZM83.0284 31.46C80.8951 31.46 78.9618 31.1 77.2284 30.38C75.5218 29.6333 74.0418 28.62 72.7884 27.34C71.5618 26.06 70.6151 24.58 69.9484 22.9C69.3084 21.1933 68.9884 19.3667 68.9884 17.42C68.9884 15.4733 69.3084 13.66 69.9484 11.98C70.6151 10.2733 71.5618 8.78 72.7884 7.5C74.0418 6.19333 75.5218 5.18 77.2284 4.46C78.9618 3.74 80.8951 3.38 83.0284 3.38C85.1351 3.38 87.0284 3.74 88.7084 4.46C90.4151 5.15333 91.8818 6.12666 93.1084 7.38L92.2284 8.26C91.1351 7.11333 89.8018 6.22 88.2284 5.58C86.6818 4.94 84.9484 4.62 83.0284 4.62C80.4151 4.62 78.1351 5.19333 76.1884 6.34C74.2684 7.48667 72.7884 9.03333 71.7484 10.98C70.7084 12.9 70.1884 15.0467 70.1884 17.42C70.1884 19.7667 70.7084 21.9133 71.7484 23.86C72.7884 25.8067 74.2684 27.3533 76.1884 28.5C78.1351 29.6467 80.4151 30.22 83.0284 30.22C84.9484 30.22 86.6818 29.9 88.2284 29.26C89.8018 28.62 91.1351 27.7267 92.2284 26.58L93.1084 27.46C91.8818 28.6867 90.4151 29.66 88.7084 30.38C87.0284 31.1 85.1351 31.46 83.0284 31.46ZM83.0284 34.1C80.5218 34.1 78.2418 33.6733 76.1884 32.82C74.1618 31.94 72.4151 30.74 70.9484 29.22C69.4818 27.7 68.3484 25.94 67.5484 23.94C66.7484 21.9133 66.3484 19.74 66.3484 17.42C66.3484 15.1 66.7484 12.94 67.5484 10.94C68.3484 8.91333 69.4818 7.14 70.9484 5.62C72.4151 4.1 74.1618 2.91333 76.1884 2.06C78.2418 1.18 80.5218 0.739997 83.0284 0.739997C85.4818 0.739997 87.7218 1.16666 89.7484 2.02C91.7751 2.84666 93.5218 4.00666 94.9884 5.5L94.1484 6.34C92.7884 4.98 91.1618 3.91333 89.2684 3.14C87.4018 2.34 85.3218 1.94 83.0284 1.94C80.6818 1.94 78.5618 2.34 76.6684 3.14C74.7751 3.94 73.1484 5.04667 71.7884 6.46C70.4284 7.87333 69.3751 9.52667 68.6284 11.42C67.9084 13.2867 67.5484 15.2867 67.5484 17.42C67.5484 19.5533 67.9084 21.5667 68.6284 23.46C69.3751 25.3267 70.4284 26.9667 71.7884 28.38C73.1484 29.7933 74.7751 30.9 76.6684 31.7C78.5618 32.5 80.6818 32.9 83.0284 32.9C85.3218 32.9 87.4018 32.5133 89.2684 31.74C91.1618 30.94 92.7884 29.86 94.1484 28.5L94.9884 29.34C93.5218 30.8067 91.7751 31.9667 89.7484 32.82C87.7218 33.6733 85.4818 34.1 83.0284 34.1ZM103.093 33.5V1.34H104.293V33.5H103.093ZM97.8125 33.5V1.34H99.0125V33.5H97.8125ZM100.453 33.5V1.34H101.653V33.5H100.453ZM123.853 33.5V1.34H125.053V33.5H123.853ZM118.573 33.5V1.34H119.773V33.5H118.573ZM121.213 33.5V1.34H122.413V33.5H121.213ZM105.733 15.38V14.18H117.133V15.38H105.733ZM105.733 18.02V16.82H117.133V18.02H105.733ZM105.733 20.66V19.46H117.133V20.66H105.733ZM134.343 33.5V1.34H135.543V33.5H134.343ZM129.063 33.5V1.34H130.263V33.5H129.063ZM131.703 33.5V1.34H132.903V33.5H131.703Z" fill="white"/>
</svg>
