<svg width="26" height="22" viewBox="0 0 26 22" fill="none" xmlns="http://www.w3.org/2000/svg">
<path d="M3.16491 12.2439L3.16543 12.2443L11.9886 20.4816C11.9886 20.4816 11.9887 20.4816 11.9887 20.4816C12.262 20.7368 12.6234 20.8794 13 20.8794C13.3766 20.8794 13.738 20.7368 14.0113 20.4816C14.0113 20.4816 14.0114 20.4816 14.0114 20.4816L22.8346 12.2443L22.8351 12.2439C24.2174 10.957 25 9.15131 25 7.26314V6.97994C25 3.81128 22.7109 1.10971 19.5877 0.588368L3.16491 12.2439ZM3.16491 12.2439C1.78258 10.957 1 9.15131 1 7.26314V6.97994C1 3.81128 3.2891 1.10971 6.41228 0.588368L3.16491 12.2439ZM13 3.33646L12.6464 2.9829L12.0605 2.39697C10.5829 0.919376 8.47964 0.243846 6.41239 0.588349L13 3.33646ZM13 3.33646L13.3536 2.9829M13 3.33646L13.3536 2.9829M13.3536 2.9829L13.9395 2.39697C15.4171 0.919377 17.5204 0.243846 19.5876 0.588349L13.3536 2.9829Z" fill="#DADADA" fill-opacity="0.5" stroke="white"/>
</svg>
